<?xml version="1.0" encoding="UTF-8"?>
<!DOCTYPE svg PUBLIC "-//W3C//DTD SVG 1.1//EN" "http://www.w3.org/Graphics/SVG/1.1/DTD/svg11.dtd">
<svg xmlns="http://www.w3.org/2000/svg" version="1.1" width="512px" height="512px" style="shape-rendering:geometricPrecision; text-rendering:geometricPrecision; image-rendering:optimizeQuality; fill-rule:evenodd; clip-rule:evenodd" xmlns:xlink="http://www.w3.org/1999/xlink">
<g><path style="opacity:1" fill="#83a9bf" d="M 287.5,15.5 C 284.833,15.5 282.167,15.5 279.5,15.5C 260.833,15.5 242.167,15.5 223.5,15.5C 223.5,12.8333 223.5,10.1667 223.5,7.5C 244.833,7.5 266.167,7.5 287.5,7.5C 287.5,10.1667 287.5,12.8333 287.5,15.5 Z"/></g>
<g><path style="opacity:1" fill="#83a9bf" d="M 223.5,15.5 C 223.5,18.1667 223.5,20.8333 223.5,23.5C 218.167,23.5 212.833,23.5 207.5,23.5C 207.5,20.8333 207.5,18.1667 207.5,15.5C 212.833,15.5 218.167,15.5 223.5,15.5 Z"/></g>
<g><path style="opacity:1" fill="#a3c3eb" d="M 223.5,15.5 C 242.167,15.5 260.833,15.5 279.5,15.5C 279.5,18.1667 279.5,20.8333 279.5,23.5C 282.167,23.5 284.833,23.5 287.5,23.5C 287.5,26.1667 287.5,28.8333 287.5,31.5C 292.833,31.5 298.167,31.5 303.5,31.5C 303.5,34.1667 303.5,36.8333 303.5,39.5C 306.167,39.5 308.833,39.5 311.5,39.5C 311.5,44.8333 311.5,50.1667 311.5,55.5C 314.167,55.5 316.833,55.5 319.5,55.5C 319.5,58.1667 319.5,60.8333 319.5,63.5C 322.167,63.5 324.833,63.5 327.5,63.5C 327.5,82.1667 327.5,100.833 327.5,119.5C 324.833,119.5 322.167,119.5 319.5,119.5C 319.5,124.833 319.5,130.167 319.5,135.5C 316.833,135.5 314.167,135.5 311.5,135.5C 311.5,138.167 311.5,140.833 311.5,143.5C 308.833,143.5 306.167,143.5 303.5,143.5C 303.5,146.167 303.5,148.833 303.5,151.5C 298.167,151.5 292.833,151.5 287.5,151.5C 287.5,154.167 287.5,156.833 287.5,159.5C 266.167,159.5 244.833,159.5 223.5,159.5C 223.5,156.833 223.5,154.167 223.5,151.5C 218.167,151.5 212.833,151.5 207.5,151.5C 207.5,148.833 207.5,146.167 207.5,143.5C 204.833,143.5 202.167,143.5 199.5,143.5C 199.5,140.833 199.5,138.167 199.5,135.5C 196.833,135.5 194.167,135.5 191.5,135.5C 191.5,130.167 191.5,124.833 191.5,119.5C 188.833,119.5 186.167,119.5 183.5,119.5C 183.5,98.1667 183.5,76.8333 183.5,55.5C 186.167,55.5 188.833,55.5 191.5,55.5C 191.5,50.1667 191.5,44.8333 191.5,39.5C 194.167,39.5 196.833,39.5 199.5,39.5C 199.5,36.8333 199.5,34.1667 199.5,31.5C 202.167,31.5 204.833,31.5 207.5,31.5C 207.5,28.8333 207.5,26.1667 207.5,23.5C 212.833,23.5 218.167,23.5 223.5,23.5C 223.5,20.8333 223.5,18.1667 223.5,15.5 Z"/></g>
<g><path style="opacity:1" fill="#d8e6f6" d="M 279.5,15.5 C 282.167,15.5 284.833,15.5 287.5,15.5C 287.5,18.1667 287.5,20.8333 287.5,23.5C 284.833,23.5 282.167,23.5 279.5,23.5C 279.5,20.8333 279.5,18.1667 279.5,15.5 Z"/></g>
<g><path style="opacity:1" fill="#83a9bf" d="M 287.5,15.5 C 292.833,15.5 298.167,15.5 303.5,15.5C 303.5,18.1667 303.5,20.8333 303.5,23.5C 298.167,23.5 292.833,23.5 287.5,23.5C 287.5,20.8333 287.5,18.1667 287.5,15.5 Z"/></g>
<g><path style="opacity:1" fill="#83a9bf" d="M 207.5,23.5 C 207.5,26.1667 207.5,28.8333 207.5,31.5C 204.833,31.5 202.167,31.5 199.5,31.5C 199.5,28.8333 199.5,26.1667 199.5,23.5C 202.167,23.5 204.833,23.5 207.5,23.5 Z"/></g>
<g><path style="opacity:1" fill="#d8e6f6" d="M 287.5,23.5 C 292.833,23.5 298.167,23.5 303.5,23.5C 303.5,26.1667 303.5,28.8333 303.5,31.5C 298.167,31.5 292.833,31.5 287.5,31.5C 287.5,28.8333 287.5,26.1667 287.5,23.5 Z"/></g>
<g><path style="opacity:1" fill="#83a9bf" d="M 303.5,23.5 C 306.167,23.5 308.833,23.5 311.5,23.5C 311.5,26.1667 311.5,28.8333 311.5,31.5C 308.833,31.5 306.167,31.5 303.5,31.5C 303.5,28.8333 303.5,26.1667 303.5,23.5 Z"/></g>
<g><path style="opacity:1" fill="#83a9bf" d="M 199.5,31.5 C 199.5,34.1667 199.5,36.8333 199.5,39.5C 196.833,39.5 194.167,39.5 191.5,39.5C 191.5,36.8333 191.5,34.1667 191.5,31.5C 194.167,31.5 196.833,31.5 199.5,31.5 Z"/></g>
<g><path style="opacity:1" fill="#d8e6f6" d="M 247.5,31.5 C 250.167,31.5 252.833,31.5 255.5,31.5C 255.5,34.1667 255.5,36.8333 255.5,39.5C 252.833,39.5 250.167,39.5 247.5,39.5C 247.5,36.8333 247.5,34.1667 247.5,31.5 Z"/></g>
<g><path style="opacity:1" fill="#d8e6f6" d="M 263.5,31.5 C 268.833,31.5 274.167,31.5 279.5,31.5C 279.5,34.1667 279.5,36.8333 279.5,39.5C 284.833,39.5 290.167,39.5 295.5,39.5C 295.5,42.1667 295.5,44.8333 295.5,47.5C 287.5,47.5 279.5,47.5 271.5,47.5C 271.5,44.8333 271.5,42.1667 271.5,39.5C 268.833,39.5 266.167,39.5 263.5,39.5C 263.5,36.8333 263.5,34.1667 263.5,31.5 Z"/></g>
<g><path style="opacity:1" fill="#d8e6f6" d="M 303.5,31.5 C 306.167,31.5 308.833,31.5 311.5,31.5C 311.5,34.1667 311.5,36.8333 311.5,39.5C 308.833,39.5 306.167,39.5 303.5,39.5C 303.5,36.8333 303.5,34.1667 303.5,31.5 Z"/></g>
<g><path style="opacity:1" fill="#83a9bf" d="M 311.5,31.5 C 314.167,31.5 316.833,31.5 319.5,31.5C 319.5,34.1667 319.5,36.8333 319.5,39.5C 316.833,39.5 314.167,39.5 311.5,39.5C 311.5,36.8333 311.5,34.1667 311.5,31.5 Z"/></g>
<g><path style="opacity:1" fill="#83a9bf" d="M 191.5,39.5 C 191.5,44.8333 191.5,50.1667 191.5,55.5C 188.833,55.5 186.167,55.5 183.5,55.5C 183.5,50.1667 183.5,44.8333 183.5,39.5C 186.167,39.5 188.833,39.5 191.5,39.5 Z"/></g>
<g><path style="opacity:1" fill="#d8e6f6" d="M 311.5,39.5 C 314.167,39.5 316.833,39.5 319.5,39.5C 319.5,44.8333 319.5,50.1667 319.5,55.5C 316.833,55.5 314.167,55.5 311.5,55.5C 311.5,50.1667 311.5,44.8333 311.5,39.5 Z"/></g>
<g><path style="opacity:1" fill="#83a9bf" d="M 319.5,39.5 C 322.167,39.5 324.833,39.5 327.5,39.5C 327.5,44.8333 327.5,50.1667 327.5,55.5C 324.833,55.5 322.167,55.5 319.5,55.5C 319.5,50.1667 319.5,44.8333 319.5,39.5 Z"/></g>
<g><path style="opacity:1" fill="#83a9bf" d="M 183.5,55.5 C 183.5,76.8333 183.5,98.1667 183.5,119.5C 180.833,119.5 178.167,119.5 175.5,119.5C 175.5,98.1667 175.5,76.8333 175.5,55.5C 178.167,55.5 180.833,55.5 183.5,55.5 Z"/></g>
<g><path style="opacity:1" fill="#31325f" d="M 247.5,55.5 C 250.167,55.5 252.833,55.5 255.5,55.5C 255.5,66.1667 255.5,76.8333 255.5,87.5C 252.833,87.5 250.167,87.5 247.5,87.5C 247.5,76.8333 247.5,66.1667 247.5,55.5 Z"/></g>
<g><path style="opacity:1" fill="#31325f" d="M 295.5,55.5 C 298.167,55.5 300.833,55.5 303.5,55.5C 303.5,66.1667 303.5,76.8333 303.5,87.5C 300.833,87.5 298.167,87.5 295.5,87.5C 295.5,76.8333 295.5,66.1667 295.5,55.5 Z"/></g>
<g><path style="opacity:1" fill="#d8e6f6" d="M 319.5,55.5 C 322.167,55.5 324.833,55.5 327.5,55.5C 327.5,58.1667 327.5,60.8333 327.5,63.5C 324.833,63.5 322.167,63.5 319.5,63.5C 319.5,60.8333 319.5,58.1667 319.5,55.5 Z"/></g>
<g><path style="opacity:1" fill="#83a9bf" d="M 327.5,55.5 C 330.167,55.5 332.833,55.5 335.5,55.5C 335.5,76.8333 335.5,98.1667 335.5,119.5C 332.833,119.5 330.167,119.5 327.5,119.5C 327.5,100.833 327.5,82.1667 327.5,63.5C 327.5,60.8333 327.5,58.1667 327.5,55.5 Z"/></g>
<g><path style="opacity:1" fill="#84a1c4" d="M 191.5,95.5 C 194.167,95.5 196.833,95.5 199.5,95.5C 199.5,98.1667 199.5,100.833 199.5,103.5C 202.167,103.5 204.833,103.5 207.5,103.5C 207.5,108.833 207.5,114.167 207.5,119.5C 210.167,119.5 212.833,119.5 215.5,119.5C 215.5,122.167 215.5,124.833 215.5,127.5C 218.167,127.5 220.833,127.5 223.5,127.5C 223.5,130.167 223.5,132.833 223.5,135.5C 228.833,135.5 234.167,135.5 239.5,135.5C 239.5,138.167 239.5,140.833 239.5,143.5C 242.167,143.5 244.833,143.5 247.5,143.5C 247.5,146.167 247.5,148.833 247.5,151.5C 242.167,151.5 236.833,151.5 231.5,151.5C 231.5,148.833 231.5,146.167 231.5,143.5C 226.167,143.5 220.833,143.5 215.5,143.5C 215.5,140.833 215.5,138.167 215.5,135.5C 212.833,135.5 210.167,135.5 207.5,135.5C 207.5,132.833 207.5,130.167 207.5,127.5C 204.833,127.5 202.167,127.5 199.5,127.5C 199.5,122.167 199.5,116.833 199.5,111.5C 196.833,111.5 194.167,111.5 191.5,111.5C 191.5,106.167 191.5,100.833 191.5,95.5 Z"/></g>
<g><path style="opacity:1" fill="#83a9bf" d="M 183.5,119.5 C 186.167,119.5 188.833,119.5 191.5,119.5C 191.5,124.833 191.5,130.167 191.5,135.5C 188.833,135.5 186.167,135.5 183.5,135.5C 183.5,130.167 183.5,124.833 183.5,119.5 Z"/></g>
<g><path style="opacity:1" fill="#83a9bf" d="M 327.5,119.5 C 327.5,124.833 327.5,130.167 327.5,135.5C 324.833,135.5 322.167,135.5 319.5,135.5C 319.5,130.167 319.5,124.833 319.5,119.5C 322.167,119.5 324.833,119.5 327.5,119.5 Z"/></g>
<g><path style="opacity:1" fill="#83a9bf" d="M 191.5,135.5 C 194.167,135.5 196.833,135.5 199.5,135.5C 199.5,138.167 199.5,140.833 199.5,143.5C 196.833,143.5 194.167,143.5 191.5,143.5C 191.5,140.833 191.5,138.167 191.5,135.5 Z"/></g>
<g><path style="opacity:1" fill="#83a9bf" d="M 319.5,135.5 C 319.5,138.167 319.5,140.833 319.5,143.5C 316.833,143.5 314.167,143.5 311.5,143.5C 311.5,140.833 311.5,138.167 311.5,135.5C 314.167,135.5 316.833,135.5 319.5,135.5 Z"/></g>
<g><path style="opacity:1" fill="#83a9bf" d="M 199.5,143.5 C 202.167,143.5 204.833,143.5 207.5,143.5C 207.5,146.167 207.5,148.833 207.5,151.5C 204.833,151.5 202.167,151.5 199.5,151.5C 199.5,148.833 199.5,146.167 199.5,143.5 Z"/></g>
<g><path style="opacity:1" fill="#83a9bf" d="M 311.5,143.5 C 311.5,146.167 311.5,148.833 311.5,151.5C 308.833,151.5 306.167,151.5 303.5,151.5C 303.5,148.833 303.5,146.167 303.5,143.5C 306.167,143.5 308.833,143.5 311.5,143.5 Z"/></g>
<g><path style="opacity:1" fill="#83a9bf" d="M 207.5,151.5 C 212.833,151.5 218.167,151.5 223.5,151.5C 223.5,154.167 223.5,156.833 223.5,159.5C 218.167,159.5 212.833,159.5 207.5,159.5C 207.5,156.833 207.5,154.167 207.5,151.5 Z"/></g>
<g><path style="opacity:1" fill="#83a9bf" d="M 303.5,151.5 C 303.5,154.167 303.5,156.833 303.5,159.5C 298.167,159.5 292.833,159.5 287.5,159.5C 287.5,156.833 287.5,154.167 287.5,151.5C 292.833,151.5 298.167,151.5 303.5,151.5 Z"/></g>
<g><path style="opacity:1" fill="#83a9bf" d="M 223.5,159.5 C 244.833,159.5 266.167,159.5 287.5,159.5C 287.5,162.167 287.5,164.833 287.5,167.5C 266.167,167.5 244.833,167.5 223.5,167.5C 223.5,164.833 223.5,162.167 223.5,159.5 Z"/></g>
</svg>
