<?xml version="1.0" encoding="UTF-8"?>
<!DOCTYPE svg PUBLIC "-//W3C//DTD SVG 1.1//EN" "http://www.w3.org/Graphics/SVG/1.1/DTD/svg11.dtd">
<svg xmlns="http://www.w3.org/2000/svg" version="1.1" width="512px" height="512px" style="shape-rendering:geometricPrecision; text-rendering:geometricPrecision; image-rendering:optimizeQuality; fill-rule:evenodd; clip-rule:evenodd" xmlns:xlink="http://www.w3.org/1999/xlink">
<g><path style="opacity:1" fill="#83a9bf" d="M 303.5,15.5 C 298.167,15.5 292.833,15.5 287.5,15.5C 260.833,15.5 234.167,15.5 207.5,15.5C 207.5,12.8333 207.5,10.1667 207.5,7.5C 239.5,7.5 271.5,7.5 303.5,7.5C 303.5,10.1667 303.5,12.8333 303.5,15.5 Z"/></g>
<g><path style="opacity:1" fill="#83a9bf" d="M 207.5,15.5 C 207.5,18.1667 207.5,20.8333 207.5,23.5C 202.167,23.5 196.833,23.5 191.5,23.5C 191.5,20.8333 191.5,18.1667 191.5,15.5C 196.833,15.5 202.167,15.5 207.5,15.5 Z"/></g>
<g><path style="opacity:1" fill="#a3c3eb" d="M 207.5,15.5 C 234.167,15.5 260.833,15.5 287.5,15.5C 287.5,18.1667 287.5,20.8333 287.5,23.5C 292.833,23.5 298.167,23.5 303.5,23.5C 303.5,26.1667 303.5,28.8333 303.5,31.5C 308.833,31.5 314.167,31.5 319.5,31.5C 319.5,34.1667 319.5,36.8333 319.5,39.5C 324.833,39.5 330.167,39.5 335.5,39.5C 335.5,44.8333 335.5,50.1667 335.5,55.5C 338.167,55.5 340.833,55.5 343.5,55.5C 343.5,58.1667 343.5,60.8333 343.5,63.5C 346.167,63.5 348.833,63.5 351.5,63.5C 351.5,76.8333 351.5,90.1667 351.5,103.5C 348.833,103.5 346.167,103.5 343.5,103.5C 343.5,108.833 343.5,114.167 343.5,119.5C 340.833,119.5 338.167,119.5 335.5,119.5C 335.5,122.167 335.5,124.833 335.5,127.5C 330.167,127.5 324.833,127.5 319.5,127.5C 319.5,130.167 319.5,132.833 319.5,135.5C 314.167,135.5 308.833,135.5 303.5,135.5C 303.5,138.167 303.5,140.833 303.5,143.5C 271.5,143.5 239.5,143.5 207.5,143.5C 207.5,140.833 207.5,138.167 207.5,135.5C 202.167,135.5 196.833,135.5 191.5,135.5C 191.5,132.833 191.5,130.167 191.5,127.5C 186.167,127.5 180.833,127.5 175.5,127.5C 175.5,124.833 175.5,122.167 175.5,119.5C 172.833,119.5 170.167,119.5 167.5,119.5C 167.5,114.167 167.5,108.833 167.5,103.5C 164.833,103.5 162.167,103.5 159.5,103.5C 159.5,87.5 159.5,71.5 159.5,55.5C 162.167,55.5 164.833,55.5 167.5,55.5C 167.5,50.1667 167.5,44.8333 167.5,39.5C 170.167,39.5 172.833,39.5 175.5,39.5C 175.5,36.8333 175.5,34.1667 175.5,31.5C 180.833,31.5 186.167,31.5 191.5,31.5C 191.5,28.8333 191.5,26.1667 191.5,23.5C 196.833,23.5 202.167,23.5 207.5,23.5C 207.5,20.8333 207.5,18.1667 207.5,15.5 Z"/></g>
<g><path style="opacity:1" fill="#d8e6f6" d="M 287.5,15.5 C 292.833,15.5 298.167,15.5 303.5,15.5C 303.5,18.1667 303.5,20.8333 303.5,23.5C 298.167,23.5 292.833,23.5 287.5,23.5C 287.5,20.8333 287.5,18.1667 287.5,15.5 Z"/></g>
<g><path style="opacity:1" fill="#83a9bf" d="M 303.5,15.5 C 308.833,15.5 314.167,15.5 319.5,15.5C 319.5,18.1667 319.5,20.8333 319.5,23.5C 314.167,23.5 308.833,23.5 303.5,23.5C 303.5,20.8333 303.5,18.1667 303.5,15.5 Z"/></g>
<g><path style="opacity:1" fill="#83a9bf" d="M 191.5,23.5 C 191.5,26.1667 191.5,28.8333 191.5,31.5C 186.167,31.5 180.833,31.5 175.5,31.5C 175.5,28.8333 175.5,26.1667 175.5,23.5C 180.833,23.5 186.167,23.5 191.5,23.5 Z"/></g>
<g><path style="opacity:1" fill="#d8e6f6" d="M 239.5,23.5 C 242.167,23.5 244.833,23.5 247.5,23.5C 247.5,26.1667 247.5,28.8333 247.5,31.5C 244.833,31.5 242.167,31.5 239.5,31.5C 239.5,28.8333 239.5,26.1667 239.5,23.5 Z"/></g>
<g><path style="opacity:1" fill="#d8e6f6" d="M 255.5,23.5 C 263.5,23.5 271.5,23.5 279.5,23.5C 279.5,26.1667 279.5,28.8333 279.5,31.5C 284.833,31.5 290.167,31.5 295.5,31.5C 295.5,34.1667 295.5,36.8333 295.5,39.5C 287.5,39.5 279.5,39.5 271.5,39.5C 271.5,36.8333 271.5,34.1667 271.5,31.5C 266.167,31.5 260.833,31.5 255.5,31.5C 255.5,28.8333 255.5,26.1667 255.5,23.5 Z"/></g>
<g><path style="opacity:1" fill="#d8e6f6" d="M 303.5,23.5 C 308.833,23.5 314.167,23.5 319.5,23.5C 319.5,26.1667 319.5,28.8333 319.5,31.5C 314.167,31.5 308.833,31.5 303.5,31.5C 303.5,28.8333 303.5,26.1667 303.5,23.5 Z"/></g>
<g><path style="opacity:1" fill="#83a9bf" d="M 319.5,23.5 C 324.833,23.5 330.167,23.5 335.5,23.5C 335.5,26.1667 335.5,28.8333 335.5,31.5C 330.167,31.5 324.833,31.5 319.5,31.5C 319.5,28.8333 319.5,26.1667 319.5,23.5 Z"/></g>
<g><path style="opacity:1" fill="#83a9bf" d="M 175.5,31.5 C 175.5,34.1667 175.5,36.8333 175.5,39.5C 172.833,39.5 170.167,39.5 167.5,39.5C 167.5,36.8333 167.5,34.1667 167.5,31.5C 170.167,31.5 172.833,31.5 175.5,31.5 Z"/></g>
<g><path style="opacity:1" fill="#d8e6f6" d="M 319.5,31.5 C 324.833,31.5 330.167,31.5 335.5,31.5C 335.5,34.1667 335.5,36.8333 335.5,39.5C 330.167,39.5 324.833,39.5 319.5,39.5C 319.5,36.8333 319.5,34.1667 319.5,31.5 Z"/></g>
<g><path style="opacity:1" fill="#83a9bf" d="M 335.5,31.5 C 338.167,31.5 340.833,31.5 343.5,31.5C 343.5,34.1667 343.5,36.8333 343.5,39.5C 340.833,39.5 338.167,39.5 335.5,39.5C 335.5,36.8333 335.5,34.1667 335.5,31.5 Z"/></g>
<g><path style="opacity:1" fill="#83a9bf" d="M 167.5,39.5 C 167.5,44.8333 167.5,50.1667 167.5,55.5C 164.833,55.5 162.167,55.5 159.5,55.5C 159.5,50.1667 159.5,44.8333 159.5,39.5C 162.167,39.5 164.833,39.5 167.5,39.5 Z"/></g>
<g><path style="opacity:1" fill="#d8e6f6" d="M 335.5,39.5 C 338.167,39.5 340.833,39.5 343.5,39.5C 343.5,44.8333 343.5,50.1667 343.5,55.5C 340.833,55.5 338.167,55.5 335.5,55.5C 335.5,50.1667 335.5,44.8333 335.5,39.5 Z"/></g>
<g><path style="opacity:1" fill="#83a9bf" d="M 343.5,39.5 C 346.167,39.5 348.833,39.5 351.5,39.5C 351.5,44.8333 351.5,50.1667 351.5,55.5C 348.833,55.5 346.167,55.5 343.5,55.5C 343.5,50.1667 343.5,44.8333 343.5,39.5 Z"/></g>
<g><path style="opacity:1" fill="#83a9bf" d="M 159.5,55.5 C 159.5,71.5 159.5,87.5 159.5,103.5C 156.833,103.5 154.167,103.5 151.5,103.5C 151.5,87.5 151.5,71.5 151.5,55.5C 154.167,55.5 156.833,55.5 159.5,55.5 Z"/></g>
<g><path style="opacity:1" fill="#31325f" d="M 247.5,55.5 C 250.167,55.5 252.833,55.5 255.5,55.5C 255.5,66.1667 255.5,76.8333 255.5,87.5C 252.833,87.5 250.167,87.5 247.5,87.5C 247.5,76.8333 247.5,66.1667 247.5,55.5 Z"/></g>
<g><path style="opacity:1" fill="#31325f" d="M 303.5,55.5 C 306.167,55.5 308.833,55.5 311.5,55.5C 311.5,66.1667 311.5,76.8333 311.5,87.5C 308.833,87.5 306.167,87.5 303.5,87.5C 303.5,76.8333 303.5,66.1667 303.5,55.5 Z"/></g>
<g><path style="opacity:1" fill="#d8e6f6" d="M 343.5,55.5 C 346.167,55.5 348.833,55.5 351.5,55.5C 351.5,58.1667 351.5,60.8333 351.5,63.5C 348.833,63.5 346.167,63.5 343.5,63.5C 343.5,60.8333 343.5,58.1667 343.5,55.5 Z"/></g>
<g><path style="opacity:1" fill="#83a9bf" d="M 351.5,55.5 C 354.167,55.5 356.833,55.5 359.5,55.5C 359.5,71.5 359.5,87.5 359.5,103.5C 356.833,103.5 354.167,103.5 351.5,103.5C 351.5,90.1667 351.5,76.8333 351.5,63.5C 351.5,60.8333 351.5,58.1667 351.5,55.5 Z"/></g>
<g><path style="opacity:1" fill="#84a1c4" d="M 167.5,79.5 C 170.167,79.5 172.833,79.5 175.5,79.5C 175.5,82.1667 175.5,84.8333 175.5,87.5C 178.167,87.5 180.833,87.5 183.5,87.5C 183.5,92.8333 183.5,98.1667 183.5,103.5C 186.167,103.5 188.833,103.5 191.5,103.5C 191.5,106.167 191.5,108.833 191.5,111.5C 196.833,111.5 202.167,111.5 207.5,111.5C 207.5,114.167 207.5,116.833 207.5,119.5C 212.833,119.5 218.167,119.5 223.5,119.5C 223.5,122.167 223.5,124.833 223.5,127.5C 226.167,127.5 228.833,127.5 231.5,127.5C 231.5,130.167 231.5,132.833 231.5,135.5C 226.167,135.5 220.833,135.5 215.5,135.5C 215.5,132.833 215.5,130.167 215.5,127.5C 210.167,127.5 204.833,127.5 199.5,127.5C 199.5,124.833 199.5,122.167 199.5,119.5C 194.167,119.5 188.833,119.5 183.5,119.5C 183.5,116.833 183.5,114.167 183.5,111.5C 180.833,111.5 178.167,111.5 175.5,111.5C 175.5,106.167 175.5,100.833 175.5,95.5C 172.833,95.5 170.167,95.5 167.5,95.5C 167.5,90.1667 167.5,84.8333 167.5,79.5 Z"/></g>
<g><path style="opacity:1" fill="#83a9bf" d="M 159.5,103.5 C 162.167,103.5 164.833,103.5 167.5,103.5C 167.5,108.833 167.5,114.167 167.5,119.5C 164.833,119.5 162.167,119.5 159.5,119.5C 159.5,114.167 159.5,108.833 159.5,103.5 Z"/></g>
<g><path style="opacity:1" fill="#83a9bf" d="M 351.5,103.5 C 351.5,108.833 351.5,114.167 351.5,119.5C 348.833,119.5 346.167,119.5 343.5,119.5C 343.5,114.167 343.5,108.833 343.5,103.5C 346.167,103.5 348.833,103.5 351.5,103.5 Z"/></g>
<g><path style="opacity:1" fill="#83a9bf" d="M 167.5,119.5 C 170.167,119.5 172.833,119.5 175.5,119.5C 175.5,122.167 175.5,124.833 175.5,127.5C 172.833,127.5 170.167,127.5 167.5,127.5C 167.5,124.833 167.5,122.167 167.5,119.5 Z"/></g>
<g><path style="opacity:1" fill="#83a9bf" d="M 343.5,119.5 C 343.5,122.167 343.5,124.833 343.5,127.5C 340.833,127.5 338.167,127.5 335.5,127.5C 335.5,124.833 335.5,122.167 335.5,119.5C 338.167,119.5 340.833,119.5 343.5,119.5 Z"/></g>
<g><path style="opacity:1" fill="#83a9bf" d="M 175.5,127.5 C 180.833,127.5 186.167,127.5 191.5,127.5C 191.5,130.167 191.5,132.833 191.5,135.5C 186.167,135.5 180.833,135.5 175.5,135.5C 175.5,132.833 175.5,130.167 175.5,127.5 Z"/></g>
<g><path style="opacity:1" fill="#83a9bf" d="M 335.5,127.5 C 335.5,130.167 335.5,132.833 335.5,135.5C 330.167,135.5 324.833,135.5 319.5,135.5C 319.5,132.833 319.5,130.167 319.5,127.5C 324.833,127.5 330.167,127.5 335.5,127.5 Z"/></g>
<g><path style="opacity:1" fill="#83a9bf" d="M 191.5,135.5 C 196.833,135.5 202.167,135.5 207.5,135.5C 207.5,138.167 207.5,140.833 207.5,143.5C 202.167,143.5 196.833,143.5 191.5,143.5C 191.5,140.833 191.5,138.167 191.5,135.5 Z"/></g>
<g><path style="opacity:1" fill="#83a9bf" d="M 319.5,135.5 C 319.5,138.167 319.5,140.833 319.5,143.5C 314.167,143.5 308.833,143.5 303.5,143.5C 303.5,140.833 303.5,138.167 303.5,135.5C 308.833,135.5 314.167,135.5 319.5,135.5 Z"/></g>
<g><path style="opacity:1" fill="#83a9bf" d="M 207.5,143.5 C 239.5,143.5 271.5,143.5 303.5,143.5C 303.5,146.167 303.5,148.833 303.5,151.5C 271.5,151.5 239.5,151.5 207.5,151.5C 207.5,148.833 207.5,146.167 207.5,143.5 Z"/></g>
</svg>
