<?xml version="1.0" encoding="UTF-8"?>
<!DOCTYPE svg PUBLIC "-//W3C//DTD SVG 1.1//EN" "http://www.w3.org/Graphics/SVG/1.1/DTD/svg11.dtd">
<svg xmlns="http://www.w3.org/2000/svg" version="1.1" width="512px" height="512px" style="shape-rendering:geometricPrecision; text-rendering:geometricPrecision; image-rendering:optimizeQuality; fill-rule:evenodd; clip-rule:evenodd" xmlns:xlink="http://www.w3.org/1999/xlink">
<g><path style="opacity:1" fill="#83a9bf" d="M 287.5,39.5 C 282.167,39.5 276.833,39.5 271.5,39.5C 255.5,39.5 239.5,39.5 223.5,39.5C 223.5,36.8333 223.5,34.1667 223.5,31.5C 244.833,31.5 266.167,31.5 287.5,31.5C 287.5,34.1667 287.5,36.8333 287.5,39.5 Z"/></g>
<g><path style="opacity:1" fill="#83a9bf" d="M 223.5,39.5 C 223.5,42.1667 223.5,44.8333 223.5,47.5C 218.167,47.5 212.833,47.5 207.5,47.5C 207.5,44.8333 207.5,42.1667 207.5,39.5C 212.833,39.5 218.167,39.5 223.5,39.5 Z"/></g>
<g><path style="opacity:1" fill="#a3c3eb" d="M 223.5,39.5 C 239.5,39.5 255.5,39.5 271.5,39.5C 271.5,42.1667 271.5,44.8333 271.5,47.5C 276.833,47.5 282.167,47.5 287.5,47.5C 287.5,50.1667 287.5,52.8333 287.5,55.5C 290.167,55.5 292.833,55.5 295.5,55.5C 295.5,58.1667 295.5,60.8333 295.5,63.5C 298.167,63.5 300.833,63.5 303.5,63.5C 303.5,66.1667 303.5,68.8333 303.5,71.5C 306.167,71.5 308.833,71.5 311.5,71.5C 311.5,76.8333 311.5,82.1667 311.5,87.5C 314.167,87.5 316.833,87.5 319.5,87.5C 319.5,108.833 319.5,130.167 319.5,151.5C 316.833,151.5 314.167,151.5 311.5,151.5C 311.5,156.833 311.5,162.167 311.5,167.5C 308.833,167.5 306.167,167.5 303.5,167.5C 303.5,170.167 303.5,172.833 303.5,175.5C 300.833,175.5 298.167,175.5 295.5,175.5C 295.5,178.167 295.5,180.833 295.5,183.5C 292.833,183.5 290.167,183.5 287.5,183.5C 287.5,186.167 287.5,188.833 287.5,191.5C 266.167,191.5 244.833,191.5 223.5,191.5C 223.5,188.833 223.5,186.167 223.5,183.5C 220.833,183.5 218.167,183.5 215.5,183.5C 215.5,180.833 215.5,178.167 215.5,175.5C 212.833,175.5 210.167,175.5 207.5,175.5C 207.5,172.833 207.5,170.167 207.5,167.5C 204.833,167.5 202.167,167.5 199.5,167.5C 199.5,162.167 199.5,156.833 199.5,151.5C 196.833,151.5 194.167,151.5 191.5,151.5C 191.5,130.167 191.5,108.833 191.5,87.5C 194.167,87.5 196.833,87.5 199.5,87.5C 199.5,79.5 199.5,71.5 199.5,63.5C 202.167,63.5 204.833,63.5 207.5,63.5C 207.5,58.1667 207.5,52.8333 207.5,47.5C 212.833,47.5 218.167,47.5 223.5,47.5C 223.5,44.8333 223.5,42.1667 223.5,39.5 Z"/></g>
<g><path style="opacity:1" fill="#d8e6f6" d="M 271.5,39.5 C 276.833,39.5 282.167,39.5 287.5,39.5C 287.5,42.1667 287.5,44.8333 287.5,47.5C 282.167,47.5 276.833,47.5 271.5,47.5C 271.5,44.8333 271.5,42.1667 271.5,39.5 Z"/></g>
<g><path style="opacity:1" fill="#83a9bf" d="M 287.5,39.5 C 292.833,39.5 298.167,39.5 303.5,39.5C 303.5,42.1667 303.5,44.8333 303.5,47.5C 298.167,47.5 292.833,47.5 287.5,47.5C 287.5,44.8333 287.5,42.1667 287.5,39.5 Z"/></g>
<g><path style="opacity:1" fill="#83a9bf" d="M 207.5,47.5 C 207.5,52.8333 207.5,58.1667 207.5,63.5C 204.833,63.5 202.167,63.5 199.5,63.5C 199.5,71.5 199.5,79.5 199.5,87.5C 196.833,87.5 194.167,87.5 191.5,87.5C 191.5,108.833 191.5,130.167 191.5,151.5C 188.833,151.5 186.167,151.5 183.5,151.5C 183.5,127.5 183.5,103.5 183.5,79.5C 186.167,79.5 188.833,79.5 191.5,79.5C 191.5,71.5 191.5,63.5 191.5,55.5C 194.167,55.5 196.833,55.5 199.5,55.5C 199.5,52.8333 199.5,50.1667 199.5,47.5C 202.167,47.5 204.833,47.5 207.5,47.5 Z"/></g>
<g><path style="opacity:1" fill="#d8e6f6" d="M 287.5,47.5 C 292.833,47.5 298.167,47.5 303.5,47.5C 303.5,52.8333 303.5,58.1667 303.5,63.5C 300.833,63.5 298.167,63.5 295.5,63.5C 295.5,60.8333 295.5,58.1667 295.5,55.5C 292.833,55.5 290.167,55.5 287.5,55.5C 287.5,52.8333 287.5,50.1667 287.5,47.5 Z"/></g>
<g><path style="opacity:1" fill="#83a9bf" d="M 303.5,47.5 C 306.167,47.5 308.833,47.5 311.5,47.5C 311.5,50.1667 311.5,52.8333 311.5,55.5C 314.167,55.5 316.833,55.5 319.5,55.5C 319.5,63.5 319.5,71.5 319.5,79.5C 322.167,79.5 324.833,79.5 327.5,79.5C 327.5,103.5 327.5,127.5 327.5,151.5C 324.833,151.5 322.167,151.5 319.5,151.5C 319.5,130.167 319.5,108.833 319.5,87.5C 316.833,87.5 314.167,87.5 311.5,87.5C 311.5,82.1667 311.5,76.8333 311.5,71.5C 308.833,71.5 306.167,71.5 303.5,71.5C 303.5,68.8333 303.5,66.1667 303.5,63.5C 303.5,58.1667 303.5,52.8333 303.5,47.5 Z"/></g>
<g><path style="opacity:1" fill="#d8e6f6" d="M 239.5,55.5 C 242.167,55.5 244.833,55.5 247.5,55.5C 247.5,58.1667 247.5,60.8333 247.5,63.5C 244.833,63.5 242.167,63.5 239.5,63.5C 239.5,60.8333 239.5,58.1667 239.5,55.5 Z"/></g>
<g><path style="opacity:1" fill="#d8e6f6" d="M 255.5,55.5 C 263.5,55.5 271.5,55.5 279.5,55.5C 279.5,58.1667 279.5,60.8333 279.5,63.5C 282.167,63.5 284.833,63.5 287.5,63.5C 287.5,66.1667 287.5,68.8333 287.5,71.5C 282.167,71.5 276.833,71.5 271.5,71.5C 271.5,68.8333 271.5,66.1667 271.5,63.5C 266.167,63.5 260.833,63.5 255.5,63.5C 255.5,60.8333 255.5,58.1667 255.5,55.5 Z"/></g>
<g><path style="opacity:1" fill="#d8e6f6" d="M 303.5,63.5 C 306.167,63.5 308.833,63.5 311.5,63.5C 311.5,66.1667 311.5,68.8333 311.5,71.5C 311.5,68.8333 311.5,66.1667 311.5,63.5C 308.833,63.5 306.167,63.5 303.5,63.5 Z"/></g>
<g><path style="opacity:1" fill="#31325f" d="M 247.5,79.5 C 250.167,79.5 252.833,79.5 255.5,79.5C 255.5,90.1667 255.5,100.833 255.5,111.5C 252.833,111.5 250.167,111.5 247.5,111.5C 247.5,100.833 247.5,90.1667 247.5,79.5 Z"/></g>
<g><path style="opacity:1" fill="#31325f" d="M 287.5,79.5 C 290.167,79.5 292.833,79.5 295.5,79.5C 295.5,90.1667 295.5,100.833 295.5,111.5C 292.833,111.5 290.167,111.5 287.5,111.5C 287.5,100.833 287.5,90.1667 287.5,79.5 Z"/></g>
<g><path style="opacity:1" fill="#84a1c4" d="M 239.5,175.5 C 234.167,175.5 228.833,175.5 223.5,175.5C 223.5,172.833 223.5,170.167 223.5,167.5C 220.833,167.5 218.167,167.5 215.5,167.5C 215.5,164.833 215.5,162.167 215.5,159.5C 212.833,159.5 210.167,159.5 207.5,159.5C 207.5,154.167 207.5,148.833 207.5,143.5C 204.833,143.5 202.167,143.5 199.5,143.5C 199.5,135.5 199.5,127.5 199.5,119.5C 202.167,119.5 204.833,119.5 207.5,119.5C 207.5,124.833 207.5,130.167 207.5,135.5C 210.167,135.5 212.833,135.5 215.5,135.5C 215.5,138.167 215.5,140.833 215.5,143.5C 218.167,143.5 220.833,143.5 223.5,143.5C 223.5,148.833 223.5,154.167 223.5,159.5C 226.167,159.5 228.833,159.5 231.5,159.5C 231.5,162.167 231.5,164.833 231.5,167.5C 234.167,167.5 236.833,167.5 239.5,167.5C 239.5,170.167 239.5,172.833 239.5,175.5 Z"/></g>
<g><path style="opacity:1" fill="#83a9bf" d="M 191.5,151.5 C 194.167,151.5 196.833,151.5 199.5,151.5C 199.5,156.833 199.5,162.167 199.5,167.5C 196.833,167.5 194.167,167.5 191.5,167.5C 191.5,162.167 191.5,156.833 191.5,151.5 Z"/></g>
<g><path style="opacity:1" fill="#83a9bf" d="M 319.5,151.5 C 319.5,156.833 319.5,162.167 319.5,167.5C 316.833,167.5 314.167,167.5 311.5,167.5C 311.5,162.167 311.5,156.833 311.5,151.5C 314.167,151.5 316.833,151.5 319.5,151.5 Z"/></g>
<g><path style="opacity:1" fill="#83a9bf" d="M 199.5,167.5 C 202.167,167.5 204.833,167.5 207.5,167.5C 207.5,170.167 207.5,172.833 207.5,175.5C 210.167,175.5 212.833,175.5 215.5,175.5C 215.5,178.167 215.5,180.833 215.5,183.5C 210.167,183.5 204.833,183.5 199.5,183.5C 199.5,178.167 199.5,172.833 199.5,167.5 Z"/></g>
<g><path style="opacity:1" fill="#83a9bf" d="M 311.5,167.5 C 311.5,172.833 311.5,178.167 311.5,183.5C 306.167,183.5 300.833,183.5 295.5,183.5C 295.5,180.833 295.5,178.167 295.5,175.5C 298.167,175.5 300.833,175.5 303.5,175.5C 303.5,172.833 303.5,170.167 303.5,167.5C 306.167,167.5 308.833,167.5 311.5,167.5 Z"/></g>
<g><path style="opacity:1" fill="#84a1c4" d="M 239.5,175.5 C 244.833,175.5 250.167,175.5 255.5,175.5C 255.5,178.167 255.5,180.833 255.5,183.5C 250.167,183.5 244.833,183.5 239.5,183.5C 239.5,180.833 239.5,178.167 239.5,175.5 Z"/></g>
<g><path style="opacity:1" fill="#83a9bf" d="M 215.5,183.5 C 218.167,183.5 220.833,183.5 223.5,183.5C 223.5,186.167 223.5,188.833 223.5,191.5C 220.833,191.5 218.167,191.5 215.5,191.5C 215.5,188.833 215.5,186.167 215.5,183.5 Z"/></g>
<g><path style="opacity:1" fill="#83a9bf" d="M 295.5,183.5 C 295.5,186.167 295.5,188.833 295.5,191.5C 292.833,191.5 290.167,191.5 287.5,191.5C 287.5,188.833 287.5,186.167 287.5,183.5C 290.167,183.5 292.833,183.5 295.5,183.5 Z"/></g>
<g><path style="opacity:1" fill="#83a9bf" d="M 223.5,191.5 C 244.833,191.5 266.167,191.5 287.5,191.5C 287.5,194.167 287.5,196.833 287.5,199.5C 266.167,199.5 244.833,199.5 223.5,199.5C 223.5,196.833 223.5,194.167 223.5,191.5 Z"/></g>
</svg>
