<?xml version="1.0" encoding="UTF-8"?>
<!DOCTYPE svg PUBLIC "-//W3C//DTD SVG 1.1//EN" "http://www.w3.org/Graphics/SVG/1.1/DTD/svg11.dtd">
<svg xmlns="http://www.w3.org/2000/svg" version="1.1" width="512px" height="512px" style="shape-rendering:geometricPrecision; text-rendering:geometricPrecision; image-rendering:optimizeQuality; fill-rule:evenodd; clip-rule:evenodd" xmlns:xlink="http://www.w3.org/1999/xlink">
<g><path style="opacity:1" fill="#83a9bf" d="M 335.5,375.5 C 327.5,375.5 319.5,375.5 311.5,375.5C 311.5,372.833 311.5,370.167 311.5,367.5C 306.167,367.5 300.833,367.5 295.5,367.5C 263.5,367.5 231.5,367.5 199.5,367.5C 199.5,370.167 199.5,372.833 199.5,375.5C 191.5,375.5 183.5,375.5 175.5,375.5C 175.5,372.833 175.5,370.167 175.5,367.5C 180.833,367.5 186.167,367.5 191.5,367.5C 191.5,364.833 191.5,362.167 191.5,359.5C 234.167,359.5 276.833,359.5 319.5,359.5C 319.5,362.167 319.5,364.833 319.5,367.5C 324.833,367.5 330.167,367.5 335.5,367.5C 335.5,370.167 335.5,372.833 335.5,375.5 Z"/></g>
<g><path style="opacity:1" fill="#a3c3eb" d="M 295.5,367.5 C 295.5,370.167 295.5,372.833 295.5,375.5C 300.833,375.5 306.167,375.5 311.5,375.5C 311.5,378.167 311.5,380.833 311.5,383.5C 319.5,383.5 327.5,383.5 335.5,383.5C 335.5,386.167 335.5,388.833 335.5,391.5C 340.833,391.5 346.167,391.5 351.5,391.5C 351.5,394.167 351.5,396.833 351.5,399.5C 354.167,399.5 356.833,399.5 359.5,399.5C 359.5,402.167 359.5,404.833 359.5,407.5C 362.167,407.5 364.833,407.5 367.5,407.5C 367.5,423.5 367.5,439.5 367.5,455.5C 364.833,455.5 362.167,455.5 359.5,455.5C 359.5,458.167 359.5,460.833 359.5,463.5C 354.167,463.5 348.833,463.5 343.5,463.5C 343.5,466.167 343.5,468.833 343.5,471.5C 284.833,471.5 226.167,471.5 167.5,471.5C 167.5,468.833 167.5,466.167 167.5,463.5C 162.167,463.5 156.833,463.5 151.5,463.5C 151.5,460.833 151.5,458.167 151.5,455.5C 148.833,455.5 146.167,455.5 143.5,455.5C 143.5,436.833 143.5,418.167 143.5,399.5C 146.167,399.5 148.833,399.5 151.5,399.5C 151.5,396.833 151.5,394.167 151.5,391.5C 154.167,391.5 156.833,391.5 159.5,391.5C 159.5,388.833 159.5,386.167 159.5,383.5C 164.833,383.5 170.167,383.5 175.5,383.5C 175.5,380.833 175.5,378.167 175.5,375.5C 183.5,375.5 191.5,375.5 199.5,375.5C 199.5,372.833 199.5,370.167 199.5,367.5C 231.5,367.5 263.5,367.5 295.5,367.5 Z"/></g>
<g><path style="opacity:1" fill="#d8e6f6" d="M 295.5,367.5 C 300.833,367.5 306.167,367.5 311.5,367.5C 311.5,370.167 311.5,372.833 311.5,375.5C 306.167,375.5 300.833,375.5 295.5,375.5C 295.5,372.833 295.5,370.167 295.5,367.5 Z"/></g>
<g><path style="opacity:1" fill="#83a9bf" d="M 175.5,375.5 C 175.5,378.167 175.5,380.833 175.5,383.5C 170.167,383.5 164.833,383.5 159.5,383.5C 159.5,380.833 159.5,378.167 159.5,375.5C 164.833,375.5 170.167,375.5 175.5,375.5 Z"/></g>
<g><path style="opacity:1" fill="#d8e6f6" d="M 311.5,375.5 C 319.5,375.5 327.5,375.5 335.5,375.5C 335.5,378.167 335.5,380.833 335.5,383.5C 327.5,383.5 319.5,383.5 311.5,383.5C 311.5,380.833 311.5,378.167 311.5,375.5 Z"/></g>
<g><path style="opacity:1" fill="#83a9bf" d="M 335.5,375.5 C 340.833,375.5 346.167,375.5 351.5,375.5C 351.5,378.167 351.5,380.833 351.5,383.5C 346.167,383.5 340.833,383.5 335.5,383.5C 335.5,380.833 335.5,378.167 335.5,375.5 Z"/></g>
<g><path style="opacity:1" fill="#83a9bf" d="M 159.5,383.5 C 159.5,386.167 159.5,388.833 159.5,391.5C 156.833,391.5 154.167,391.5 151.5,391.5C 151.5,388.833 151.5,386.167 151.5,383.5C 154.167,383.5 156.833,383.5 159.5,383.5 Z"/></g>
<g><path style="opacity:1" fill="#d8e6f6" d="M 255.5,383.5 C 258.167,383.5 260.833,383.5 263.5,383.5C 263.5,386.167 263.5,388.833 263.5,391.5C 260.833,391.5 258.167,391.5 255.5,391.5C 255.5,388.833 255.5,386.167 255.5,383.5 Z"/></g>
<g><path style="opacity:1" fill="#d8e6f6" d="M 271.5,383.5 C 282.167,383.5 292.833,383.5 303.5,383.5C 303.5,386.167 303.5,388.833 303.5,391.5C 308.833,391.5 314.167,391.5 319.5,391.5C 319.5,394.167 319.5,396.833 319.5,399.5C 311.5,399.5 303.5,399.5 295.5,399.5C 295.5,396.833 295.5,394.167 295.5,391.5C 287.5,391.5 279.5,391.5 271.5,391.5C 271.5,388.833 271.5,386.167 271.5,383.5 Z"/></g>
<g><path style="opacity:1" fill="#d8e6f6" d="M 335.5,383.5 C 340.833,383.5 346.167,383.5 351.5,383.5C 351.5,386.167 351.5,388.833 351.5,391.5C 346.167,391.5 340.833,391.5 335.5,391.5C 335.5,388.833 335.5,386.167 335.5,383.5 Z"/></g>
<g><path style="opacity:1" fill="#83a9bf" d="M 351.5,383.5 C 354.167,383.5 356.833,383.5 359.5,383.5C 359.5,386.167 359.5,388.833 359.5,391.5C 356.833,391.5 354.167,391.5 351.5,391.5C 351.5,388.833 351.5,386.167 351.5,383.5 Z"/></g>
<g><path style="opacity:1" fill="#83a9bf" d="M 151.5,391.5 C 151.5,394.167 151.5,396.833 151.5,399.5C 148.833,399.5 146.167,399.5 143.5,399.5C 143.5,396.833 143.5,394.167 143.5,391.5C 146.167,391.5 148.833,391.5 151.5,391.5 Z"/></g>
<g><path style="opacity:1" fill="#d8e6f6" d="M 351.5,391.5 C 354.167,391.5 356.833,391.5 359.5,391.5C 359.5,394.167 359.5,396.833 359.5,399.5C 356.833,399.5 354.167,399.5 351.5,399.5C 351.5,396.833 351.5,394.167 351.5,391.5 Z"/></g>
<g><path style="opacity:1" fill="#83a9bf" d="M 359.5,391.5 C 362.167,391.5 364.833,391.5 367.5,391.5C 367.5,394.167 367.5,396.833 367.5,399.5C 364.833,399.5 362.167,399.5 359.5,399.5C 359.5,396.833 359.5,394.167 359.5,391.5 Z"/></g>
<g><path style="opacity:1" fill="#83a9bf" d="M 143.5,399.5 C 143.5,418.167 143.5,436.833 143.5,455.5C 140.833,455.5 138.167,455.5 135.5,455.5C 135.5,436.833 135.5,418.167 135.5,399.5C 138.167,399.5 140.833,399.5 143.5,399.5 Z"/></g>
<g><path style="opacity:1" fill="#d8e6f6" d="M 359.5,399.5 C 362.167,399.5 364.833,399.5 367.5,399.5C 367.5,402.167 367.5,404.833 367.5,407.5C 364.833,407.5 362.167,407.5 359.5,407.5C 359.5,404.833 359.5,402.167 359.5,399.5 Z"/></g>
<g><path style="opacity:1" fill="#83a9bf" d="M 367.5,399.5 C 370.167,399.5 372.833,399.5 375.5,399.5C 375.5,418.167 375.5,436.833 375.5,455.5C 372.833,455.5 370.167,455.5 367.5,455.5C 367.5,439.5 367.5,423.5 367.5,407.5C 367.5,404.833 367.5,402.167 367.5,399.5 Z"/></g>
<g><path style="opacity:1" fill="#31325f" d="M 247.5,407.5 C 250.167,407.5 252.833,407.5 255.5,407.5C 255.5,415.5 255.5,423.5 255.5,431.5C 252.833,431.5 250.167,431.5 247.5,431.5C 247.5,423.5 247.5,415.5 247.5,407.5 Z"/></g>
<g><path style="opacity:1" fill="#31325f" d="M 319.5,407.5 C 322.167,407.5 324.833,407.5 327.5,407.5C 327.5,415.5 327.5,423.5 327.5,431.5C 324.833,431.5 322.167,431.5 319.5,431.5C 319.5,423.5 319.5,415.5 319.5,407.5 Z"/></g>
<g><path style="opacity:1" fill="#84a1c4" d="M 151.5,423.5 C 154.167,423.5 156.833,423.5 159.5,423.5C 159.5,428.833 159.5,434.167 159.5,439.5C 162.167,439.5 164.833,439.5 167.5,439.5C 167.5,442.167 167.5,444.833 167.5,447.5C 175.5,447.5 183.5,447.5 191.5,447.5C 191.5,450.167 191.5,452.833 191.5,455.5C 199.5,455.5 207.5,455.5 215.5,455.5C 215.5,458.167 215.5,460.833 215.5,463.5C 202.167,463.5 188.833,463.5 175.5,463.5C 175.5,460.833 175.5,458.167 175.5,455.5C 170.167,455.5 164.833,455.5 159.5,455.5C 159.5,452.833 159.5,450.167 159.5,447.5C 156.833,447.5 154.167,447.5 151.5,447.5C 151.5,439.5 151.5,431.5 151.5,423.5 Z"/></g>
<g><path style="opacity:1" fill="#83a9bf" d="M 143.5,455.5 C 146.167,455.5 148.833,455.5 151.5,455.5C 151.5,458.167 151.5,460.833 151.5,463.5C 156.833,463.5 162.167,463.5 167.5,463.5C 167.5,466.167 167.5,468.833 167.5,471.5C 226.167,471.5 284.833,471.5 343.5,471.5C 343.5,468.833 343.5,466.167 343.5,463.5C 348.833,463.5 354.167,463.5 359.5,463.5C 359.5,460.833 359.5,458.167 359.5,455.5C 362.167,455.5 364.833,455.5 367.5,455.5C 367.5,460.833 367.5,466.167 367.5,471.5C 362.167,471.5 356.833,471.5 351.5,471.5C 351.5,474.167 351.5,476.833 351.5,479.5C 287.5,479.5 223.5,479.5 159.5,479.5C 159.5,476.833 159.5,474.167 159.5,471.5C 154.167,471.5 148.833,471.5 143.5,471.5C 143.5,466.167 143.5,460.833 143.5,455.5 Z"/></g>
<g><path style="opacity:1" fill="#546181" d="M 159.5,479.5 C 223.5,479.5 287.5,479.5 351.5,479.5C 354.167,479.5 356.833,479.5 359.5,479.5C 359.5,482.167 359.5,484.833 359.5,487.5C 346.167,487.5 332.833,487.5 319.5,487.5C 319.5,490.167 319.5,492.833 319.5,495.5C 276.833,495.5 234.167,495.5 191.5,495.5C 191.5,492.833 191.5,490.167 191.5,487.5C 178.167,487.5 164.833,487.5 151.5,487.5C 151.5,484.833 151.5,482.167 151.5,479.5C 154.167,479.5 156.833,479.5 159.5,479.5 Z"/></g>
</svg>
