<?xml version="1.0" encoding="UTF-8"?>
<!DOCTYPE svg PUBLIC "-//W3C//DTD SVG 1.1//EN" "http://www.w3.org/Graphics/SVG/1.1/DTD/svg11.dtd">
<svg xmlns="http://www.w3.org/2000/svg" version="1.1" width="512px" height="512px" style="shape-rendering:geometricPrecision; text-rendering:geometricPrecision; image-rendering:optimizeQuality; fill-rule:evenodd; clip-rule:evenodd" xmlns:xlink="http://www.w3.org/1999/xlink">
<g><path style="opacity:1" fill="#83a9bf" d="M 279.5,111.5 C 274.167,111.5 268.833,111.5 263.5,111.5C 252.833,111.5 242.167,111.5 231.5,111.5C 231.5,108.833 231.5,106.167 231.5,103.5C 247.5,103.5 263.5,103.5 279.5,103.5C 279.5,106.167 279.5,108.833 279.5,111.5 Z"/></g>
<g><path style="opacity:1" fill="#83a9bf" d="M 231.5,111.5 C 231.5,114.167 231.5,116.833 231.5,119.5C 226.167,119.5 220.833,119.5 215.5,119.5C 215.5,116.833 215.5,114.167 215.5,111.5C 220.833,111.5 226.167,111.5 231.5,111.5 Z"/></g>
<g><path style="opacity:1" fill="#a3c3eb" d="M 231.5,111.5 C 242.167,111.5 252.833,111.5 263.5,111.5C 263.5,114.167 263.5,116.833 263.5,119.5C 268.833,119.5 274.167,119.5 279.5,119.5C 279.5,122.167 279.5,124.833 279.5,127.5C 284.833,127.5 290.167,127.5 295.5,127.5C 295.5,135.5 295.5,143.5 295.5,151.5C 298.167,151.5 300.833,151.5 303.5,151.5C 303.5,191.5 303.5,231.5 303.5,271.5C 300.833,271.5 298.167,271.5 295.5,271.5C 295.5,274.167 295.5,276.833 295.5,279.5C 292.833,279.5 290.167,279.5 287.5,279.5C 287.5,282.167 287.5,284.833 287.5,287.5C 284.833,287.5 282.167,287.5 279.5,287.5C 279.5,290.167 279.5,292.833 279.5,295.5C 263.5,295.5 247.5,295.5 231.5,295.5C 231.5,292.833 231.5,290.167 231.5,287.5C 228.833,287.5 226.167,287.5 223.5,287.5C 223.5,284.833 223.5,282.167 223.5,279.5C 220.833,279.5 218.167,279.5 215.5,279.5C 215.5,276.833 215.5,274.167 215.5,271.5C 212.833,271.5 210.167,271.5 207.5,271.5C 207.5,223.5 207.5,175.5 207.5,127.5C 210.167,127.5 212.833,127.5 215.5,127.5C 215.5,124.833 215.5,122.167 215.5,119.5C 220.833,119.5 226.167,119.5 231.5,119.5C 231.5,116.833 231.5,114.167 231.5,111.5 Z"/></g>
<g><path style="opacity:1" fill="#d8e6f6" d="M 263.5,111.5 C 268.833,111.5 274.167,111.5 279.5,111.5C 279.5,114.167 279.5,116.833 279.5,119.5C 274.167,119.5 268.833,119.5 263.5,119.5C 263.5,116.833 263.5,114.167 263.5,111.5 Z"/></g>
<g><path style="opacity:1" fill="#83a9bf" d="M 279.5,111.5 C 284.833,111.5 290.167,111.5 295.5,111.5C 295.5,114.167 295.5,116.833 295.5,119.5C 290.167,119.5 284.833,119.5 279.5,119.5C 279.5,116.833 279.5,114.167 279.5,111.5 Z"/></g>
<g><path style="opacity:1" fill="#83a9bf" d="M 215.5,119.5 C 215.5,122.167 215.5,124.833 215.5,127.5C 212.833,127.5 210.167,127.5 207.5,127.5C 207.5,124.833 207.5,122.167 207.5,119.5C 210.167,119.5 212.833,119.5 215.5,119.5 Z"/></g>
<g><path style="opacity:1" fill="#d8e6f6" d="M 279.5,119.5 C 284.833,119.5 290.167,119.5 295.5,119.5C 295.5,122.167 295.5,124.833 295.5,127.5C 290.167,127.5 284.833,127.5 279.5,127.5C 279.5,124.833 279.5,122.167 279.5,119.5 Z"/></g>
<g><path style="opacity:1" fill="#83a9bf" d="M 295.5,119.5 C 298.167,119.5 300.833,119.5 303.5,119.5C 303.5,122.167 303.5,124.833 303.5,127.5C 300.833,127.5 298.167,127.5 295.5,127.5C 295.5,124.833 295.5,122.167 295.5,119.5 Z"/></g>
<g><path style="opacity:0.996" fill="#84a9c0" d="M 207.5,127.5 C 207.5,175.5 207.5,223.5 207.5,271.5C 210.167,271.5 212.833,271.5 215.5,271.5C 215.5,274.167 215.5,276.833 215.5,279.5C 218.167,279.5 220.833,279.5 223.5,279.5C 223.5,282.167 223.5,284.833 223.5,287.5C 226.167,287.5 228.833,287.5 231.5,287.5C 231.5,290.167 231.5,292.833 231.5,295.5C 247.5,295.5 263.5,295.5 279.5,295.5C 279.5,292.833 279.5,290.167 279.5,287.5C 282.167,287.5 284.833,287.5 287.5,287.5C 287.5,284.833 287.5,282.167 287.5,279.5C 290.167,279.5 292.833,279.5 295.5,279.5C 295.5,276.833 295.5,274.167 295.5,271.5C 298.167,271.5 300.833,271.5 303.5,271.5C 303.5,231.5 303.5,191.5 303.5,151.5C 303.5,143.5 303.5,135.5 303.5,127.5C 306.167,127.5 308.833,127.5 311.5,127.5C 311.5,178.167 311.5,228.833 311.5,279.5C 308.833,279.5 306.167,279.5 303.5,279.5C 303.5,282.167 303.5,284.833 303.5,287.5C 300.833,287.5 298.167,287.5 295.5,287.5C 295.5,290.167 295.5,292.833 295.5,295.5C 292.833,295.5 290.167,295.5 287.5,295.5C 287.5,298.167 287.5,300.833 287.5,303.5C 266.167,303.5 244.833,303.5 223.5,303.5C 223.5,300.833 223.5,298.167 223.5,295.5C 220.833,295.5 218.167,295.5 215.5,295.5C 215.5,292.833 215.5,290.167 215.5,287.5C 212.833,287.5 210.167,287.5 207.5,287.5C 207.5,284.833 207.5,282.167 207.5,279.5C 204.833,279.5 202.167,279.5 199.5,279.5C 199.5,228.833 199.5,178.167 199.5,127.5C 202.167,127.5 204.833,127.5 207.5,127.5 Z"/></g>
<g><path style="opacity:1" fill="#d8e6f6" d="M 239.5,127.5 C 242.167,127.5 244.833,127.5 247.5,127.5C 247.5,130.167 247.5,132.833 247.5,135.5C 244.833,135.5 242.167,135.5 239.5,135.5C 239.5,132.833 239.5,130.167 239.5,127.5 Z"/></g>
<g><path style="opacity:1" fill="#d8e6f6" d="M 255.5,127.5 C 260.833,127.5 266.167,127.5 271.5,127.5C 271.5,130.167 271.5,132.833 271.5,135.5C 276.833,135.5 282.167,135.5 287.5,135.5C 287.5,138.167 287.5,140.833 287.5,143.5C 279.5,143.5 271.5,143.5 263.5,143.5C 263.5,140.833 263.5,138.167 263.5,135.5C 260.833,135.5 258.167,135.5 255.5,135.5C 255.5,132.833 255.5,130.167 255.5,127.5 Z"/></g>
<g><path style="opacity:1" fill="#d8e6f6" d="M 295.5,127.5 C 298.167,127.5 300.833,127.5 303.5,127.5C 303.5,135.5 303.5,143.5 303.5,151.5C 300.833,151.5 298.167,151.5 295.5,151.5C 295.5,143.5 295.5,135.5 295.5,127.5 Z"/></g>
<g><path style="opacity:1" fill="#31325f" d="M 247.5,159.5 C 250.167,159.5 252.833,159.5 255.5,159.5C 255.5,170.167 255.5,180.833 255.5,191.5C 252.833,191.5 250.167,191.5 247.5,191.5C 247.5,180.833 247.5,170.167 247.5,159.5 Z"/></g>
<g><path style="opacity:1" fill="#31325f" d="M 279.5,159.5 C 282.167,159.5 284.833,159.5 287.5,159.5C 287.5,170.167 287.5,180.833 287.5,191.5C 284.833,191.5 282.167,191.5 279.5,191.5C 279.5,180.833 279.5,170.167 279.5,159.5 Z"/></g>
<g><path style="opacity:1" fill="#84a1c4" d="M 215.5,215.5 C 218.167,215.5 220.833,215.5 223.5,215.5C 223.5,228.833 223.5,242.167 223.5,255.5C 226.167,255.5 228.833,255.5 231.5,255.5C 231.5,258.167 231.5,260.833 231.5,263.5C 234.167,263.5 236.833,263.5 239.5,263.5C 239.5,266.167 239.5,268.833 239.5,271.5C 242.167,271.5 244.833,271.5 247.5,271.5C 247.5,274.167 247.5,276.833 247.5,279.5C 250.167,279.5 252.833,279.5 255.5,279.5C 255.5,282.167 255.5,284.833 255.5,287.5C 250.167,287.5 244.833,287.5 239.5,287.5C 239.5,284.833 239.5,282.167 239.5,279.5C 236.833,279.5 234.167,279.5 231.5,279.5C 231.5,276.833 231.5,274.167 231.5,271.5C 228.833,271.5 226.167,271.5 223.5,271.5C 223.5,268.833 223.5,266.167 223.5,263.5C 220.833,263.5 218.167,263.5 215.5,263.5C 215.5,247.5 215.5,231.5 215.5,215.5 Z"/></g>
</svg>
