<?xml version="1.0" encoding="UTF-8"?>
<!DOCTYPE svg PUBLIC "-//W3C//DTD SVG 1.1//EN" "http://www.w3.org/Graphics/SVG/1.1/DTD/svg11.dtd">
<svg xmlns="http://www.w3.org/2000/svg" version="1.1" width="512px" height="512px" style="shape-rendering:geometricPrecision; text-rendering:geometricPrecision; image-rendering:optimizeQuality; fill-rule:evenodd; clip-rule:evenodd" xmlns:xlink="http://www.w3.org/1999/xlink">
<g><path style="opacity:1" fill="#83a9bf" d="M 287.5,327.5 C 284.833,327.5 282.167,327.5 279.5,327.5C 260.833,327.5 242.167,327.5 223.5,327.5C 223.5,324.833 223.5,322.167 223.5,319.5C 244.833,319.5 266.167,319.5 287.5,319.5C 287.5,322.167 287.5,324.833 287.5,327.5 Z"/></g>
<g><path style="opacity:1" fill="#83a9bf" d="M 223.5,327.5 C 223.5,330.167 223.5,332.833 223.5,335.5C 218.167,335.5 212.833,335.5 207.5,335.5C 207.5,332.833 207.5,330.167 207.5,327.5C 212.833,327.5 218.167,327.5 223.5,327.5 Z"/></g>
<g><path style="opacity:1" fill="#a3c3eb" d="M 223.5,327.5 C 242.167,327.5 260.833,327.5 279.5,327.5C 279.5,330.167 279.5,332.833 279.5,335.5C 282.167,335.5 284.833,335.5 287.5,335.5C 287.5,338.167 287.5,340.833 287.5,343.5C 292.833,343.5 298.167,343.5 303.5,343.5C 303.5,346.167 303.5,348.833 303.5,351.5C 306.167,351.5 308.833,351.5 311.5,351.5C 311.5,356.833 311.5,362.167 311.5,367.5C 314.167,367.5 316.833,367.5 319.5,367.5C 319.5,370.167 319.5,372.833 319.5,375.5C 322.167,375.5 324.833,375.5 327.5,375.5C 327.5,402.167 327.5,428.833 327.5,455.5C 324.833,455.5 322.167,455.5 319.5,455.5C 319.5,458.167 319.5,460.833 319.5,463.5C 316.833,463.5 314.167,463.5 311.5,463.5C 311.5,466.167 311.5,468.833 311.5,471.5C 274.167,471.5 236.833,471.5 199.5,471.5C 199.5,468.833 199.5,466.167 199.5,463.5C 196.833,463.5 194.167,463.5 191.5,463.5C 191.5,460.833 191.5,458.167 191.5,455.5C 188.833,455.5 186.167,455.5 183.5,455.5C 183.5,426.167 183.5,396.833 183.5,367.5C 186.167,367.5 188.833,367.5 191.5,367.5C 191.5,362.167 191.5,356.833 191.5,351.5C 194.167,351.5 196.833,351.5 199.5,351.5C 199.5,348.833 199.5,346.167 199.5,343.5C 202.167,343.5 204.833,343.5 207.5,343.5C 207.5,340.833 207.5,338.167 207.5,335.5C 212.833,335.5 218.167,335.5 223.5,335.5C 223.5,332.833 223.5,330.167 223.5,327.5 Z"/></g>
<g><path style="opacity:1" fill="#d8e6f6" d="M 279.5,327.5 C 282.167,327.5 284.833,327.5 287.5,327.5C 287.5,330.167 287.5,332.833 287.5,335.5C 284.833,335.5 282.167,335.5 279.5,335.5C 279.5,332.833 279.5,330.167 279.5,327.5 Z"/></g>
<g><path style="opacity:1" fill="#83a9bf" d="M 287.5,327.5 C 292.833,327.5 298.167,327.5 303.5,327.5C 303.5,330.167 303.5,332.833 303.5,335.5C 298.167,335.5 292.833,335.5 287.5,335.5C 287.5,332.833 287.5,330.167 287.5,327.5 Z"/></g>
<g><path style="opacity:1" fill="#83a9bf" d="M 207.5,335.5 C 207.5,338.167 207.5,340.833 207.5,343.5C 204.833,343.5 202.167,343.5 199.5,343.5C 199.5,340.833 199.5,338.167 199.5,335.5C 202.167,335.5 204.833,335.5 207.5,335.5 Z"/></g>
<g><path style="opacity:1" fill="#d8e6f6" d="M 287.5,335.5 C 292.833,335.5 298.167,335.5 303.5,335.5C 303.5,338.167 303.5,340.833 303.5,343.5C 298.167,343.5 292.833,343.5 287.5,343.5C 287.5,340.833 287.5,338.167 287.5,335.5 Z"/></g>
<g><path style="opacity:1" fill="#83a9bf" d="M 303.5,335.5 C 306.167,335.5 308.833,335.5 311.5,335.5C 311.5,338.167 311.5,340.833 311.5,343.5C 308.833,343.5 306.167,343.5 303.5,343.5C 303.5,340.833 303.5,338.167 303.5,335.5 Z"/></g>
<g><path style="opacity:1" fill="#83a9bf" d="M 199.5,343.5 C 199.5,346.167 199.5,348.833 199.5,351.5C 196.833,351.5 194.167,351.5 191.5,351.5C 191.5,348.833 191.5,346.167 191.5,343.5C 194.167,343.5 196.833,343.5 199.5,343.5 Z"/></g>
<g><path style="opacity:1" fill="#d8e6f6" d="M 239.5,343.5 C 242.167,343.5 244.833,343.5 247.5,343.5C 247.5,346.167 247.5,348.833 247.5,351.5C 244.833,351.5 242.167,351.5 239.5,351.5C 239.5,348.833 239.5,346.167 239.5,343.5 Z"/></g>
<g><path style="opacity:1" fill="#d8e6f6" d="M 255.5,343.5 C 263.5,343.5 271.5,343.5 279.5,343.5C 279.5,346.167 279.5,348.833 279.5,351.5C 282.167,351.5 284.833,351.5 287.5,351.5C 287.5,354.167 287.5,356.833 287.5,359.5C 282.167,359.5 276.833,359.5 271.5,359.5C 271.5,356.833 271.5,354.167 271.5,351.5C 266.167,351.5 260.833,351.5 255.5,351.5C 255.5,348.833 255.5,346.167 255.5,343.5 Z"/></g>
<g><path style="opacity:1" fill="#d8e6f6" d="M 303.5,343.5 C 306.167,343.5 308.833,343.5 311.5,343.5C 311.5,346.167 311.5,348.833 311.5,351.5C 308.833,351.5 306.167,351.5 303.5,351.5C 303.5,348.833 303.5,346.167 303.5,343.5 Z"/></g>
<g><path style="opacity:1" fill="#83a9bf" d="M 311.5,343.5 C 314.167,343.5 316.833,343.5 319.5,343.5C 319.5,346.167 319.5,348.833 319.5,351.5C 316.833,351.5 314.167,351.5 311.5,351.5C 311.5,348.833 311.5,346.167 311.5,343.5 Z"/></g>
<g><path style="opacity:1" fill="#83a9bf" d="M 191.5,351.5 C 191.5,356.833 191.5,362.167 191.5,367.5C 188.833,367.5 186.167,367.5 183.5,367.5C 183.5,362.167 183.5,356.833 183.5,351.5C 186.167,351.5 188.833,351.5 191.5,351.5 Z"/></g>
<g><path style="opacity:1" fill="#d8e6f6" d="M 311.5,351.5 C 314.167,351.5 316.833,351.5 319.5,351.5C 319.5,356.833 319.5,362.167 319.5,367.5C 316.833,367.5 314.167,367.5 311.5,367.5C 311.5,362.167 311.5,356.833 311.5,351.5 Z"/></g>
<g><path style="opacity:1" fill="#83a9bf" d="M 319.5,351.5 C 322.167,351.5 324.833,351.5 327.5,351.5C 327.5,356.833 327.5,362.167 327.5,367.5C 324.833,367.5 322.167,367.5 319.5,367.5C 319.5,362.167 319.5,356.833 319.5,351.5 Z"/></g>
<g><path style="opacity:1" fill="#83a9bf" d="M 183.5,367.5 C 183.5,396.833 183.5,426.167 183.5,455.5C 186.167,455.5 188.833,455.5 191.5,455.5C 191.5,458.167 191.5,460.833 191.5,463.5C 194.167,463.5 196.833,463.5 199.5,463.5C 199.5,466.167 199.5,468.833 199.5,471.5C 194.167,471.5 188.833,471.5 183.5,471.5C 183.5,468.833 183.5,466.167 183.5,463.5C 180.833,463.5 178.167,463.5 175.5,463.5C 175.5,431.5 175.5,399.5 175.5,367.5C 178.167,367.5 180.833,367.5 183.5,367.5 Z"/></g>
<g><path style="opacity:1" fill="#d8e6f6" d="M 319.5,367.5 C 322.167,367.5 324.833,367.5 327.5,367.5C 327.5,370.167 327.5,372.833 327.5,375.5C 324.833,375.5 322.167,375.5 319.5,375.5C 319.5,372.833 319.5,370.167 319.5,367.5 Z"/></g>
<g><path style="opacity:1" fill="#83a9bf" d="M 327.5,367.5 C 330.167,367.5 332.833,367.5 335.5,367.5C 335.5,399.5 335.5,431.5 335.5,463.5C 332.833,463.5 330.167,463.5 327.5,463.5C 327.5,466.167 327.5,468.833 327.5,471.5C 322.167,471.5 316.833,471.5 311.5,471.5C 311.5,468.833 311.5,466.167 311.5,463.5C 314.167,463.5 316.833,463.5 319.5,463.5C 319.5,460.833 319.5,458.167 319.5,455.5C 322.167,455.5 324.833,455.5 327.5,455.5C 327.5,428.833 327.5,402.167 327.5,375.5C 327.5,372.833 327.5,370.167 327.5,367.5 Z"/></g>
<g><path style="opacity:1" fill="#31325f" d="M 247.5,375.5 C 250.167,375.5 252.833,375.5 255.5,375.5C 255.5,386.167 255.5,396.833 255.5,407.5C 252.833,407.5 250.167,407.5 247.5,407.5C 247.5,396.833 247.5,386.167 247.5,375.5 Z"/></g>
<g><path style="opacity:1" fill="#31325f" d="M 287.5,375.5 C 290.167,375.5 292.833,375.5 295.5,375.5C 295.5,386.167 295.5,396.833 295.5,407.5C 292.833,407.5 290.167,407.5 287.5,407.5C 287.5,396.833 287.5,386.167 287.5,375.5 Z"/></g>
<g><path style="opacity:1" fill="#84a1c4" d="M 191.5,415.5 C 194.167,415.5 196.833,415.5 199.5,415.5C 199.5,420.833 199.5,426.167 199.5,431.5C 202.167,431.5 204.833,431.5 207.5,431.5C 207.5,434.167 207.5,436.833 207.5,439.5C 210.167,439.5 212.833,439.5 215.5,439.5C 215.5,442.167 215.5,444.833 215.5,447.5C 218.167,447.5 220.833,447.5 223.5,447.5C 223.5,450.167 223.5,452.833 223.5,455.5C 228.833,455.5 234.167,455.5 239.5,455.5C 239.5,458.167 239.5,460.833 239.5,463.5C 228.833,463.5 218.167,463.5 207.5,463.5C 207.5,460.833 207.5,458.167 207.5,455.5C 204.833,455.5 202.167,455.5 199.5,455.5C 199.5,452.833 199.5,450.167 199.5,447.5C 196.833,447.5 194.167,447.5 191.5,447.5C 191.5,436.833 191.5,426.167 191.5,415.5 Z"/></g>
<g><path style="opacity:1" fill="#83a9bf" d="M 199.5,471.5 C 236.833,471.5 274.167,471.5 311.5,471.5C 311.5,474.167 311.5,476.833 311.5,479.5C 274.167,479.5 236.833,479.5 199.5,479.5C 199.5,476.833 199.5,474.167 199.5,471.5 Z"/></g>
<g><path style="opacity:1" fill="#546181" d="M 199.5,479.5 C 236.833,479.5 274.167,479.5 311.5,479.5C 314.167,479.5 316.833,479.5 319.5,479.5C 319.5,482.167 319.5,484.833 319.5,487.5C 308.833,487.5 298.167,487.5 287.5,487.5C 287.5,490.167 287.5,492.833 287.5,495.5C 266.167,495.5 244.833,495.5 223.5,495.5C 223.5,492.833 223.5,490.167 223.5,487.5C 212.833,487.5 202.167,487.5 191.5,487.5C 191.5,484.833 191.5,482.167 191.5,479.5C 194.167,479.5 196.833,479.5 199.5,479.5 Z"/></g>
</svg>
