<?xml version="1.0" encoding="UTF-8"?>
<!DOCTYPE svg PUBLIC "-//W3C//DTD SVG 1.1//EN" "http://www.w3.org/Graphics/SVG/1.1/DTD/svg11.dtd">
<svg xmlns="http://www.w3.org/2000/svg" version="1.1" width="512px" height="512px" style="shape-rendering:geometricPrecision; text-rendering:geometricPrecision; image-rendering:optimizeQuality; fill-rule:evenodd; clip-rule:evenodd" xmlns:xlink="http://www.w3.org/1999/xlink">
<g><path style="opacity:1" fill="#83a9bf" d="M 215.5,199.5 C 242.167,199.5 268.833,199.5 295.5,199.5C 295.5,202.167 295.5,204.833 295.5,207.5C 298.167,207.5 300.833,207.5 303.5,207.5C 303.5,210.167 303.5,212.833 303.5,215.5C 306.167,215.5 308.833,215.5 311.5,215.5C 311.5,220.833 311.5,226.167 311.5,231.5C 314.167,231.5 316.833,231.5 319.5,231.5C 319.5,266.167 319.5,300.833 319.5,335.5C 316.833,335.5 314.167,335.5 311.5,335.5C 311.5,340.833 311.5,346.167 311.5,351.5C 308.833,351.5 306.167,351.5 303.5,351.5C 303.5,354.167 303.5,356.833 303.5,359.5C 300.833,359.5 298.167,359.5 295.5,359.5C 295.5,362.167 295.5,364.833 295.5,367.5C 268.833,367.5 242.167,367.5 215.5,367.5C 215.5,364.833 215.5,362.167 215.5,359.5C 212.833,359.5 210.167,359.5 207.5,359.5C 207.5,356.833 207.5,354.167 207.5,351.5C 204.833,351.5 202.167,351.5 199.5,351.5C 199.5,346.167 199.5,340.833 199.5,335.5C 196.833,335.5 194.167,335.5 191.5,335.5C 191.5,300.833 191.5,266.167 191.5,231.5C 194.167,231.5 196.833,231.5 199.5,231.5C 199.5,226.167 199.5,220.833 199.5,215.5C 202.167,215.5 204.833,215.5 207.5,215.5C 207.5,212.833 207.5,210.167 207.5,207.5C 210.167,207.5 212.833,207.5 215.5,207.5C 215.5,204.833 215.5,202.167 215.5,199.5 Z"/></g>
<g><path style="opacity:1" fill="#a3c3eb" d="M 271.5,207.5 C 271.5,210.167 271.5,212.833 271.5,215.5C 276.833,215.5 282.167,215.5 287.5,215.5C 287.5,218.167 287.5,220.833 287.5,223.5C 290.167,223.5 292.833,223.5 295.5,223.5C 295.5,228.833 295.5,234.167 295.5,239.5C 298.167,239.5 300.833,239.5 303.5,239.5C 303.5,242.167 303.5,244.833 303.5,247.5C 306.167,247.5 308.833,247.5 311.5,247.5C 311.5,274.167 311.5,300.833 311.5,327.5C 308.833,327.5 306.167,327.5 303.5,327.5C 303.5,332.833 303.5,338.167 303.5,343.5C 300.833,343.5 298.167,343.5 295.5,343.5C 295.5,346.167 295.5,348.833 295.5,351.5C 292.833,351.5 290.167,351.5 287.5,351.5C 287.5,354.167 287.5,356.833 287.5,359.5C 266.167,359.5 244.833,359.5 223.5,359.5C 223.5,356.833 223.5,354.167 223.5,351.5C 220.833,351.5 218.167,351.5 215.5,351.5C 215.5,348.833 215.5,346.167 215.5,343.5C 212.833,343.5 210.167,343.5 207.5,343.5C 207.5,338.167 207.5,332.833 207.5,327.5C 204.833,327.5 202.167,327.5 199.5,327.5C 199.5,298.167 199.5,268.833 199.5,239.5C 202.167,239.5 204.833,239.5 207.5,239.5C 207.5,234.167 207.5,228.833 207.5,223.5C 210.167,223.5 212.833,223.5 215.5,223.5C 215.5,220.833 215.5,218.167 215.5,215.5C 218.167,215.5 220.833,215.5 223.5,215.5C 223.5,212.833 223.5,210.167 223.5,207.5C 239.5,207.5 255.5,207.5 271.5,207.5 Z"/></g>
<g><path style="opacity:1" fill="#d8e6f6" d="M 271.5,207.5 C 276.833,207.5 282.167,207.5 287.5,207.5C 287.5,210.167 287.5,212.833 287.5,215.5C 282.167,215.5 276.833,215.5 271.5,215.5C 271.5,212.833 271.5,210.167 271.5,207.5 Z"/></g>
<g><path style="opacity:1" fill="#d8e6f6" d="M 287.5,215.5 C 290.167,215.5 292.833,215.5 295.5,215.5C 295.5,218.167 295.5,220.833 295.5,223.5C 295.5,220.833 295.5,218.167 295.5,215.5C 292.833,215.5 290.167,215.5 287.5,215.5 Z"/></g>
<g><path style="opacity:1" fill="#d8e6f6" d="M 239.5,223.5 C 242.167,223.5 244.833,223.5 247.5,223.5C 247.5,226.167 247.5,228.833 247.5,231.5C 244.833,231.5 242.167,231.5 239.5,231.5C 239.5,228.833 239.5,226.167 239.5,223.5 Z"/></g>
<g><path style="opacity:1" fill="#d8e6f6" d="M 255.5,223.5 C 263.5,223.5 271.5,223.5 279.5,223.5C 279.5,226.167 279.5,228.833 279.5,231.5C 282.167,231.5 284.833,231.5 287.5,231.5C 287.5,234.167 287.5,236.833 287.5,239.5C 282.167,239.5 276.833,239.5 271.5,239.5C 271.5,236.833 271.5,234.167 271.5,231.5C 266.167,231.5 260.833,231.5 255.5,231.5C 255.5,228.833 255.5,226.167 255.5,223.5 Z"/></g>
<g><path style="opacity:1" fill="#d8e6f6" d="M 295.5,223.5 C 298.167,223.5 300.833,223.5 303.5,223.5C 303.5,228.833 303.5,234.167 303.5,239.5C 300.833,239.5 298.167,239.5 295.5,239.5C 295.5,234.167 295.5,228.833 295.5,223.5 Z"/></g>
<g><path style="opacity:1" fill="#d8e6f6" d="M 303.5,239.5 C 306.167,239.5 308.833,239.5 311.5,239.5C 311.5,242.167 311.5,244.833 311.5,247.5C 311.5,244.833 311.5,242.167 311.5,239.5C 308.833,239.5 306.167,239.5 303.5,239.5 Z"/></g>
<g><path style="opacity:1" fill="#31325f" d="M 247.5,247.5 C 250.167,247.5 252.833,247.5 255.5,247.5C 255.5,258.167 255.5,268.833 255.5,279.5C 252.833,279.5 250.167,279.5 247.5,279.5C 247.5,268.833 247.5,258.167 247.5,247.5 Z"/></g>
<g><path style="opacity:1" fill="#31325f" d="M 287.5,247.5 C 290.167,247.5 292.833,247.5 295.5,247.5C 295.5,258.167 295.5,268.833 295.5,279.5C 292.833,279.5 290.167,279.5 287.5,279.5C 287.5,268.833 287.5,258.167 287.5,247.5 Z"/></g>
<g><path style="opacity:1" fill="#84a1c4" d="M 207.5,327.5 C 207.5,316.833 207.5,306.167 207.5,295.5C 210.167,295.5 212.833,295.5 215.5,295.5C 215.5,300.833 215.5,306.167 215.5,311.5C 218.167,311.5 220.833,311.5 223.5,311.5C 223.5,316.833 223.5,322.167 223.5,327.5C 226.167,327.5 228.833,327.5 231.5,327.5C 231.5,330.167 231.5,332.833 231.5,335.5C 234.167,335.5 236.833,335.5 239.5,335.5C 239.5,338.167 239.5,340.833 239.5,343.5C 244.833,343.5 250.167,343.5 255.5,343.5C 255.5,346.167 255.5,348.833 255.5,351.5C 247.5,351.5 239.5,351.5 231.5,351.5C 231.5,348.833 231.5,346.167 231.5,343.5C 228.833,343.5 226.167,343.5 223.5,343.5C 223.5,340.833 223.5,338.167 223.5,335.5C 220.833,335.5 218.167,335.5 215.5,335.5C 215.5,332.833 215.5,330.167 215.5,327.5C 212.833,327.5 210.167,327.5 207.5,327.5 Z"/></g>
<g><path style="opacity:1" fill="#546181" d="M 231.5,479.5 C 247.5,479.5 263.5,479.5 279.5,479.5C 279.5,482.167 279.5,484.833 279.5,487.5C 274.167,487.5 268.833,487.5 263.5,487.5C 263.5,490.167 263.5,492.833 263.5,495.5C 258.167,495.5 252.833,495.5 247.5,495.5C 247.5,492.833 247.5,490.167 247.5,487.5C 242.167,487.5 236.833,487.5 231.5,487.5C 231.5,484.833 231.5,482.167 231.5,479.5 Z"/></g>
</svg>
