<svg width="24" height="24" viewBox="0 0 256 256" version="1.1" id="svg8" xmlns="http://www.w3.org/2000/svg" fill="currentColor">
   <path
      d="m 134.75891,76.111139 c 0,0 19.91214,-3.083879 24.47443,8.41812 4.56229,11.50195 6.61531,18.598941 -2.96548,24.472271 -9.5808,5.87337 -66.837508,31.32457 -66.837508,31.32457 0,0 -43.113595,18.84368 -70.031084,-19.57784 -26.9174877,-38.421531 2.281144,-67.05411 2.281144,-67.05411 0,0 9.580801,-10.767832 33.304691,-20.801467 C 78.708992,22.859046 118.85711,7.4414766 118.85711,7.4414766 c 0,0 37.41075,-8.8100452 64.78446,2.202557 27.37374,11.0125294 45.16662,34.2612144 45.16662,34.2612144 0,0 20.07407,23.493417 19.16162,52.860161 -0.93329,30.037471 -8.44023,35.484851 -8.44023,35.484851 0,0 -14.59931,33.52708 -49.95704,47.4763 -35.35772,13.9492 -44.02607,19.3331 -44.02607,19.3331 l 15.51178,26.18536 c 0,0 8.89647,19.33312 -9.35269,25.20648 -18.24914,5.87336 -27.14559,-8.07585 -27.14559,-8.07585 L 87.149222,182.90789 180.90421,138.61304 c 0,0 30.1111,-22.51452 27.1456,-45.518511 -2.85046,-22.111677 -13.91498,-36.953162 -28.7424,-45.763207 -17.3367,-11.501958 -32.62035,-8.565277 -32.62035,-8.565277 0,0 -16.65235,2.691949 -36.27019,11.501958 -21.898958,8.810045 -49.500797,22.025095 -49.500797,22.025095 0,0 -16.652342,5.628631 -11.861942,19.822581 C 53.844532,106.30959 68.215733,105.086 68.215733,105.086 Z"
      id="path21" />
</svg>