<svg viewBox="0 0 512 216" fill="none" xmlns="http://www.w3.org/2000/svg">
<rect x="56" y="122" width="400" height="12" rx="6" fill="#334155"/>
<rect x="56" y="122" width="260" height="12" rx="6" fill="#E9C46A"/>
<path d="M254.614 144.4C255.23 143.333 256.77 143.333 257.386 144.4L261.543 151.6C262.158 152.667 261.389 154 260.157 154H251.843C250.611 154 249.842 152.667 250.457 151.6L254.614 144.4Z" fill="#8CB8FA"/>
<path d="M191.386 71.6C190.77 72.6667 189.23 72.6667 188.614 71.6L184.457 64.4C183.842 63.3333 184.611 62 185.843 62H194.157C195.389 62 196.158 63.3333 195.543 64.4L191.386 71.6Z" fill="#8CB8FA"/>
<path d="M354.614 144.4C355.23 143.333 356.77 143.333 357.386 144.4L361.543 151.6C362.158 152.667 361.389 154 360.157 154H351.843C350.611 154 349.842 152.667 350.457 151.6L354.614 144.4Z" fill="#8CB8FA"/>
<path d="M454.614 144.4C455.23 143.333 456.77 143.333 457.386 144.4L461.543 151.6C462.158 152.667 461.389 154 460.157 154H451.843C450.611 154 449.842 152.667 450.457 151.6L454.614 144.4Z" fill="#8CB8FA"/>
<path d="M154.614 144.4C155.23 143.333 156.77 143.333 157.386 144.4L161.543 151.6C162.158 152.667 161.389 154 160.157 154H151.843C150.611 154 149.842 152.667 150.457 151.6L154.614 144.4Z" fill="#8CB8FA"/>
<path d="M54.6144 144.4C55.2302 143.333 56.7698 143.333 57.3856 144.4L61.5426 151.6C62.1584 152.667 61.3886 154 60.1569 154H51.8431C50.6114 154 49.8416 152.667 50.4574 151.6L54.6144 144.4Z" fill="#8CB8FA"/>
<path d="M19.9881 174V162.8H24.8201C26.0681 162.8 27.0334 163.051 27.7161 163.552C28.4094 164.053 28.7561 164.763 28.7561 165.68C28.7561 166.288 28.6121 166.8 28.3241 167.216C28.0467 167.632 27.6627 167.947 27.1721 168.16C26.6921 168.373 26.1641 168.48 25.5881 168.48L25.8601 168.096C26.5747 168.096 27.1881 168.208 27.7001 168.432C28.2227 168.645 28.6281 168.971 28.9161 169.408C29.2041 169.835 29.3481 170.368 29.3481 171.008C29.3481 171.957 28.9961 172.693 28.2921 173.216C27.5987 173.739 26.5481 174 25.1401 174H19.9881ZM21.1721 173.024H25.1241C26.1054 173.024 26.8574 172.859 27.3801 172.528C27.9027 172.187 28.1641 171.648 28.1641 170.912C28.1641 170.187 27.9027 169.659 27.3801 169.328C26.8574 168.987 26.1054 168.816 25.1241 168.816H21.0441V167.84H24.7401C25.6361 167.84 26.3294 167.669 26.8201 167.328C27.3214 166.987 27.5721 166.48 27.5721 165.808C27.5721 165.125 27.3214 164.619 26.8201 164.288C26.3294 163.947 25.6361 163.776 24.7401 163.776H21.1721V173.024ZM35.3786 174.08C34.5039 174.08 33.7359 173.899 33.0746 173.536C32.4132 173.163 31.8959 172.656 31.5226 172.016C31.1492 171.365 30.9626 170.624 30.9626 169.792C30.9626 168.96 31.1386 168.224 31.4906 167.584C31.8532 166.944 32.3439 166.443 32.9626 166.08C33.5919 165.707 34.2959 165.52 35.0746 165.52C35.8639 165.52 36.5626 165.701 37.1706 166.064C37.7892 166.416 38.2746 166.917 38.6266 167.568C38.9786 168.208 39.1546 168.949 39.1546 169.792C39.1546 169.845 39.1492 169.904 39.1386 169.968C39.1386 170.021 39.1386 170.08 39.1386 170.144H31.8266V169.296H38.5306L38.0826 169.632C38.0826 169.024 37.9492 168.485 37.6826 168.016C37.4266 167.536 37.0746 167.163 36.6266 166.896C36.1786 166.629 35.6612 166.496 35.0746 166.496C34.4986 166.496 33.9812 166.629 33.5226 166.896C33.0639 167.163 32.7066 167.536 32.4506 168.016C32.1946 168.496 32.0666 169.045 32.0666 169.664V169.84C32.0666 170.48 32.2052 171.045 32.4826 171.536C32.7706 172.016 33.1652 172.395 33.6666 172.672C34.1786 172.939 34.7599 173.072 35.4106 173.072C35.9226 173.072 36.3972 172.981 36.8346 172.8C37.2826 172.619 37.6666 172.341 37.9866 171.968L38.6266 172.704C38.2532 173.152 37.7839 173.493 37.2186 173.728C36.6639 173.963 36.0506 174.08 35.3786 174.08ZM45.0508 177.184C44.2828 177.184 43.5468 177.072 42.8428 176.848C42.1388 176.624 41.5681 176.304 41.1308 175.888L41.7068 175.024C42.1015 175.376 42.5868 175.653 43.1628 175.856C43.7495 176.069 44.3681 176.176 45.0188 176.176C46.0855 176.176 46.8695 175.925 47.3708 175.424C47.8721 174.933 48.1228 174.165 48.1228 173.12V171.024L48.2828 169.584L48.1708 168.144V165.6H49.2588V172.976C49.2588 174.427 48.9015 175.488 48.1868 176.16C47.4828 176.843 46.4375 177.184 45.0508 177.184ZM44.8428 173.68C44.0428 173.68 43.3228 173.509 42.6828 173.168C42.0428 172.816 41.5361 172.331 41.1628 171.712C40.8001 171.093 40.6188 170.384 40.6188 169.584C40.6188 168.784 40.8001 168.08 41.1628 167.472C41.5361 166.853 42.0428 166.373 42.6828 166.032C43.3228 165.691 44.0428 165.52 44.8428 165.52C45.5895 165.52 46.2615 165.675 46.8588 165.984C47.4561 166.293 47.9308 166.752 48.2828 167.36C48.6348 167.968 48.8108 168.709 48.8108 169.584C48.8108 170.459 48.6348 171.2 48.2828 171.808C47.9308 172.416 47.4561 172.88 46.8588 173.2C46.2615 173.52 45.5895 173.68 44.8428 173.68ZM44.9548 172.672C45.5735 172.672 46.1228 172.544 46.6028 172.288C47.0828 172.021 47.4615 171.659 47.7388 171.2C48.0161 170.731 48.1548 170.192 48.1548 169.584C48.1548 168.976 48.0161 168.443 47.7388 167.984C47.4615 167.525 47.0828 167.168 46.6028 166.912C46.1228 166.645 45.5735 166.512 44.9548 166.512C44.3468 166.512 43.7975 166.645 43.3068 166.912C42.8268 167.168 42.4481 167.525 42.1708 167.984C41.9041 168.443 41.7708 168.976 41.7708 169.584C41.7708 170.192 41.9041 170.731 42.1708 171.2C42.4481 171.659 42.8268 172.021 43.3068 172.288C43.7975 172.544 44.3468 172.672 44.9548 172.672ZM52.4199 174V165.6H53.5559V174H52.4199ZM52.9959 163.744C52.7613 163.744 52.5639 163.664 52.4039 163.504C52.2439 163.344 52.1639 163.152 52.1639 162.928C52.1639 162.704 52.2439 162.517 52.4039 162.368C52.5639 162.208 52.7613 162.128 52.9959 162.128C53.2306 162.128 53.4279 162.203 53.5879 162.352C53.7479 162.501 53.8279 162.688 53.8279 162.912C53.8279 163.147 53.7479 163.344 53.5879 163.504C53.4386 163.664 53.2413 163.744 52.9959 163.744ZM61.0048 165.52C61.6875 165.52 62.2848 165.653 62.7968 165.92C63.3195 166.176 63.7248 166.571 64.0128 167.104C64.3115 167.637 64.4608 168.309 64.4608 169.12V174H63.3248V169.232C63.3248 168.347 63.1008 167.68 62.6528 167.232C62.2155 166.773 61.5968 166.544 60.7968 166.544C60.1995 166.544 59.6768 166.667 59.2288 166.912C58.7915 167.147 58.4501 167.493 58.2048 167.952C57.9701 168.4 57.8528 168.944 57.8528 169.584V174H56.7168V165.6H57.8048V167.904L57.6288 167.472C57.8955 166.864 58.3221 166.389 58.9088 166.048C59.4955 165.696 60.1941 165.52 61.0048 165.52ZM71.8173 165.52C72.5 165.52 73.0973 165.653 73.6093 165.92C74.132 166.176 74.5373 166.571 74.8253 167.104C75.124 167.637 75.2733 168.309 75.2733 169.12V174H74.1373V169.232C74.1373 168.347 73.9133 167.68 73.4653 167.232C73.028 166.773 72.4093 166.544 71.6093 166.544C71.012 166.544 70.4893 166.667 70.0413 166.912C69.604 167.147 69.2626 167.493 69.0173 167.952C68.7826 168.4 68.6653 168.944 68.6653 169.584V174H67.5293V165.6H68.6173V167.904L68.4413 167.472C68.708 166.864 69.1346 166.389 69.7213 166.048C70.308 165.696 71.0066 165.52 71.8173 165.52ZM81.9098 174.08C81.0351 174.08 80.2671 173.899 79.6058 173.536C78.9445 173.163 78.4271 172.656 78.0538 172.016C77.6805 171.365 77.4938 170.624 77.4938 169.792C77.4938 168.96 77.6698 168.224 78.0218 167.584C78.3845 166.944 78.8751 166.443 79.4938 166.08C80.1231 165.707 80.8271 165.52 81.6058 165.52C82.3951 165.52 83.0938 165.701 83.7018 166.064C84.3205 166.416 84.8058 166.917 85.1578 167.568C85.5098 168.208 85.6858 168.949 85.6858 169.792C85.6858 169.845 85.6805 169.904 85.6698 169.968C85.6698 170.021 85.6698 170.08 85.6698 170.144H78.3578V169.296H85.0618L84.6138 169.632C84.6138 169.024 84.4805 168.485 84.2138 168.016C83.9578 167.536 83.6058 167.163 83.1578 166.896C82.7098 166.629 82.1925 166.496 81.6058 166.496C81.0298 166.496 80.5125 166.629 80.0538 166.896C79.5951 167.163 79.2378 167.536 78.9818 168.016C78.7258 168.496 78.5978 169.045 78.5978 169.664V169.84C78.5978 170.48 78.7365 171.045 79.0138 171.536C79.3018 172.016 79.6965 172.395 80.1978 172.672C80.7098 172.939 81.2911 173.072 81.9418 173.072C82.4538 173.072 82.9285 172.981 83.3658 172.8C83.8138 172.619 84.1978 172.341 84.5178 171.968L85.1578 172.704C84.7845 173.152 84.3151 173.493 83.7498 173.728C83.1951 173.963 82.5818 174.08 81.9098 174.08ZM87.9981 174V165.6H89.0861V167.888L88.9741 167.488C89.2087 166.848 89.6034 166.363 90.1581 166.032C90.7127 165.691 91.4007 165.52 92.2221 165.52V166.624C92.1794 166.624 92.1367 166.624 92.0941 166.624C92.0514 166.613 92.0087 166.608 91.9661 166.608C91.0807 166.608 90.3874 166.88 89.8861 167.424C89.3847 167.957 89.1341 168.72 89.1341 169.712V174H87.9981Z" fill="#D1D5DB"/>
<path d="M114.391 174L119.511 162.8H120.679L125.799 174H124.551L119.847 163.488H120.327L115.623 174H114.391ZM116.407 171.008L116.759 170.048H123.271L123.623 171.008H116.407ZM130.678 174.08C129.878 174.08 129.158 173.899 128.518 173.536C127.889 173.173 127.393 172.672 127.03 172.032C126.667 171.381 126.486 170.635 126.486 169.792C126.486 168.939 126.667 168.192 127.03 167.552C127.393 166.912 127.889 166.416 128.518 166.064C129.158 165.701 129.878 165.52 130.678 165.52C131.414 165.52 132.07 165.685 132.646 166.016C133.233 166.347 133.697 166.832 134.038 167.472C134.39 168.101 134.566 168.875 134.566 169.792C134.566 170.699 134.395 171.472 134.054 172.112C133.713 172.752 133.249 173.243 132.662 173.584C132.086 173.915 131.425 174.08 130.678 174.08ZM130.758 173.072C131.355 173.072 131.889 172.939 132.358 172.672C132.838 172.395 133.211 172.011 133.478 171.52C133.755 171.019 133.894 170.443 133.894 169.792C133.894 169.131 133.755 168.555 133.478 168.064C133.211 167.573 132.838 167.195 132.358 166.928C131.889 166.651 131.355 166.512 130.758 166.512C130.171 166.512 129.643 166.651 129.174 166.928C128.705 167.195 128.331 167.573 128.054 168.064C127.777 168.555 127.638 169.131 127.638 169.792C127.638 170.443 127.777 171.019 128.054 171.52C128.331 172.011 128.705 172.395 129.174 172.672C129.643 172.939 130.171 173.072 130.758 173.072ZM133.926 174V171.472L134.038 169.776L133.878 168.08V162.128H135.014V174H133.926ZM140.338 174L136.61 165.6H137.794L141.218 173.392H140.658L144.13 165.6H145.25L141.506 174H140.338ZM151.864 174V172.144L151.816 171.84V168.736C151.816 168.021 151.613 167.472 151.208 167.088C150.813 166.704 150.221 166.512 149.432 166.512C148.888 166.512 148.37 166.603 147.88 166.784C147.389 166.965 146.973 167.205 146.632 167.504L146.12 166.656C146.546 166.293 147.058 166.016 147.656 165.824C148.253 165.621 148.882 165.52 149.544 165.52C150.632 165.52 151.469 165.792 152.056 166.336C152.653 166.869 152.952 167.685 152.952 168.784V174H151.864ZM148.968 174.08C148.338 174.08 147.789 173.979 147.32 173.776C146.861 173.563 146.509 173.275 146.264 172.912C146.018 172.539 145.896 172.112 145.896 171.632C145.896 171.195 145.997 170.8 146.2 170.448C146.413 170.085 146.754 169.797 147.224 169.584C147.704 169.36 148.344 169.248 149.144 169.248H152.04V170.096H149.176C148.365 170.096 147.8 170.24 147.48 170.528C147.17 170.816 147.016 171.173 147.016 171.6C147.016 172.08 147.202 172.464 147.576 172.752C147.949 173.04 148.472 173.184 149.144 173.184C149.784 173.184 150.333 173.04 150.792 172.752C151.261 172.453 151.602 172.027 151.816 171.472L152.072 172.256C151.858 172.811 151.485 173.253 150.952 173.584C150.429 173.915 149.768 174.08 148.968 174.08ZM160.325 165.52C161.008 165.52 161.605 165.653 162.117 165.92C162.64 166.176 163.045 166.571 163.333 167.104C163.632 167.637 163.781 168.309 163.781 169.12V174H162.645V169.232C162.645 168.347 162.421 167.68 161.973 167.232C161.536 166.773 160.917 166.544 160.117 166.544C159.52 166.544 158.997 166.667 158.549 166.912C158.112 167.147 157.77 167.493 157.525 167.952C157.29 168.4 157.173 168.944 157.173 169.584V174H156.037V165.6H157.125V167.904L156.949 167.472C157.216 166.864 157.642 166.389 158.229 166.048C158.816 165.696 159.514 165.52 160.325 165.52ZM170.338 174.08C169.506 174.08 168.759 173.899 168.098 173.536C167.447 173.163 166.935 172.656 166.562 172.016C166.188 171.365 166.002 170.624 166.002 169.792C166.002 168.949 166.188 168.208 166.562 167.568C166.935 166.928 167.447 166.427 168.098 166.064C168.759 165.701 169.506 165.52 170.338 165.52C171.052 165.52 171.698 165.659 172.274 165.936C172.85 166.213 173.303 166.629 173.634 167.184L172.786 167.76C172.498 167.333 172.14 167.019 171.714 166.816C171.287 166.613 170.823 166.512 170.322 166.512C169.724 166.512 169.186 166.651 168.706 166.928C168.226 167.195 167.847 167.573 167.57 168.064C167.292 168.555 167.154 169.131 167.154 169.792C167.154 170.453 167.292 171.029 167.57 171.52C167.847 172.011 168.226 172.395 168.706 172.672C169.186 172.939 169.724 173.072 170.322 173.072C170.823 173.072 171.287 172.971 171.714 172.768C172.14 172.565 172.498 172.256 172.786 171.84L173.634 172.416C173.303 172.96 172.85 173.376 172.274 173.664C171.698 173.941 171.052 174.08 170.338 174.08ZM179.293 174.08C178.418 174.08 177.65 173.899 176.989 173.536C176.327 173.163 175.81 172.656 175.437 172.016C175.063 171.365 174.877 170.624 174.877 169.792C174.877 168.96 175.053 168.224 175.405 167.584C175.767 166.944 176.258 166.443 176.877 166.08C177.506 165.707 178.21 165.52 178.989 165.52C179.778 165.52 180.477 165.701 181.085 166.064C181.703 166.416 182.189 166.917 182.541 167.568C182.893 168.208 183.069 168.949 183.069 169.792C183.069 169.845 183.063 169.904 183.053 169.968C183.053 170.021 183.053 170.08 183.053 170.144H175.741V169.296H182.445L181.997 169.632C181.997 169.024 181.863 168.485 181.597 168.016C181.341 167.536 180.989 167.163 180.541 166.896C180.093 166.629 179.575 166.496 178.989 166.496C178.413 166.496 177.895 166.629 177.437 166.896C176.978 167.163 176.621 167.536 176.365 168.016C176.109 168.496 175.981 169.045 175.981 169.664V169.84C175.981 170.48 176.119 171.045 176.397 171.536C176.685 172.016 177.079 172.395 177.581 172.672C178.093 172.939 178.674 173.072 179.325 173.072C179.837 173.072 180.311 172.981 180.749 172.8C181.197 172.619 181.581 172.341 181.901 171.968L182.541 172.704C182.167 173.152 181.698 173.493 181.133 173.728C180.578 173.963 179.965 174.08 179.293 174.08ZM188.725 174.08C187.925 174.08 187.205 173.899 186.565 173.536C185.936 173.173 185.44 172.672 185.077 172.032C184.714 171.381 184.533 170.635 184.533 169.792C184.533 168.939 184.714 168.192 185.077 167.552C185.44 166.912 185.936 166.416 186.565 166.064C187.205 165.701 187.925 165.52 188.725 165.52C189.461 165.52 190.117 165.685 190.693 166.016C191.28 166.347 191.744 166.832 192.085 167.472C192.437 168.101 192.613 168.875 192.613 169.792C192.613 170.699 192.442 171.472 192.101 172.112C191.76 172.752 191.296 173.243 190.709 173.584C190.133 173.915 189.472 174.08 188.725 174.08ZM188.805 173.072C189.402 173.072 189.936 172.939 190.405 172.672C190.885 172.395 191.258 172.011 191.525 171.52C191.802 171.019 191.941 170.443 191.941 169.792C191.941 169.131 191.802 168.555 191.525 168.064C191.258 167.573 190.885 167.195 190.405 166.928C189.936 166.651 189.402 166.512 188.805 166.512C188.218 166.512 187.69 166.651 187.221 166.928C186.752 167.195 186.378 167.573 186.101 168.064C185.824 168.555 185.685 169.131 185.685 169.792C185.685 170.443 185.824 171.019 186.101 171.52C186.378 172.011 186.752 172.395 187.221 172.672C187.69 172.939 188.218 173.072 188.805 173.072ZM191.973 174V171.472L192.085 169.776L191.925 168.08V162.128H193.061V174H191.973Z" fill="#D1D5DB"/>
<path d="M214.79 174.096C213.947 174.096 213.168 173.957 212.454 173.68C211.739 173.392 211.12 172.992 210.598 172.48C210.075 171.968 209.664 171.365 209.366 170.672C209.078 169.979 208.934 169.221 208.934 168.4C208.934 167.579 209.078 166.821 209.366 166.128C209.664 165.435 210.075 164.832 210.598 164.32C211.131 163.808 211.755 163.413 212.47 163.136C213.184 162.848 213.963 162.704 214.806 162.704C215.616 162.704 216.379 162.843 217.094 163.12C217.808 163.387 218.411 163.792 218.902 164.336L218.15 165.088C217.691 164.619 217.184 164.283 216.63 164.08C216.075 163.867 215.478 163.76 214.838 163.76C214.166 163.76 213.542 163.877 212.966 164.112C212.39 164.336 211.888 164.661 211.462 165.088C211.035 165.504 210.699 165.995 210.454 166.56C210.219 167.115 210.102 167.728 210.102 168.4C210.102 169.072 210.219 169.691 210.454 170.256C210.699 170.811 211.035 171.301 211.462 171.728C211.888 172.144 212.39 172.469 212.966 172.704C213.542 172.928 214.166 173.04 214.838 173.04C215.478 173.04 216.075 172.933 216.63 172.72C217.184 172.507 217.691 172.165 218.15 171.696L218.902 172.448C218.411 172.992 217.808 173.403 217.094 173.68C216.379 173.957 215.611 174.096 214.79 174.096ZM224.235 174.08C223.424 174.08 222.693 173.899 222.043 173.536C221.403 173.163 220.896 172.656 220.523 172.016C220.149 171.365 219.963 170.624 219.963 169.792C219.963 168.949 220.149 168.208 220.523 167.568C220.896 166.928 221.403 166.427 222.043 166.064C222.683 165.701 223.413 165.52 224.235 165.52C225.067 165.52 225.803 165.701 226.443 166.064C227.093 166.427 227.6 166.928 227.963 167.568C228.336 168.208 228.523 168.949 228.523 169.792C228.523 170.624 228.336 171.365 227.963 172.016C227.6 172.656 227.093 173.163 226.443 173.536C225.792 173.899 225.056 174.08 224.235 174.08ZM224.235 173.072C224.843 173.072 225.381 172.939 225.851 172.672C226.32 172.395 226.688 172.011 226.955 171.52C227.232 171.019 227.371 170.443 227.371 169.792C227.371 169.131 227.232 168.555 226.955 168.064C226.688 167.573 226.32 167.195 225.851 166.928C225.381 166.651 224.848 166.512 224.251 166.512C223.653 166.512 223.12 166.651 222.651 166.928C222.181 167.195 221.808 167.573 221.531 168.064C221.253 168.555 221.115 169.131 221.115 169.792C221.115 170.443 221.253 171.019 221.531 171.52C221.808 172.011 222.181 172.395 222.651 172.672C223.12 172.939 223.648 173.072 224.235 173.072ZM241.338 165.52C242.02 165.52 242.612 165.653 243.114 165.92C243.626 166.176 244.02 166.571 244.298 167.104C244.586 167.637 244.73 168.309 244.73 169.12V174H243.594V169.232C243.594 168.347 243.38 167.68 242.954 167.232C242.538 166.773 241.946 166.544 241.178 166.544C240.602 166.544 240.1 166.667 239.674 166.912C239.258 167.147 238.932 167.493 238.698 167.952C238.474 168.4 238.362 168.944 238.362 169.584V174H237.226V169.232C237.226 168.347 237.012 167.68 236.586 167.232C236.159 166.773 235.562 166.544 234.794 166.544C234.228 166.544 233.732 166.667 233.306 166.912C232.879 167.147 232.548 167.493 232.314 167.952C232.09 168.4 231.978 168.944 231.978 169.584V174H230.842V165.6H231.93V167.872L231.754 167.472C232.01 166.864 232.42 166.389 232.986 166.048C233.562 165.696 234.239 165.52 235.018 165.52C235.839 165.52 236.538 165.728 237.114 166.144C237.69 166.549 238.063 167.163 238.234 167.984L237.786 167.808C238.031 167.125 238.463 166.576 239.082 166.16C239.711 165.733 240.463 165.52 241.338 165.52ZM252.147 174.08C251.421 174.08 250.765 173.915 250.179 173.584C249.592 173.243 249.123 172.757 248.771 172.128C248.429 171.488 248.259 170.709 248.259 169.792C248.259 168.875 248.429 168.101 248.771 167.472C249.112 166.832 249.576 166.347 250.163 166.016C250.749 165.685 251.411 165.52 252.147 165.52C252.947 165.52 253.661 165.701 254.291 166.064C254.931 166.416 255.432 166.917 255.795 167.568C256.157 168.208 256.339 168.949 256.339 169.792C256.339 170.645 256.157 171.392 255.795 172.032C255.432 172.672 254.931 173.173 254.291 173.536C253.661 173.899 252.947 174.08 252.147 174.08ZM247.811 177.104V165.6H248.899V168.128L248.787 169.808L248.947 171.504V177.104H247.811ZM252.067 173.072C252.664 173.072 253.197 172.939 253.667 172.672C254.136 172.395 254.509 172.011 254.787 171.52C255.064 171.019 255.203 170.443 255.203 169.792C255.203 169.141 255.064 168.571 254.787 168.08C254.509 167.589 254.136 167.205 253.667 166.928C253.197 166.651 252.664 166.512 252.067 166.512C251.469 166.512 250.931 166.651 250.451 166.928C249.981 167.205 249.608 167.589 249.331 168.08C249.064 168.571 248.931 169.141 248.931 169.792C248.931 170.443 249.064 171.019 249.331 171.52C249.608 172.011 249.981 172.395 250.451 172.672C250.931 172.939 251.469 173.072 252.067 173.072ZM262.222 174.08C261.348 174.08 260.58 173.899 259.918 173.536C259.257 173.163 258.74 172.656 258.366 172.016C257.993 171.365 257.806 170.624 257.806 169.792C257.806 168.96 257.982 168.224 258.334 167.584C258.697 166.944 259.188 166.443 259.806 166.08C260.436 165.707 261.14 165.52 261.918 165.52C262.708 165.52 263.406 165.701 264.014 166.064C264.633 166.416 265.118 166.917 265.47 167.568C265.822 168.208 265.998 168.949 265.998 169.792C265.998 169.845 265.993 169.904 265.982 169.968C265.982 170.021 265.982 170.08 265.982 170.144H258.67V169.296H265.374L264.926 169.632C264.926 169.024 264.793 168.485 264.526 168.016C264.27 167.536 263.918 167.163 263.47 166.896C263.022 166.629 262.505 166.496 261.918 166.496C261.342 166.496 260.825 166.629 260.366 166.896C259.908 167.163 259.55 167.536 259.294 168.016C259.038 168.496 258.91 169.045 258.91 169.664V169.84C258.91 170.48 259.049 171.045 259.326 171.536C259.614 172.016 260.009 172.395 260.51 172.672C261.022 172.939 261.604 173.072 262.254 173.072C262.766 173.072 263.241 172.981 263.678 172.8C264.126 172.619 264.51 172.341 264.83 171.968L265.47 172.704C265.097 173.152 264.628 173.493 264.062 173.728C263.508 173.963 262.894 174.08 262.222 174.08ZM270.967 174.08C270.177 174.08 269.569 173.867 269.143 173.44C268.716 173.013 268.503 172.411 268.503 171.632V163.744H269.639V171.568C269.639 172.059 269.761 172.437 270.007 172.704C270.263 172.971 270.625 173.104 271.095 173.104C271.596 173.104 272.012 172.96 272.343 172.672L272.743 173.488C272.519 173.691 272.247 173.84 271.927 173.936C271.617 174.032 271.297 174.08 270.967 174.08ZM266.999 166.544V165.6H272.199V166.544H266.999ZM278.082 174.08C277.207 174.08 276.439 173.899 275.778 173.536C275.116 173.163 274.599 172.656 274.226 172.016C273.852 171.365 273.666 170.624 273.666 169.792C273.666 168.96 273.842 168.224 274.194 167.584C274.556 166.944 275.047 166.443 275.666 166.08C276.295 165.707 276.999 165.52 277.778 165.52C278.567 165.52 279.266 165.701 279.874 166.064C280.492 166.416 280.978 166.917 281.33 167.568C281.682 168.208 281.858 168.949 281.858 169.792C281.858 169.845 281.852 169.904 281.842 169.968C281.842 170.021 281.842 170.08 281.842 170.144H274.53V169.296H281.234L280.786 169.632C280.786 169.024 280.652 168.485 280.386 168.016C280.13 167.536 279.778 167.163 279.33 166.896C278.882 166.629 278.364 166.496 277.778 166.496C277.202 166.496 276.684 166.629 276.226 166.896C275.767 167.163 275.41 167.536 275.154 168.016C274.898 168.496 274.77 169.045 274.77 169.664V169.84C274.77 170.48 274.908 171.045 275.186 171.536C275.474 172.016 275.868 172.395 276.37 172.672C276.882 172.939 277.463 173.072 278.114 173.072C278.626 173.072 279.1 172.981 279.538 172.8C279.986 172.619 280.37 172.341 280.69 171.968L281.33 172.704C280.956 173.152 280.487 173.493 279.922 173.728C279.367 173.963 278.754 174.08 278.082 174.08ZM288.458 165.52C289.141 165.52 289.738 165.653 290.25 165.92C290.773 166.176 291.178 166.571 291.466 167.104C291.765 167.637 291.914 168.309 291.914 169.12V174H290.778V169.232C290.778 168.347 290.554 167.68 290.106 167.232C289.669 166.773 289.05 166.544 288.25 166.544C287.653 166.544 287.13 166.667 286.682 166.912C286.245 167.147 285.903 167.493 285.658 167.952C285.423 168.4 285.306 168.944 285.306 169.584V174H284.17V165.6H285.258V167.904L285.082 167.472C285.349 166.864 285.775 166.389 286.362 166.048C286.949 165.696 287.647 165.52 288.458 165.52ZM297.638 174.08C296.849 174.08 296.241 173.867 295.814 173.44C295.388 173.013 295.174 172.411 295.174 171.632V163.744H296.31V171.568C296.31 172.059 296.433 172.437 296.678 172.704C296.934 172.971 297.297 173.104 297.766 173.104C298.268 173.104 298.684 172.96 299.014 172.672L299.414 173.488C299.19 173.691 298.918 173.84 298.598 173.936C298.289 174.032 297.969 174.08 297.638 174.08ZM293.67 166.544V165.6H298.87V166.544H293.67Z" fill="#D1D5DB"/>
<path d="M69.1255 54.096C68.2828 54.096 67.5042 53.9573 66.7895 53.68C66.0748 53.392 65.4562 52.992 64.9335 52.48C64.4108 51.968 64.0002 51.3653 63.7015 50.672C63.4135 49.9787 63.2695 49.2213 63.2695 48.4C63.2695 47.5787 63.4135 46.8213 63.7015 46.128C64.0002 45.4347 64.4108 44.832 64.9335 44.32C65.4668 43.808 66.0908 43.4133 66.8055 43.136C67.5202 42.848 68.2988 42.704 69.1415 42.704C69.9522 42.704 70.7148 42.8427 71.4295 43.12C72.1442 43.3867 72.7468 43.792 73.2375 44.336L72.4855 45.088C72.0268 44.6187 71.5202 44.2827 70.9655 44.08C70.4108 43.8667 69.8135 43.76 69.1735 43.76C68.5015 43.76 67.8775 43.8773 67.3015 44.112C66.7255 44.336 66.2242 44.6613 65.7975 45.088C65.3708 45.504 65.0348 45.9947 64.7895 46.56C64.5548 47.1147 64.4375 47.728 64.4375 48.4C64.4375 49.072 64.5548 49.6907 64.7895 50.256C65.0348 50.8107 65.3708 51.3013 65.7975 51.728C66.2242 52.144 66.7255 52.4693 67.3015 52.704C67.8775 52.928 68.5015 53.04 69.1735 53.04C69.8135 53.04 70.4108 52.9333 70.9655 52.72C71.5202 52.5067 72.0268 52.1653 72.4855 51.696L73.2375 52.448C72.7468 52.992 72.1442 53.4027 71.4295 53.68C70.7148 53.9573 69.9468 54.096 69.1255 54.096ZM75.5215 54V42.128H76.6575V54H75.5215ZM79.8184 54V45.6H80.9544V54H79.8184ZM80.3944 43.744C80.1597 43.744 79.9624 43.664 79.8024 43.504C79.6424 43.344 79.5624 43.152 79.5624 42.928C79.5624 42.704 79.6424 42.5173 79.8024 42.368C79.9624 42.208 80.1597 42.128 80.3944 42.128C80.6291 42.128 80.8264 42.2027 80.9864 42.352C81.1464 42.5013 81.2264 42.688 81.2264 42.912C81.2264 43.1467 81.1464 43.344 80.9864 43.504C80.8371 43.664 80.6397 43.744 80.3944 43.744ZM87.6033 54.08C86.7713 54.08 86.0246 53.8987 85.3633 53.536C84.7126 53.1627 84.2006 52.656 83.8273 52.016C83.4539 51.3653 83.2673 50.624 83.2673 49.792C83.2673 48.9493 83.4539 48.208 83.8273 47.568C84.2006 46.928 84.7126 46.4267 85.3633 46.064C86.0246 45.7013 86.7713 45.52 87.6033 45.52C88.3179 45.52 88.9633 45.6587 89.5393 45.936C90.1153 46.2133 90.5686 46.6293 90.8993 47.184L90.0513 47.76C89.7633 47.3333 89.4059 47.0187 88.9793 46.816C88.5526 46.6133 88.0886 46.512 87.5873 46.512C86.9899 46.512 86.4513 46.6507 85.9713 46.928C85.4913 47.1947 85.1126 47.5733 84.8353 48.064C84.5579 48.5547 84.4193 49.1307 84.4193 49.792C84.4193 50.4533 84.5579 51.0293 84.8353 51.52C85.1126 52.0107 85.4913 52.3947 85.9713 52.672C86.4513 52.9387 86.9899 53.072 87.5873 53.072C88.0886 53.072 88.5526 52.9707 88.9793 52.768C89.4059 52.5653 89.7633 52.256 90.0513 51.84L90.8993 52.416C90.5686 52.96 90.1153 53.376 89.5393 53.664C88.9633 53.9413 88.3179 54.08 87.6033 54.08ZM93.9019 51.824L93.9339 50.368L99.1659 45.6H100.558L96.8619 49.136L96.2219 49.68L93.9019 51.824ZM93.0059 54V42.128H94.1419V54H93.0059ZM99.5179 54L96.0139 49.632L96.7499 48.752L100.91 54H99.5179ZM109.459 54.08C108.669 54.08 108.061 53.8667 107.635 53.44C107.208 53.0133 106.995 52.4107 106.995 51.632V43.744H108.131V51.568C108.131 52.0587 108.253 52.4373 108.499 52.704C108.755 52.9707 109.117 53.104 109.587 53.104C110.088 53.104 110.504 52.96 110.835 52.672L111.235 53.488C111.011 53.6907 110.739 53.84 110.419 53.936C110.109 54.032 109.789 54.08 109.459 54.08ZM105.491 46.544V45.6H110.691V46.544H105.491ZM116.43 54.08C115.619 54.08 114.889 53.8987 114.238 53.536C113.598 53.1627 113.091 52.656 112.718 52.016C112.345 51.3653 112.158 50.624 112.158 49.792C112.158 48.9493 112.345 48.208 112.718 47.568C113.091 46.928 113.598 46.4267 114.238 46.064C114.878 45.7013 115.609 45.52 116.43 45.52C117.262 45.52 117.998 45.7013 118.638 46.064C119.289 46.4267 119.795 46.928 120.158 47.568C120.531 48.208 120.718 48.9493 120.718 49.792C120.718 50.624 120.531 51.3653 120.158 52.016C119.795 52.656 119.289 53.1627 118.638 53.536C117.987 53.8987 117.251 54.08 116.43 54.08ZM116.43 53.072C117.038 53.072 117.577 52.9387 118.046 52.672C118.515 52.3947 118.883 52.0107 119.15 51.52C119.427 51.0187 119.566 50.4427 119.566 49.792C119.566 49.1307 119.427 48.5547 119.15 48.064C118.883 47.5733 118.515 47.1947 118.046 46.928C117.577 46.6507 117.043 46.512 116.446 46.512C115.849 46.512 115.315 46.6507 114.846 46.928C114.377 47.1947 114.003 47.5733 113.726 48.064C113.449 48.5547 113.31 49.1307 113.31 49.792C113.31 50.4427 113.449 51.0187 113.726 51.52C114.003 52.0107 114.377 52.3947 114.846 52.672C115.315 52.9387 115.843 53.072 116.43 53.072ZM129.481 54.08C128.787 54.08 128.131 53.984 127.513 53.792C126.894 53.5893 126.409 53.3387 126.057 53.04L126.569 52.144C126.91 52.4 127.347 52.624 127.881 52.816C128.414 52.9973 128.974 53.088 129.561 53.088C130.361 53.088 130.937 52.9653 131.289 52.72C131.641 52.464 131.817 52.128 131.817 51.712C131.817 51.4027 131.715 51.1627 131.513 50.992C131.321 50.8107 131.065 50.6773 130.745 50.592C130.425 50.496 130.067 50.416 129.673 50.352C129.278 50.288 128.883 50.2133 128.489 50.128C128.105 50.0427 127.753 49.92 127.433 49.76C127.113 49.5893 126.851 49.36 126.649 49.072C126.457 48.784 126.361 48.4 126.361 47.92C126.361 47.4613 126.489 47.0507 126.745 46.688C127.001 46.3253 127.374 46.0427 127.865 45.84C128.366 45.6267 128.974 45.52 129.689 45.52C130.233 45.52 130.777 45.5947 131.321 45.744C131.865 45.8827 132.313 46.0693 132.665 46.304L132.169 47.216C131.795 46.96 131.395 46.7787 130.969 46.672C130.542 46.5547 130.115 46.496 129.689 46.496C128.931 46.496 128.371 46.6293 128.009 46.896C127.657 47.152 127.481 47.4827 127.481 47.888C127.481 48.208 127.577 48.4587 127.769 48.64C127.971 48.8213 128.233 48.9653 128.553 49.072C128.883 49.168 129.241 49.248 129.625 49.312C130.019 49.376 130.409 49.456 130.793 49.552C131.187 49.6373 131.545 49.76 131.865 49.92C132.195 50.0693 132.457 50.288 132.649 50.576C132.851 50.8533 132.953 51.2213 132.953 51.68C132.953 52.1707 132.814 52.5973 132.537 52.96C132.27 53.312 131.875 53.5893 131.353 53.792C130.841 53.984 130.217 54.08 129.481 54.08ZM138.605 54.08C137.73 54.08 136.962 53.8987 136.301 53.536C135.64 53.1627 135.122 52.656 134.749 52.016C134.376 51.3653 134.189 50.624 134.189 49.792C134.189 48.96 134.365 48.224 134.717 47.584C135.08 46.944 135.57 46.4427 136.189 46.08C136.818 45.7067 137.522 45.52 138.301 45.52C139.09 45.52 139.789 45.7013 140.397 46.064C141.016 46.416 141.501 46.9173 141.853 47.568C142.205 48.208 142.381 48.9493 142.381 49.792C142.381 49.8453 142.376 49.904 142.365 49.968C142.365 50.0213 142.365 50.08 142.365 50.144H135.053V49.296H141.757L141.309 49.632C141.309 49.024 141.176 48.4853 140.909 48.016C140.653 47.536 140.301 47.1627 139.853 46.896C139.405 46.6293 138.888 46.496 138.301 46.496C137.725 46.496 137.208 46.6293 136.749 46.896C136.29 47.1627 135.933 47.536 135.677 48.016C135.421 48.496 135.293 49.0453 135.293 49.664V49.84C135.293 50.48 135.432 51.0453 135.709 51.536C135.997 52.016 136.392 52.3947 136.893 52.672C137.405 52.9387 137.986 53.072 138.637 53.072C139.149 53.072 139.624 52.9813 140.061 52.8C140.509 52.6187 140.893 52.3413 141.213 51.968L141.853 52.704C141.48 53.152 141.01 53.4933 140.445 53.728C139.89 53.9627 139.277 54.08 138.605 54.08ZM148.261 54.08C147.387 54.08 146.619 53.8987 145.957 53.536C145.296 53.1627 144.779 52.656 144.405 52.016C144.032 51.3653 143.845 50.624 143.845 49.792C143.845 48.96 144.021 48.224 144.373 47.584C144.736 46.944 145.227 46.4427 145.845 46.08C146.475 45.7067 147.179 45.52 147.957 45.52C148.747 45.52 149.445 45.7013 150.053 46.064C150.672 46.416 151.157 46.9173 151.509 47.568C151.861 48.208 152.037 48.9493 152.037 49.792C152.037 49.8453 152.032 49.904 152.021 49.968C152.021 50.0213 152.021 50.08 152.021 50.144H144.709V49.296H151.413L150.965 49.632C150.965 49.024 150.832 48.4853 150.565 48.016C150.309 47.536 149.957 47.1627 149.509 46.896C149.061 46.6293 148.544 46.496 147.957 46.496C147.381 46.496 146.864 46.6293 146.405 46.896C145.947 47.1627 145.589 47.536 145.333 48.016C145.077 48.496 144.949 49.0453 144.949 49.664V49.84C144.949 50.48 145.088 51.0453 145.365 51.536C145.653 52.016 146.048 52.3947 146.549 52.672C147.061 52.9387 147.643 53.072 148.293 53.072C148.805 53.072 149.28 52.9813 149.717 52.8C150.165 52.6187 150.549 52.3413 150.869 51.968L151.509 52.704C151.136 53.152 150.667 53.4933 150.101 53.728C149.547 53.9627 148.933 54.08 148.261 54.08ZM161.193 54.08C160.404 54.08 159.796 53.8667 159.369 53.44C158.942 53.0133 158.729 52.4107 158.729 51.632V43.744H159.865V51.568C159.865 52.0587 159.988 52.4373 160.233 52.704C160.489 52.9707 160.852 53.104 161.321 53.104C161.822 53.104 162.238 52.96 162.569 52.672L162.969 53.488C162.745 53.6907 162.473 53.84 162.153 53.936C161.844 54.032 161.524 54.08 161.193 54.08ZM157.225 46.544V45.6H162.425V46.544H157.225ZM169.325 45.52C170.008 45.52 170.605 45.6533 171.117 45.92C171.64 46.176 172.045 46.5707 172.333 47.104C172.632 47.6373 172.781 48.3093 172.781 49.12V54H171.645V49.232C171.645 48.3467 171.421 47.68 170.973 47.232C170.536 46.7733 169.917 46.544 169.117 46.544C168.52 46.544 167.997 46.6667 167.549 46.912C167.112 47.1467 166.77 47.4933 166.525 47.952C166.29 48.4 166.173 48.944 166.173 49.584V54H165.037V42.128H166.173V47.904L165.949 47.472C166.216 46.864 166.642 46.3893 167.229 46.048C167.816 45.696 168.514 45.52 169.325 45.52ZM179.418 54.08C178.543 54.08 177.775 53.8987 177.114 53.536C176.452 53.1627 175.935 52.656 175.562 52.016C175.188 51.3653 175.002 50.624 175.002 49.792C175.002 48.96 175.178 48.224 175.53 47.584C175.892 46.944 176.383 46.4427 177.002 46.08C177.631 45.7067 178.335 45.52 179.114 45.52C179.903 45.52 180.602 45.7013 181.21 46.064C181.828 46.416 182.314 46.9173 182.666 47.568C183.018 48.208 183.194 48.9493 183.194 49.792C183.194 49.8453 183.188 49.904 183.178 49.968C183.178 50.0213 183.178 50.08 183.178 50.144H175.866V49.296H182.57L182.122 49.632C182.122 49.024 181.988 48.4853 181.722 48.016C181.466 47.536 181.114 47.1627 180.666 46.896C180.218 46.6293 179.7 46.496 179.114 46.496C178.538 46.496 178.02 46.6293 177.562 46.896C177.103 47.1627 176.746 47.536 176.49 48.016C176.234 48.496 176.106 49.0453 176.106 49.664V49.84C176.106 50.48 176.244 51.0453 176.522 51.536C176.81 52.016 177.204 52.3947 177.706 52.672C178.218 52.9387 178.799 53.072 179.45 53.072C179.962 53.072 180.436 52.9813 180.874 52.8C181.322 52.6187 181.706 52.3413 182.026 51.968L182.666 52.704C182.292 53.152 181.823 53.4933 181.258 53.728C180.703 53.9627 180.09 54.08 179.418 54.08ZM189.693 54V45.6H190.781V47.888L190.669 47.488C190.904 46.848 191.299 46.3627 191.853 46.032C192.408 45.6907 193.096 45.52 193.917 45.52V46.624C193.875 46.624 193.832 46.624 193.789 46.624C193.747 46.6133 193.704 46.608 193.661 46.608C192.776 46.608 192.083 46.88 191.581 47.424C191.08 47.9573 190.829 48.72 190.829 49.712V54H189.693ZM199.48 54.08C198.605 54.08 197.837 53.8987 197.176 53.536C196.515 53.1627 195.997 52.656 195.624 52.016C195.251 51.3653 195.064 50.624 195.064 49.792C195.064 48.96 195.24 48.224 195.592 47.584C195.955 46.944 196.445 46.4427 197.064 46.08C197.693 45.7067 198.397 45.52 199.176 45.52C199.965 45.52 200.664 45.7013 201.272 46.064C201.891 46.416 202.376 46.9173 202.728 47.568C203.08 48.208 203.256 48.9493 203.256 49.792C203.256 49.8453 203.251 49.904 203.24 49.968C203.24 50.0213 203.24 50.08 203.24 50.144H195.928V49.296H202.632L202.184 49.632C202.184 49.024 202.051 48.4853 201.784 48.016C201.528 47.536 201.176 47.1627 200.728 46.896C200.28 46.6293 199.763 46.496 199.176 46.496C198.6 46.496 198.083 46.6293 197.624 46.896C197.165 47.1627 196.808 47.536 196.552 48.016C196.296 48.496 196.168 49.0453 196.168 49.664V49.84C196.168 50.48 196.307 51.0453 196.584 51.536C196.872 52.016 197.267 52.3947 197.768 52.672C198.28 52.9387 198.861 53.072 199.512 53.072C200.024 53.072 200.499 52.9813 200.936 52.8C201.384 52.6187 201.768 52.3413 202.088 51.968L202.728 52.704C202.355 53.152 201.885 53.4933 201.32 53.728C200.765 53.9627 200.152 54.08 199.48 54.08ZM205.568 54V42.128H206.704V54H205.568ZM215.129 54V52.144L215.081 51.84V48.736C215.081 48.0213 214.879 47.472 214.473 47.088C214.079 46.704 213.487 46.512 212.697 46.512C212.153 46.512 211.636 46.6027 211.145 46.784C210.655 46.9653 210.239 47.2053 209.897 47.504L209.385 46.656C209.812 46.2933 210.324 46.016 210.921 45.824C211.519 45.6213 212.148 45.52 212.809 45.52C213.897 45.52 214.735 45.792 215.321 46.336C215.919 46.8693 216.217 47.6853 216.217 48.784V54H215.129ZM212.233 54.08C211.604 54.08 211.055 53.9787 210.585 53.776C210.127 53.5627 209.775 53.2747 209.529 52.912C209.284 52.5387 209.161 52.112 209.161 51.632C209.161 51.1947 209.263 50.8 209.465 50.448C209.679 50.0853 210.02 49.7973 210.489 49.584C210.969 49.36 211.609 49.248 212.409 49.248H215.305V50.096H212.441C211.631 50.096 211.065 50.24 210.745 50.528C210.436 50.816 210.281 51.1733 210.281 51.6C210.281 52.08 210.468 52.464 210.841 52.752C211.215 53.04 211.737 53.184 212.409 53.184C213.049 53.184 213.599 53.04 214.057 52.752C214.527 52.4533 214.868 52.0267 215.081 51.472L215.337 52.256C215.124 52.8107 214.751 53.2533 214.217 53.584C213.695 53.9147 213.033 54.08 212.233 54.08ZM221.959 54.08C221.169 54.08 220.561 53.8667 220.135 53.44C219.708 53.0133 219.495 52.4107 219.495 51.632V43.744H220.631V51.568C220.631 52.0587 220.753 52.4373 220.999 52.704C221.255 52.9707 221.617 53.104 222.087 53.104C222.588 53.104 223.004 52.96 223.335 52.672L223.735 53.488C223.511 53.6907 223.239 53.84 222.919 53.936C222.609 54.032 222.289 54.08 221.959 54.08ZM217.991 46.544V45.6H223.191V46.544H217.991ZM229.074 54.08C228.199 54.08 227.431 53.8987 226.77 53.536C226.109 53.1627 225.591 52.656 225.218 52.016C224.845 51.3653 224.658 50.624 224.658 49.792C224.658 48.96 224.834 48.224 225.186 47.584C225.549 46.944 226.039 46.4427 226.658 46.08C227.287 45.7067 227.991 45.52 228.77 45.52C229.559 45.52 230.258 45.7013 230.866 46.064C231.485 46.416 231.97 46.9173 232.322 47.568C232.674 48.208 232.85 48.9493 232.85 49.792C232.85 49.8453 232.845 49.904 232.834 49.968C232.834 50.0213 232.834 50.08 232.834 50.144H225.522V49.296H232.226L231.778 49.632C231.778 49.024 231.645 48.4853 231.378 48.016C231.122 47.536 230.77 47.1627 230.322 46.896C229.874 46.6293 229.357 46.496 228.77 46.496C228.194 46.496 227.677 46.6293 227.218 46.896C226.759 47.1627 226.402 47.536 226.146 48.016C225.89 48.496 225.762 49.0453 225.762 49.664V49.84C225.762 50.48 225.901 51.0453 226.178 51.536C226.466 52.016 226.861 52.3947 227.362 52.672C227.874 52.9387 228.455 53.072 229.106 53.072C229.618 53.072 230.093 52.9813 230.53 52.8C230.978 52.6187 231.362 52.3413 231.682 51.968L232.322 52.704C231.949 53.152 231.479 53.4933 230.914 53.728C230.359 53.9627 229.746 54.08 229.074 54.08ZM238.506 54.08C237.706 54.08 236.986 53.8987 236.346 53.536C235.717 53.1733 235.221 52.672 234.858 52.032C234.495 51.3813 234.314 50.6347 234.314 49.792C234.314 48.9387 234.495 48.192 234.858 47.552C235.221 46.912 235.717 46.416 236.346 46.064C236.986 45.7013 237.706 45.52 238.506 45.52C239.242 45.52 239.898 45.6853 240.474 46.016C241.061 46.3467 241.525 46.832 241.866 47.472C242.218 48.1013 242.394 48.8747 242.394 49.792C242.394 50.6987 242.223 51.472 241.882 52.112C241.541 52.752 241.077 53.2427 240.49 53.584C239.914 53.9147 239.253 54.08 238.506 54.08ZM238.586 53.072C239.183 53.072 239.717 52.9387 240.186 52.672C240.666 52.3947 241.039 52.0107 241.306 51.52C241.583 51.0187 241.722 50.4427 241.722 49.792C241.722 49.1307 241.583 48.5547 241.306 48.064C241.039 47.5733 240.666 47.1947 240.186 46.928C239.717 46.6507 239.183 46.512 238.586 46.512C237.999 46.512 237.471 46.6507 237.002 46.928C236.533 47.1947 236.159 47.5733 235.882 48.064C235.605 48.5547 235.466 49.1307 235.466 49.792C235.466 50.4427 235.605 51.0187 235.882 51.52C236.159 52.0107 236.533 52.3947 237.002 52.672C237.471 52.9387 237.999 53.072 238.586 53.072ZM241.754 54V51.472L241.866 49.776L241.706 48.08V42.128H242.842V54H241.754ZM254.529 54.08C253.804 54.08 253.148 53.9147 252.561 53.584C251.975 53.2427 251.505 52.7573 251.153 52.128C250.812 51.488 250.641 50.7093 250.641 49.792C250.641 48.8747 250.812 48.1013 251.153 47.472C251.495 46.832 251.959 46.3467 252.545 46.016C253.132 45.6853 253.793 45.52 254.529 45.52C255.329 45.52 256.044 45.7013 256.673 46.064C257.313 46.416 257.815 46.9173 258.177 47.568C258.54 48.208 258.721 48.9493 258.721 49.792C258.721 50.6453 258.54 51.392 258.177 52.032C257.815 52.672 257.313 53.1733 256.673 53.536C256.044 53.8987 255.329 54.08 254.529 54.08ZM250.193 57.104V45.6H251.281V48.128L251.169 49.808L251.329 51.504V57.104H250.193ZM254.449 53.072C255.047 53.072 255.58 52.9387 256.049 52.672C256.519 52.3947 256.892 52.0107 257.169 51.52C257.447 51.0187 257.585 50.4427 257.585 49.792C257.585 49.1413 257.447 48.5707 257.169 48.08C256.892 47.5893 256.519 47.2053 256.049 46.928C255.58 46.6507 255.047 46.512 254.449 46.512C253.852 46.512 253.313 46.6507 252.833 46.928C252.364 47.2053 251.991 47.5893 251.713 48.08C251.447 48.5707 251.313 49.1413 251.313 49.792C251.313 50.4427 251.447 51.0187 251.713 51.52C251.991 52.0107 252.364 52.3947 252.833 52.672C253.313 52.9387 253.852 53.072 254.449 53.072ZM261.037 54V45.6H262.125V47.888L262.013 47.488C262.248 46.848 262.642 46.3627 263.197 46.032C263.752 45.6907 264.44 45.52 265.261 45.52V46.624C265.218 46.624 265.176 46.624 265.133 46.624C265.09 46.6133 265.048 46.608 265.005 46.608C264.12 46.608 263.426 46.88 262.925 47.424C262.424 47.9573 262.173 48.72 262.173 49.712V54H261.037ZM270.68 54.08C269.869 54.08 269.139 53.8987 268.488 53.536C267.848 53.1627 267.341 52.656 266.968 52.016C266.595 51.3653 266.408 50.624 266.408 49.792C266.408 48.9493 266.595 48.208 266.968 47.568C267.341 46.928 267.848 46.4267 268.488 46.064C269.128 45.7013 269.859 45.52 270.68 45.52C271.512 45.52 272.248 45.7013 272.888 46.064C273.539 46.4267 274.045 46.928 274.408 47.568C274.781 48.208 274.968 48.9493 274.968 49.792C274.968 50.624 274.781 51.3653 274.408 52.016C274.045 52.656 273.539 53.1627 272.888 53.536C272.237 53.8987 271.501 54.08 270.68 54.08ZM270.68 53.072C271.288 53.072 271.827 52.9387 272.296 52.672C272.765 52.3947 273.133 52.0107 273.4 51.52C273.677 51.0187 273.816 50.4427 273.816 49.792C273.816 49.1307 273.677 48.5547 273.4 48.064C273.133 47.5733 272.765 47.1947 272.296 46.928C271.827 46.6507 271.293 46.512 270.696 46.512C270.099 46.512 269.565 46.6507 269.096 46.928C268.627 47.1947 268.253 47.5733 267.976 48.064C267.699 48.5547 267.56 49.1307 267.56 49.792C267.56 50.4427 267.699 51.0187 267.976 51.52C268.253 52.0107 268.627 52.3947 269.096 52.672C269.565 52.9387 270.093 53.072 270.68 53.072ZM276.039 57.184C275.698 57.184 275.372 57.136 275.063 57.04C274.743 56.9547 274.476 56.8213 274.263 56.64L274.663 55.776C275.004 56.064 275.442 56.208 275.975 56.208C276.423 56.208 276.764 56.0747 276.999 55.808C277.244 55.5413 277.367 55.1467 277.367 54.624V45.6H278.503V54.624C278.503 55.4027 278.29 56.0213 277.863 56.48C277.447 56.9493 276.839 57.184 276.039 57.184ZM277.943 43.744C277.708 43.744 277.511 43.664 277.351 43.504C277.191 43.344 277.111 43.152 277.111 42.928C277.111 42.704 277.191 42.5173 277.351 42.368C277.511 42.208 277.708 42.128 277.943 42.128C278.178 42.128 278.375 42.2027 278.535 42.352C278.695 42.5013 278.775 42.688 278.775 42.912C278.775 43.1467 278.695 43.344 278.535 43.504C278.386 43.664 278.188 43.744 277.943 43.744ZM285.246 54.08C284.371 54.08 283.603 53.8987 282.942 53.536C282.28 53.1627 281.763 52.656 281.39 52.016C281.016 51.3653 280.83 50.624 280.83 49.792C280.83 48.96 281.006 48.224 281.358 47.584C281.72 46.944 282.211 46.4427 282.83 46.08C283.459 45.7067 284.163 45.52 284.942 45.52C285.731 45.52 286.43 45.7013 287.038 46.064C287.656 46.416 288.142 46.9173 288.494 47.568C288.846 48.208 289.022 48.9493 289.022 49.792C289.022 49.8453 289.016 49.904 289.006 49.968C289.006 50.0213 289.006 50.08 289.006 50.144H281.694V49.296H288.398L287.95 49.632C287.95 49.024 287.816 48.4853 287.55 48.016C287.294 47.536 286.942 47.1627 286.494 46.896C286.046 46.6293 285.528 46.496 284.942 46.496C284.366 46.496 283.848 46.6293 283.39 46.896C282.931 47.1627 282.574 47.536 282.318 48.016C282.062 48.496 281.934 49.0453 281.934 49.664V49.84C281.934 50.48 282.072 51.0453 282.35 51.536C282.638 52.016 283.032 52.3947 283.534 52.672C284.046 52.9387 284.627 53.072 285.278 53.072C285.79 53.072 286.264 52.9813 286.702 52.8C287.15 52.6187 287.534 52.3413 287.854 51.968L288.494 52.704C288.12 53.152 287.651 53.4933 287.086 53.728C286.531 53.9627 285.918 54.08 285.246 54.08ZM294.822 54.08C293.99 54.08 293.243 53.8987 292.582 53.536C291.931 53.1627 291.419 52.656 291.046 52.016C290.673 51.3653 290.486 50.624 290.486 49.792C290.486 48.9493 290.673 48.208 291.046 47.568C291.419 46.928 291.931 46.4267 292.582 46.064C293.243 45.7013 293.99 45.52 294.822 45.52C295.537 45.52 296.182 45.6587 296.758 45.936C297.334 46.2133 297.787 46.6293 298.118 47.184L297.27 47.76C296.982 47.3333 296.625 47.0187 296.198 46.816C295.771 46.6133 295.307 46.512 294.806 46.512C294.209 46.512 293.67 46.6507 293.19 46.928C292.71 47.1947 292.331 47.5733 292.054 48.064C291.777 48.5547 291.638 49.1307 291.638 49.792C291.638 50.4533 291.777 51.0293 292.054 51.52C292.331 52.0107 292.71 52.3947 293.19 52.672C293.67 52.9387 294.209 53.072 294.806 53.072C295.307 53.072 295.771 52.9707 296.198 52.768C296.625 52.5653 296.982 52.256 297.27 51.84L298.118 52.416C297.787 52.96 297.334 53.376 296.758 53.664C296.182 53.9413 295.537 54.08 294.822 54.08ZM303.099 54.08C302.31 54.08 301.702 53.8667 301.275 53.44C300.849 53.0133 300.635 52.4107 300.635 51.632V43.744H301.771V51.568C301.771 52.0587 301.894 52.4373 302.139 52.704C302.395 52.9707 302.758 53.104 303.227 53.104C303.729 53.104 304.145 52.96 304.475 52.672L304.875 53.488C304.651 53.6907 304.379 53.84 304.059 53.936C303.75 54.032 303.43 54.08 303.099 54.08ZM299.131 46.544V45.6H304.331V46.544H299.131ZM309.199 54.08C308.506 54.08 307.85 53.984 307.231 53.792C306.613 53.5893 306.127 53.3387 305.775 53.04L306.287 52.144C306.629 52.4 307.066 52.624 307.599 52.816C308.133 52.9973 308.693 53.088 309.279 53.088C310.079 53.088 310.655 52.9653 311.007 52.72C311.359 52.464 311.535 52.128 311.535 51.712C311.535 51.4027 311.434 51.1627 311.231 50.992C311.039 50.8107 310.783 50.6773 310.463 50.592C310.143 50.496 309.786 50.416 309.391 50.352C308.997 50.288 308.602 50.2133 308.207 50.128C307.823 50.0427 307.471 49.92 307.151 49.76C306.831 49.5893 306.57 49.36 306.367 49.072C306.175 48.784 306.079 48.4 306.079 47.92C306.079 47.4613 306.207 47.0507 306.463 46.688C306.719 46.3253 307.093 46.0427 307.583 45.84C308.085 45.6267 308.693 45.52 309.407 45.52C309.951 45.52 310.495 45.5947 311.039 45.744C311.583 45.8827 312.031 46.0693 312.383 46.304L311.887 47.216C311.514 46.96 311.114 46.7787 310.687 46.672C310.261 46.5547 309.834 46.496 309.407 46.496C308.65 46.496 308.09 46.6293 307.727 46.896C307.375 47.152 307.199 47.4827 307.199 47.888C307.199 48.208 307.295 48.4587 307.487 48.64C307.69 48.8213 307.951 48.9653 308.271 49.072C308.602 49.168 308.959 49.248 309.343 49.312C309.738 49.376 310.127 49.456 310.511 49.552C310.906 49.6373 311.263 49.76 311.583 49.92C311.914 50.0693 312.175 50.288 312.367 50.576C312.57 50.8533 312.671 51.2213 312.671 51.68C312.671 52.1707 312.533 52.5973 312.255 52.96C311.989 53.312 311.594 53.5893 311.071 53.792C310.559 53.984 309.935 54.08 309.199 54.08ZM314.868 54.08C314.633 54.08 314.431 53.9947 314.26 53.824C314.1 53.6533 314.02 53.4453 314.02 53.2C314.02 52.944 314.1 52.736 314.26 52.576C314.431 52.416 314.633 52.336 314.868 52.336C315.103 52.336 315.3 52.416 315.46 52.576C315.631 52.736 315.716 52.944 315.716 53.2C315.716 53.4453 315.631 53.6533 315.46 53.824C315.3 53.9947 315.103 54.08 314.868 54.08Z" fill="#D1D5DB"/>
<path d="M318.183 174V162.8H322.375C323.325 162.8 324.141 162.955 324.823 163.264C325.506 163.563 326.029 164 326.391 164.576C326.765 165.141 326.951 165.829 326.951 166.64C326.951 167.429 326.765 168.112 326.391 168.688C326.029 169.253 325.506 169.691 324.823 170C324.141 170.309 323.325 170.464 322.375 170.464H318.839L319.367 169.904V174H318.183ZM319.367 170L318.839 169.424H322.343C323.463 169.424 324.311 169.184 324.887 168.704C325.474 168.213 325.767 167.525 325.767 166.64C325.767 165.744 325.474 165.051 324.887 164.56C324.311 164.069 323.463 163.824 322.343 163.824H318.839L319.367 163.264V170ZM329.068 174V165.6H330.156V167.888L330.044 167.488C330.279 166.848 330.674 166.363 331.228 166.032C331.783 165.691 332.471 165.52 333.292 165.52V166.624C333.25 166.624 333.207 166.624 333.164 166.624C333.122 166.613 333.079 166.608 333.036 166.608C332.151 166.608 331.458 166.88 330.956 167.424C330.455 167.957 330.204 168.72 330.204 169.712V174H329.068ZM338.711 174.08C337.9 174.08 337.17 173.899 336.519 173.536C335.879 173.163 335.372 172.656 334.999 172.016C334.626 171.365 334.439 170.624 334.439 169.792C334.439 168.949 334.626 168.208 334.999 167.568C335.372 166.928 335.879 166.427 336.519 166.064C337.159 165.701 337.89 165.52 338.711 165.52C339.543 165.52 340.279 165.701 340.919 166.064C341.57 166.427 342.076 166.928 342.439 167.568C342.812 168.208 342.999 168.949 342.999 169.792C342.999 170.624 342.812 171.365 342.439 172.016C342.076 172.656 341.57 173.163 340.919 173.536C340.268 173.899 339.532 174.08 338.711 174.08ZM338.711 173.072C339.319 173.072 339.858 172.939 340.327 172.672C340.796 172.395 341.164 172.011 341.431 171.52C341.708 171.019 341.847 170.443 341.847 169.792C341.847 169.131 341.708 168.555 341.431 168.064C341.164 167.573 340.796 167.195 340.327 166.928C339.858 166.651 339.324 166.512 338.727 166.512C338.13 166.512 337.596 166.651 337.127 166.928C336.658 167.195 336.284 167.573 336.007 168.064C335.73 168.555 335.591 169.131 335.591 169.792C335.591 170.443 335.73 171.019 336.007 171.52C336.284 172.011 336.658 172.395 337.127 172.672C337.596 172.939 338.124 173.072 338.711 173.072ZM345.51 174V164.544C345.51 163.797 345.729 163.195 346.166 162.736C346.604 162.277 347.233 162.048 348.054 162.048C348.374 162.048 348.684 162.091 348.982 162.176C349.281 162.261 349.532 162.395 349.734 162.576L349.35 163.424C349.19 163.285 349.004 163.184 348.79 163.12C348.577 163.045 348.348 163.008 348.102 163.008C347.622 163.008 347.254 163.141 346.998 163.408C346.742 163.675 346.614 164.069 346.614 164.592V165.872L346.646 166.4V174H345.51ZM344.006 166.544V165.6H349.206V166.544H344.006ZM350.742 174V165.6H351.878V174H350.742ZM351.318 163.744C351.084 163.744 350.886 163.664 350.726 163.504C350.566 163.344 350.486 163.152 350.486 162.928C350.486 162.704 350.566 162.517 350.726 162.368C350.886 162.208 351.084 162.128 351.318 162.128C351.553 162.128 351.75 162.203 351.91 162.352C352.07 162.501 352.15 162.688 352.15 162.912C352.15 163.147 352.07 163.344 351.91 163.504C351.761 163.664 351.564 163.744 351.318 163.744ZM358.556 174.08C357.724 174.08 356.978 173.899 356.316 173.536C355.666 173.163 355.154 172.656 354.78 172.016C354.407 171.365 354.22 170.624 354.22 169.792C354.22 168.949 354.407 168.208 354.78 167.568C355.154 166.928 355.666 166.427 356.316 166.064C356.978 165.701 357.724 165.52 358.556 165.52C359.271 165.52 359.916 165.659 360.492 165.936C361.068 166.213 361.522 166.629 361.852 167.184L361.004 167.76C360.716 167.333 360.359 167.019 359.932 166.816C359.506 166.613 359.042 166.512 358.54 166.512C357.943 166.512 357.404 166.651 356.924 166.928C356.444 167.195 356.066 167.573 355.788 168.064C355.511 168.555 355.372 169.131 355.372 169.792C355.372 170.453 355.511 171.029 355.788 171.52C356.066 172.011 356.444 172.395 356.924 172.672C357.404 172.939 357.943 173.072 358.54 173.072C359.042 173.072 359.506 172.971 359.932 172.768C360.359 172.565 360.716 172.256 361.004 171.84L361.852 172.416C361.522 172.96 361.068 173.376 360.492 173.664C359.916 173.941 359.271 174.08 358.556 174.08ZM363.959 174V165.6H365.095V174H363.959ZM364.535 163.744C364.3 163.744 364.103 163.664 363.943 163.504C363.783 163.344 363.703 163.152 363.703 162.928C363.703 162.704 363.783 162.517 363.943 162.368C364.103 162.208 364.3 162.128 364.535 162.128C364.77 162.128 364.967 162.203 365.127 162.352C365.287 162.501 365.367 162.688 365.367 162.912C365.367 163.147 365.287 163.344 365.127 163.504C364.978 163.664 364.78 163.744 364.535 163.744ZM371.824 174.08C370.949 174.08 370.181 173.899 369.52 173.536C368.859 173.163 368.341 172.656 367.968 172.016C367.595 171.365 367.408 170.624 367.408 169.792C367.408 168.96 367.584 168.224 367.936 167.584C368.299 166.944 368.789 166.443 369.408 166.08C370.037 165.707 370.741 165.52 371.52 165.52C372.309 165.52 373.008 165.701 373.616 166.064C374.235 166.416 374.72 166.917 375.072 167.568C375.424 168.208 375.6 168.949 375.6 169.792C375.6 169.845 375.595 169.904 375.584 169.968C375.584 170.021 375.584 170.08 375.584 170.144H368.272V169.296H374.976L374.528 169.632C374.528 169.024 374.395 168.485 374.128 168.016C373.872 167.536 373.52 167.163 373.072 166.896C372.624 166.629 372.107 166.496 371.52 166.496C370.944 166.496 370.427 166.629 369.968 166.896C369.509 167.163 369.152 167.536 368.896 168.016C368.64 168.496 368.512 169.045 368.512 169.664V169.84C368.512 170.48 368.651 171.045 368.928 171.536C369.216 172.016 369.611 172.395 370.112 172.672C370.624 172.939 371.205 173.072 371.856 173.072C372.368 173.072 372.843 172.981 373.28 172.8C373.728 172.619 374.112 172.341 374.432 171.968L375.072 172.704C374.699 173.152 374.229 173.493 373.664 173.728C373.109 173.963 372.496 174.08 371.824 174.08ZM382.2 165.52C382.883 165.52 383.48 165.653 383.992 165.92C384.515 166.176 384.92 166.571 385.208 167.104C385.507 167.637 385.656 168.309 385.656 169.12V174H384.52V169.232C384.52 168.347 384.296 167.68 383.848 167.232C383.411 166.773 382.792 166.544 381.992 166.544C381.395 166.544 380.872 166.667 380.424 166.912C379.987 167.147 379.645 167.493 379.4 167.952C379.165 168.4 379.048 168.944 379.048 169.584V174H377.912V165.6H379V167.904L378.824 167.472C379.091 166.864 379.517 166.389 380.104 166.048C380.691 165.696 381.389 165.52 382.2 165.52ZM391.381 174.08C390.591 174.08 389.983 173.867 389.557 173.44C389.13 173.013 388.917 172.411 388.917 171.632V163.744H390.053V171.568C390.053 172.059 390.175 172.437 390.421 172.704C390.677 172.971 391.039 173.104 391.509 173.104C392.01 173.104 392.426 172.96 392.757 172.672L393.157 173.488C392.933 173.691 392.661 173.84 392.341 173.936C392.031 174.032 391.711 174.08 391.381 174.08ZM387.413 166.544V165.6H392.613V166.544H387.413Z" fill="#D1D5DB"/>
<path d="M433.044 167.808H438.964V168.816H433.044V167.808ZM433.172 172.976H439.908V174H431.988V162.8H439.668V163.824H433.172V172.976ZM440.937 174L444.489 169.392L444.473 169.952L441.097 165.6H442.377L445.145 169.2L444.665 169.184L447.433 165.6H448.681L445.273 170L445.289 169.392L448.873 174H447.577L444.649 170.16L445.097 170.224L442.217 174H440.937ZM455.1 174.08C454.374 174.08 453.718 173.915 453.132 173.584C452.545 173.243 452.076 172.757 451.724 172.128C451.382 171.488 451.212 170.709 451.212 169.792C451.212 168.875 451.382 168.101 451.724 167.472C452.065 166.832 452.529 166.347 453.116 166.016C453.702 165.685 454.364 165.52 455.1 165.52C455.9 165.52 456.614 165.701 457.244 166.064C457.884 166.416 458.385 166.917 458.748 167.568C459.11 168.208 459.292 168.949 459.292 169.792C459.292 170.645 459.11 171.392 458.748 172.032C458.385 172.672 457.884 173.173 457.244 173.536C456.614 173.899 455.9 174.08 455.1 174.08ZM450.764 177.104V165.6H451.852V168.128L451.74 169.808L451.9 171.504V177.104H450.764ZM455.02 173.072C455.617 173.072 456.15 172.939 456.62 172.672C457.089 172.395 457.462 172.011 457.74 171.52C458.017 171.019 458.156 170.443 458.156 169.792C458.156 169.141 458.017 168.571 457.74 168.08C457.462 167.589 457.089 167.205 456.62 166.928C456.15 166.651 455.617 166.512 455.02 166.512C454.422 166.512 453.884 166.651 453.404 166.928C452.934 167.205 452.561 167.589 452.284 168.08C452.017 168.571 451.884 169.141 451.884 169.792C451.884 170.443 452.017 171.019 452.284 171.52C452.561 172.011 452.934 172.395 453.404 172.672C453.884 172.939 454.422 173.072 455.02 173.072ZM465.175 174.08C464.301 174.08 463.533 173.899 462.871 173.536C462.21 173.163 461.693 172.656 461.319 172.016C460.946 171.365 460.759 170.624 460.759 169.792C460.759 168.96 460.935 168.224 461.287 167.584C461.65 166.944 462.141 166.443 462.759 166.08C463.389 165.707 464.093 165.52 464.871 165.52C465.661 165.52 466.359 165.701 466.967 166.064C467.586 166.416 468.071 166.917 468.423 167.568C468.775 168.208 468.951 168.949 468.951 169.792C468.951 169.845 468.946 169.904 468.935 169.968C468.935 170.021 468.935 170.08 468.935 170.144H461.623V169.296H468.327L467.879 169.632C467.879 169.024 467.746 168.485 467.479 168.016C467.223 167.536 466.871 167.163 466.423 166.896C465.975 166.629 465.458 166.496 464.871 166.496C464.295 166.496 463.778 166.629 463.319 166.896C462.861 167.163 462.503 167.536 462.247 168.016C461.991 168.496 461.863 169.045 461.863 169.664V169.84C461.863 170.48 462.002 171.045 462.279 171.536C462.567 172.016 462.962 172.395 463.463 172.672C463.975 172.939 464.557 173.072 465.207 173.072C465.719 173.072 466.194 172.981 466.631 172.8C467.079 172.619 467.463 172.341 467.783 171.968L468.423 172.704C468.05 173.152 467.581 173.493 467.015 173.728C466.461 173.963 465.847 174.08 465.175 174.08ZM471.264 174V165.6H472.352V167.888L472.24 167.488C472.474 166.848 472.869 166.363 473.424 166.032C473.978 165.691 474.666 165.52 475.488 165.52V166.624C475.445 166.624 475.402 166.624 475.36 166.624C475.317 166.613 475.274 166.608 475.232 166.608C474.346 166.608 473.653 166.88 473.152 167.424C472.65 167.957 472.4 168.72 472.4 169.712V174H471.264ZM480.576 174.08C479.787 174.08 479.179 173.867 478.752 173.44C478.325 173.013 478.112 172.411 478.112 171.632V163.744H479.248V171.568C479.248 172.059 479.371 172.437 479.616 172.704C479.872 172.971 480.235 173.104 480.704 173.104C481.205 173.104 481.621 172.96 481.952 172.672L482.352 173.488C482.128 173.691 481.856 173.84 481.536 173.936C481.227 174.032 480.907 174.08 480.576 174.08ZM476.608 166.544V165.6H481.808V166.544H476.608Z" fill="#D1D5DB"/>
<g clip-path="url(#clip0_2_2)">
<path d="M197.634 99.8656L193.894 96.125C194.744 94.8622 195.164 93.2844 194.939 91.6031C194.556 88.7434 192.212 86.4163 189.35 86.0538C185.094 85.5153 181.515 89.0941 182.054 93.35C182.416 96.2138 184.744 98.5594 187.604 98.9406C189.285 99.1653 190.863 98.7458 192.126 97.895L195.866 101.636C196.354 102.124 197.146 102.124 197.634 101.636C198.122 101.147 198.122 100.353 197.634 99.8656ZM184.472 92.5C184.472 90.2944 186.266 88.5 188.472 88.5C190.677 88.5 192.472 90.2944 192.472 92.5C192.472 94.7056 190.677 96.5 188.472 96.5C186.266 96.5 184.472 94.7063 184.472 92.5Z" fill="#D1D5DB"/>
</g>
<path d="M59.904 105V82.6H67.936C69.8133 82.6 71.424 82.8987 72.768 83.496C74.112 84.0933 75.1467 84.9573 75.872 86.088C76.5973 87.1973 76.96 88.552 76.96 90.152C76.96 91.7093 76.5973 93.0533 75.872 94.184C75.1467 95.3147 74.112 96.1787 72.768 96.776C71.424 97.3733 69.8133 97.672 67.936 97.672H60.8L61.536 96.904V105H59.904ZM61.536 97L60.8 96.2H67.936C70.3467 96.2 72.1707 95.6773 73.408 94.632C74.6667 93.5653 75.296 92.072 75.296 90.152C75.296 88.2107 74.6667 86.7173 73.408 85.672C72.1707 84.6053 70.3467 84.072 67.936 84.072H60.8L61.536 83.272V97ZM81.6017 111.336C80.8337 111.336 80.1084 111.208 79.4257 110.952C78.7644 110.696 78.1991 110.323 77.7297 109.832L78.5297 108.616C78.9564 109.064 79.4151 109.395 79.9057 109.608C80.4177 109.821 80.9937 109.928 81.6337 109.928C82.4017 109.928 83.0737 109.715 83.6497 109.288C84.2471 108.861 84.8017 108.083 85.3137 106.952L86.4657 104.392L86.6897 104.104L93.7617 88.296H95.3937L86.8177 107.272C86.3697 108.296 85.8791 109.096 85.3457 109.672C84.8337 110.269 84.2684 110.696 83.6497 110.952C83.0311 111.208 82.3484 111.336 81.6017 111.336ZM86.4337 105.416L78.6897 88.296H80.3857L87.4257 104.008L86.4337 105.416ZM104.225 105.128C102.753 105.128 101.622 104.723 100.833 103.912C100.065 103.101 99.6807 101.992 99.6807 100.584V84.648H101.281V100.424C101.281 101.491 101.547 102.312 102.081 102.888C102.614 103.464 103.382 103.752 104.385 103.752C105.43 103.752 106.294 103.443 106.977 102.824L107.649 103.944C107.222 104.349 106.699 104.648 106.081 104.84C105.483 105.032 104.865 105.128 104.225 105.128ZM96.6087 89.672V88.296H106.593V89.672H96.6087ZM120.271 88.168C121.636 88.168 122.82 88.4347 123.823 88.968C124.847 89.48 125.636 90.2693 126.191 91.336C126.767 92.3813 127.055 93.6827 127.055 95.24V105H125.455V95.368C125.455 93.4907 124.975 92.0613 124.015 91.08C123.076 90.0987 121.753 89.608 120.047 89.608C118.745 89.608 117.615 89.8747 116.655 90.408C115.695 90.9413 114.959 91.688 114.447 92.648C113.956 93.608 113.711 94.76 113.711 96.104V105H112.111V81.256H113.711V92.936L113.423 92.424C113.935 91.1013 114.777 90.0667 115.951 89.32C117.124 88.552 118.564 88.168 120.271 88.168ZM140.17 105.128C138.57 105.128 137.141 104.765 135.882 104.04C134.645 103.315 133.653 102.312 132.906 101.032C132.181 99.752 131.818 98.2907 131.818 96.648C131.818 94.984 132.181 93.5227 132.906 92.264C133.653 90.984 134.645 89.9813 135.882 89.256C137.141 88.5307 138.57 88.168 140.17 88.168C141.77 88.168 143.199 88.5307 144.458 89.256C145.717 89.9813 146.709 90.984 147.434 92.264C148.159 93.5227 148.522 94.984 148.522 96.648C148.522 98.2907 148.159 99.752 147.434 101.032C146.709 102.312 145.717 103.315 144.458 104.04C143.199 104.765 141.77 105.128 140.17 105.128ZM140.17 103.688C141.45 103.688 142.602 103.4 143.626 102.824C144.65 102.227 145.45 101.395 146.026 100.328C146.602 99.2613 146.89 98.0347 146.89 96.648C146.89 95.24 146.602 94.0133 146.026 92.968C145.45 91.9013 144.65 91.08 143.626 90.504C142.602 89.9067 141.45 89.608 140.17 89.608C138.89 89.608 137.738 89.9067 136.714 90.504C135.711 91.08 134.911 91.9013 134.314 92.968C133.738 94.0133 133.45 95.24 133.45 96.648C133.45 98.0347 133.738 99.2613 134.314 100.328C134.911 101.395 135.711 102.227 136.714 102.824C137.738 103.4 138.89 103.688 140.17 103.688ZM161.646 88.168C163.011 88.168 164.195 88.4347 165.198 88.968C166.222 89.48 167.011 90.2693 167.566 91.336C168.142 92.3813 168.43 93.6827 168.43 95.24V105H166.83V95.368C166.83 93.4907 166.35 92.0613 165.39 91.08C164.451 90.0987 163.128 89.608 161.422 89.608C160.12 89.608 158.99 89.8747 158.03 90.408C157.07 90.9413 156.334 91.688 155.822 92.648C155.331 93.608 155.086 94.76 155.086 96.104V105H153.486V88.296H155.022V92.936L154.798 92.424C155.31 91.1013 156.152 90.0667 157.326 89.32C158.499 88.552 159.939 88.168 161.646 88.168Z" fill="#D1D5DB"/>
<path d="M395.283 105.16C393.321 105.16 391.667 104.712 390.323 103.816C389.001 102.92 387.998 101.629 387.315 99.944C386.633 98.2587 386.291 96.2533 386.291 93.928C386.291 91.3893 386.707 89.2773 387.539 87.592C388.371 85.8853 389.534 84.6053 391.027 83.752C392.521 82.8773 394.259 82.44 396.243 82.44C397.203 82.44 398.121 82.5253 398.995 82.696C399.87 82.8667 400.649 83.1653 401.331 83.592L400.659 84.904C400.083 84.5413 399.411 84.2853 398.643 84.136C397.897 83.9653 397.097 83.88 396.243 83.88C393.726 83.88 391.71 84.7013 390.195 86.344C388.681 87.9653 387.923 90.408 387.923 93.672C387.923 94.1627 387.955 94.792 388.019 95.56C388.083 96.3067 388.222 97.0427 388.435 97.768L387.859 97.608C388.009 96.3707 388.425 95.3147 389.107 94.44C389.79 93.5653 390.665 92.904 391.731 92.456C392.798 91.9867 393.971 91.752 395.251 91.752C396.745 91.752 398.046 92.0293 399.155 92.584C400.286 93.1173 401.161 93.8853 401.779 94.888C402.419 95.8907 402.739 97.064 402.739 98.408C402.739 99.7733 402.409 100.968 401.747 101.992C401.107 102.995 400.222 103.773 399.091 104.328C397.982 104.883 396.713 105.16 395.283 105.16ZM395.219 103.752C396.393 103.752 397.417 103.539 398.291 103.112C399.166 102.664 399.849 102.045 400.339 101.256C400.851 100.445 401.107 99.5067 401.107 98.44C401.107 96.84 400.563 95.56 399.475 94.6C398.409 93.64 396.926 93.16 395.027 93.16C393.811 93.16 392.734 93.3947 391.795 93.864C390.857 94.3333 390.121 94.9733 389.587 95.784C389.075 96.5947 388.819 97.5013 388.819 98.504C388.819 99.3787 389.065 100.221 389.555 101.032C390.046 101.821 390.761 102.472 391.699 102.984C392.659 103.496 393.833 103.752 395.219 103.752ZM412.485 105.16C410.864 105.16 409.339 104.883 407.909 104.328C406.501 103.773 405.403 103.048 404.613 102.152L405.445 100.904C406.128 101.693 407.088 102.355 408.325 102.888C409.563 103.4 410.939 103.656 412.453 103.656C414.523 103.656 416.08 103.187 417.125 102.248C418.171 101.309 418.693 100.093 418.693 98.6C418.693 97.5333 418.448 96.616 417.957 95.848C417.467 95.08 416.635 94.4933 415.461 94.088C414.288 93.6613 412.688 93.448 410.661 93.448H406.117L407.301 82.6H419.173V84.072H407.973L408.773 83.304L407.717 92.808L406.949 91.976H411.013C413.296 91.976 415.109 92.2533 416.453 92.808C417.819 93.3413 418.8 94.0987 419.397 95.08C420.016 96.0613 420.325 97.2133 420.325 98.536C420.325 99.7733 420.037 100.893 419.461 101.896C418.885 102.899 418.011 103.699 416.837 104.296C415.685 104.872 414.235 105.16 412.485 105.16ZM434.58 105L449.876 82.6H451.252L435.956 105H434.58ZM436.212 94.568C435.252 94.568 434.398 94.3227 433.652 93.832C432.905 93.32 432.318 92.616 431.892 91.72C431.486 90.8027 431.284 89.736 431.284 88.52C431.284 87.304 431.486 86.248 431.892 85.352C432.318 84.4347 432.905 83.7307 433.652 83.24C434.398 82.728 435.252 82.472 436.212 82.472C437.193 82.472 438.057 82.728 438.804 83.24C439.55 83.7307 440.126 84.4347 440.532 85.352C440.958 86.248 441.172 87.304 441.172 88.52C441.172 89.736 440.958 90.8027 440.532 91.72C440.126 92.616 439.55 93.32 438.804 93.832C438.057 94.3227 437.193 94.568 436.212 94.568ZM436.212 93.48C437.342 93.48 438.249 93.0427 438.932 92.168C439.614 91.2933 439.956 90.0773 439.956 88.52C439.956 86.9627 439.614 85.7467 438.932 84.872C438.249 83.9973 437.342 83.56 436.212 83.56C435.102 83.56 434.206 83.9973 433.524 84.872C432.841 85.7467 432.5 86.9627 432.5 88.52C432.5 90.056 432.841 91.272 433.524 92.168C434.206 93.0427 435.102 93.48 436.212 93.48ZM449.62 105.128C448.66 105.128 447.796 104.883 447.028 104.392C446.281 103.88 445.694 103.176 445.268 102.28C444.862 101.363 444.66 100.296 444.66 99.08C444.66 97.864 444.862 96.808 445.268 95.912C445.694 94.9947 446.281 94.2907 447.028 93.8C447.796 93.288 448.66 93.032 449.62 93.032C450.601 93.032 451.454 93.288 452.18 93.8C452.926 94.2907 453.502 94.9947 453.908 95.912C454.334 96.808 454.548 97.864 454.548 99.08C454.548 100.296 454.334 101.363 453.908 102.28C453.502 103.176 452.926 103.88 452.18 104.392C451.454 104.883 450.601 105.128 449.62 105.128ZM449.62 104.04C450.729 104.04 451.625 103.603 452.308 102.728C452.99 101.832 453.332 100.616 453.332 99.08C453.332 97.544 452.99 96.3387 452.308 95.464C451.625 94.568 450.729 94.12 449.62 94.12C448.489 94.12 447.582 94.5573 446.9 95.432C446.217 96.3067 445.876 97.5227 445.876 99.08C445.876 100.637 446.217 101.853 446.9 102.728C447.582 103.603 448.489 104.04 449.62 104.04Z" fill="#D1D5DB"/>
<defs>
<clipPath id="clip0_2_2">
<rect width="16" height="16" fill="white" transform="translate(182 86)"/>
</clipPath>
</defs>
</svg>
