<?xml version="1.0" encoding="UTF-8"?>
<svg xmlns="http://www.w3.org/2000/svg" xmlns:xlink="http://www.w3.org/1999/xlink">

<symbol id="slime-jump-6" width="512px" height="512px" style="shape-rendering:geometricPrecision; text-rendering:geometricPrecision; image-rendering:optimizeQuality; fill-rule:evenodd; clip-rule:evenodd">
<g><path style="opacity:1" fill="#83a9bf" d="M 287.5,15.5 C 284.833,15.5 282.167,15.5 279.5,15.5C 260.833,15.5 242.167,15.5 223.5,15.5C 223.5,12.8333 223.5,10.1667 223.5,7.5C 244.833,7.5 266.167,7.5 287.5,7.5C 287.5,10.1667 287.5,12.8333 287.5,15.5 Z"/></g>
<g><path style="opacity:1" fill="#83a9bf" d="M 223.5,15.5 C 223.5,18.1667 223.5,20.8333 223.5,23.5C 218.167,23.5 212.833,23.5 207.5,23.5C 207.5,20.8333 207.5,18.1667 207.5,15.5C 212.833,15.5 218.167,15.5 223.5,15.5 Z"/></g>
<g><path style="opacity:1" fill="#a3c3eb" d="M 223.5,15.5 C 242.167,15.5 260.833,15.5 279.5,15.5C 279.5,18.1667 279.5,20.8333 279.5,23.5C 282.167,23.5 284.833,23.5 287.5,23.5C 287.5,26.1667 287.5,28.8333 287.5,31.5C 292.833,31.5 298.167,31.5 303.5,31.5C 303.5,34.1667 303.5,36.8333 303.5,39.5C 306.167,39.5 308.833,39.5 311.5,39.5C 311.5,44.8333 311.5,50.1667 311.5,55.5C 314.167,55.5 316.833,55.5 319.5,55.5C 319.5,58.1667 319.5,60.8333 319.5,63.5C 322.167,63.5 324.833,63.5 327.5,63.5C 327.5,82.1667 327.5,100.833 327.5,119.5C 324.833,119.5 322.167,119.5 319.5,119.5C 319.5,124.833 319.5,130.167 319.5,135.5C 316.833,135.5 314.167,135.5 311.5,135.5C 311.5,138.167 311.5,140.833 311.5,143.5C 308.833,143.5 306.167,143.5 303.5,143.5C 303.5,146.167 303.5,148.833 303.5,151.5C 298.167,151.5 292.833,151.5 287.5,151.5C 287.5,154.167 287.5,156.833 287.5,159.5C 266.167,159.5 244.833,159.5 223.5,159.5C 223.5,156.833 223.5,154.167 223.5,151.5C 218.167,151.5 212.833,151.5 207.5,151.5C 207.5,148.833 207.5,146.167 207.5,143.5C 204.833,143.5 202.167,143.5 199.5,143.5C 199.5,140.833 199.5,138.167 199.5,135.5C 196.833,135.5 194.167,135.5 191.5,135.5C 191.5,130.167 191.5,124.833 191.5,119.5C 188.833,119.5 186.167,119.5 183.5,119.5C 183.5,98.1667 183.5,76.8333 183.5,55.5C 186.167,55.5 188.833,55.5 191.5,55.5C 191.5,50.1667 191.5,44.8333 191.5,39.5C 194.167,39.5 196.833,39.5 199.5,39.5C 199.5,36.8333 199.5,34.1667 199.5,31.5C 202.167,31.5 204.833,31.5 207.5,31.5C 207.5,28.8333 207.5,26.1667 207.5,23.5C 212.833,23.5 218.167,23.5 223.5,23.5C 223.5,20.8333 223.5,18.1667 223.5,15.5 Z"/></g>
<g><path style="opacity:1" fill="#d8e6f6" d="M 279.5,15.5 C 282.167,15.5 284.833,15.5 287.5,15.5C 287.5,18.1667 287.5,20.8333 287.5,23.5C 284.833,23.5 282.167,23.5 279.5,23.5C 279.5,20.8333 279.5,18.1667 279.5,15.5 Z"/></g>
<g><path style="opacity:1" fill="#83a9bf" d="M 287.5,15.5 C 292.833,15.5 298.167,15.5 303.5,15.5C 303.5,18.1667 303.5,20.8333 303.5,23.5C 298.167,23.5 292.833,23.5 287.5,23.5C 287.5,20.8333 287.5,18.1667 287.5,15.5 Z"/></g>
<g><path style="opacity:1" fill="#83a9bf" d="M 207.5,23.5 C 207.5,26.1667 207.5,28.8333 207.5,31.5C 204.833,31.5 202.167,31.5 199.5,31.5C 199.5,28.8333 199.5,26.1667 199.5,23.5C 202.167,23.5 204.833,23.5 207.5,23.5 Z"/></g>
<g><path style="opacity:1" fill="#d8e6f6" d="M 287.5,23.5 C 292.833,23.5 298.167,23.5 303.5,23.5C 303.5,26.1667 303.5,28.8333 303.5,31.5C 298.167,31.5 292.833,31.5 287.5,31.5C 287.5,28.8333 287.5,26.1667 287.5,23.5 Z"/></g>
<g><path style="opacity:1" fill="#83a9bf" d="M 303.5,23.5 C 306.167,23.5 308.833,23.5 311.5,23.5C 311.5,26.1667 311.5,28.8333 311.5,31.5C 308.833,31.5 306.167,31.5 303.5,31.5C 303.5,28.8333 303.5,26.1667 303.5,23.5 Z"/></g>
<g><path style="opacity:1" fill="#83a9bf" d="M 199.5,31.5 C 199.5,34.1667 199.5,36.8333 199.5,39.5C 196.833,39.5 194.167,39.5 191.5,39.5C 191.5,36.8333 191.5,34.1667 191.5,31.5C 194.167,31.5 196.833,31.5 199.5,31.5 Z"/></g>
<g><path style="opacity:1" fill="#d8e6f6" d="M 247.5,31.5 C 250.167,31.5 252.833,31.5 255.5,31.5C 255.5,34.1667 255.5,36.8333 255.5,39.5C 252.833,39.5 250.167,39.5 247.5,39.5C 247.5,36.8333 247.5,34.1667 247.5,31.5 Z"/></g>
<g><path style="opacity:1" fill="#d8e6f6" d="M 263.5,31.5 C 268.833,31.5 274.167,31.5 279.5,31.5C 279.5,34.1667 279.5,36.8333 279.5,39.5C 284.833,39.5 290.167,39.5 295.5,39.5C 295.5,42.1667 295.5,44.8333 295.5,47.5C 287.5,47.5 279.5,47.5 271.5,47.5C 271.5,44.8333 271.5,42.1667 271.5,39.5C 268.833,39.5 266.167,39.5 263.5,39.5C 263.5,36.8333 263.5,34.1667 263.5,31.5 Z"/></g>
<g><path style="opacity:1" fill="#d8e6f6" d="M 303.5,31.5 C 306.167,31.5 308.833,31.5 311.5,31.5C 311.5,34.1667 311.5,36.8333 311.5,39.5C 308.833,39.5 306.167,39.5 303.5,39.5C 303.5,36.8333 303.5,34.1667 303.5,31.5 Z"/></g>
<g><path style="opacity:1" fill="#83a9bf" d="M 311.5,31.5 C 314.167,31.5 316.833,31.5 319.5,31.5C 319.5,34.1667 319.5,36.8333 319.5,39.5C 316.833,39.5 314.167,39.5 311.5,39.5C 311.5,36.8333 311.5,34.1667 311.5,31.5 Z"/></g>
<g><path style="opacity:1" fill="#83a9bf" d="M 191.5,39.5 C 191.5,44.8333 191.5,50.1667 191.5,55.5C 188.833,55.5 186.167,55.5 183.5,55.5C 183.5,50.1667 183.5,44.8333 183.5,39.5C 186.167,39.5 188.833,39.5 191.5,39.5 Z"/></g>
<g><path style="opacity:1" fill="#d8e6f6" d="M 311.5,39.5 C 314.167,39.5 316.833,39.5 319.5,39.5C 319.5,44.8333 319.5,50.1667 319.5,55.5C 316.833,55.5 314.167,55.5 311.5,55.5C 311.5,50.1667 311.5,44.8333 311.5,39.5 Z"/></g>
<g><path style="opacity:1" fill="#83a9bf" d="M 319.5,39.5 C 322.167,39.5 324.833,39.5 327.5,39.5C 327.5,44.8333 327.5,50.1667 327.5,55.5C 324.833,55.5 322.167,55.5 319.5,55.5C 319.5,50.1667 319.5,44.8333 319.5,39.5 Z"/></g>
<g><path style="opacity:1" fill="#83a9bf" d="M 183.5,55.5 C 183.5,76.8333 183.5,98.1667 183.5,119.5C 180.833,119.5 178.167,119.5 175.5,119.5C 175.5,98.1667 175.5,76.8333 175.5,55.5C 178.167,55.5 180.833,55.5 183.5,55.5 Z"/></g>
<g><path style="opacity:1" fill="#31325f" d="M 247.5,55.5 C 250.167,55.5 252.833,55.5 255.5,55.5C 255.5,66.1667 255.5,76.8333 255.5,87.5C 252.833,87.5 250.167,87.5 247.5,87.5C 247.5,76.8333 247.5,66.1667 247.5,55.5 Z"/></g>
<g><path style="opacity:1" fill="#31325f" d="M 295.5,55.5 C 298.167,55.5 300.833,55.5 303.5,55.5C 303.5,66.1667 303.5,76.8333 303.5,87.5C 300.833,87.5 298.167,87.5 295.5,87.5C 295.5,76.8333 295.5,66.1667 295.5,55.5 Z"/></g>
<g><path style="opacity:1" fill="#d8e6f6" d="M 319.5,55.5 C 322.167,55.5 324.833,55.5 327.5,55.5C 327.5,58.1667 327.5,60.8333 327.5,63.5C 324.833,63.5 322.167,63.5 319.5,63.5C 319.5,60.8333 319.5,58.1667 319.5,55.5 Z"/></g>
<g><path style="opacity:1" fill="#83a9bf" d="M 327.5,55.5 C 330.167,55.5 332.833,55.5 335.5,55.5C 335.5,76.8333 335.5,98.1667 335.5,119.5C 332.833,119.5 330.167,119.5 327.5,119.5C 327.5,100.833 327.5,82.1667 327.5,63.5C 327.5,60.8333 327.5,58.1667 327.5,55.5 Z"/></g>
<g><path style="opacity:1" fill="#84a1c4" d="M 191.5,95.5 C 194.167,95.5 196.833,95.5 199.5,95.5C 199.5,98.1667 199.5,100.833 199.5,103.5C 202.167,103.5 204.833,103.5 207.5,103.5C 207.5,108.833 207.5,114.167 207.5,119.5C 210.167,119.5 212.833,119.5 215.5,119.5C 215.5,122.167 215.5,124.833 215.5,127.5C 218.167,127.5 220.833,127.5 223.5,127.5C 223.5,130.167 223.5,132.833 223.5,135.5C 228.833,135.5 234.167,135.5 239.5,135.5C 239.5,138.167 239.5,140.833 239.5,143.5C 242.167,143.5 244.833,143.5 247.5,143.5C 247.5,146.167 247.5,148.833 247.5,151.5C 242.167,151.5 236.833,151.5 231.5,151.5C 231.5,148.833 231.5,146.167 231.5,143.5C 226.167,143.5 220.833,143.5 215.5,143.5C 215.5,140.833 215.5,138.167 215.5,135.5C 212.833,135.5 210.167,135.5 207.5,135.5C 207.5,132.833 207.5,130.167 207.5,127.5C 204.833,127.5 202.167,127.5 199.5,127.5C 199.5,122.167 199.5,116.833 199.5,111.5C 196.833,111.5 194.167,111.5 191.5,111.5C 191.5,106.167 191.5,100.833 191.5,95.5 Z"/></g>
<g><path style="opacity:1" fill="#83a9bf" d="M 183.5,119.5 C 186.167,119.5 188.833,119.5 191.5,119.5C 191.5,124.833 191.5,130.167 191.5,135.5C 188.833,135.5 186.167,135.5 183.5,135.5C 183.5,130.167 183.5,124.833 183.5,119.5 Z"/></g>
<g><path style="opacity:1" fill="#83a9bf" d="M 327.5,119.5 C 327.5,124.833 327.5,130.167 327.5,135.5C 324.833,135.5 322.167,135.5 319.5,135.5C 319.5,130.167 319.5,124.833 319.5,119.5C 322.167,119.5 324.833,119.5 327.5,119.5 Z"/></g>
<g><path style="opacity:1" fill="#83a9bf" d="M 191.5,135.5 C 194.167,135.5 196.833,135.5 199.5,135.5C 199.5,138.167 199.5,140.833 199.5,143.5C 196.833,143.5 194.167,143.5 191.5,143.5C 191.5,140.833 191.5,138.167 191.5,135.5 Z"/></g>
<g><path style="opacity:1" fill="#83a9bf" d="M 319.5,135.5 C 319.5,138.167 319.5,140.833 319.5,143.5C 316.833,143.5 314.167,143.5 311.5,143.5C 311.5,140.833 311.5,138.167 311.5,135.5C 314.167,135.5 316.833,135.5 319.5,135.5 Z"/></g>
<g><path style="opacity:1" fill="#83a9bf" d="M 199.5,143.5 C 202.167,143.5 204.833,143.5 207.5,143.5C 207.5,146.167 207.5,148.833 207.5,151.5C 204.833,151.5 202.167,151.5 199.5,151.5C 199.5,148.833 199.5,146.167 199.5,143.5 Z"/></g>
<g><path style="opacity:1" fill="#83a9bf" d="M 311.5,143.5 C 311.5,146.167 311.5,148.833 311.5,151.5C 308.833,151.5 306.167,151.5 303.5,151.5C 303.5,148.833 303.5,146.167 303.5,143.5C 306.167,143.5 308.833,143.5 311.5,143.5 Z"/></g>
<g><path style="opacity:1" fill="#83a9bf" d="M 207.5,151.5 C 212.833,151.5 218.167,151.5 223.5,151.5C 223.5,154.167 223.5,156.833 223.5,159.5C 218.167,159.5 212.833,159.5 207.5,159.5C 207.5,156.833 207.5,154.167 207.5,151.5 Z"/></g>
<g><path style="opacity:1" fill="#83a9bf" d="M 303.5,151.5 C 303.5,154.167 303.5,156.833 303.5,159.5C 298.167,159.5 292.833,159.5 287.5,159.5C 287.5,156.833 287.5,154.167 287.5,151.5C 292.833,151.5 298.167,151.5 303.5,151.5 Z"/></g>
<g><path style="opacity:1" fill="#83a9bf" d="M 223.5,159.5 C 244.833,159.5 266.167,159.5 287.5,159.5C 287.5,162.167 287.5,164.833 287.5,167.5C 266.167,167.5 244.833,167.5 223.5,167.5C 223.5,164.833 223.5,162.167 223.5,159.5 Z"/></g></symbol>

<symbol id="slime-jump-5" width="512px" height="512px" style="shape-rendering:geometricPrecision; text-rendering:geometricPrecision; image-rendering:optimizeQuality; fill-rule:evenodd; clip-rule:evenodd">
<g><path style="opacity:1" fill="#83a9bf" d="M 303.5,15.5 C 298.167,15.5 292.833,15.5 287.5,15.5C 260.833,15.5 234.167,15.5 207.5,15.5C 207.5,12.8333 207.5,10.1667 207.5,7.5C 239.5,7.5 271.5,7.5 303.5,7.5C 303.5,10.1667 303.5,12.8333 303.5,15.5 Z"/></g>
<g><path style="opacity:1" fill="#83a9bf" d="M 207.5,15.5 C 207.5,18.1667 207.5,20.8333 207.5,23.5C 202.167,23.5 196.833,23.5 191.5,23.5C 191.5,20.8333 191.5,18.1667 191.5,15.5C 196.833,15.5 202.167,15.5 207.5,15.5 Z"/></g>
<g><path style="opacity:1" fill="#a3c3eb" d="M 207.5,15.5 C 234.167,15.5 260.833,15.5 287.5,15.5C 287.5,18.1667 287.5,20.8333 287.5,23.5C 292.833,23.5 298.167,23.5 303.5,23.5C 303.5,26.1667 303.5,28.8333 303.5,31.5C 308.833,31.5 314.167,31.5 319.5,31.5C 319.5,34.1667 319.5,36.8333 319.5,39.5C 324.833,39.5 330.167,39.5 335.5,39.5C 335.5,44.8333 335.5,50.1667 335.5,55.5C 338.167,55.5 340.833,55.5 343.5,55.5C 343.5,58.1667 343.5,60.8333 343.5,63.5C 346.167,63.5 348.833,63.5 351.5,63.5C 351.5,76.8333 351.5,90.1667 351.5,103.5C 348.833,103.5 346.167,103.5 343.5,103.5C 343.5,108.833 343.5,114.167 343.5,119.5C 340.833,119.5 338.167,119.5 335.5,119.5C 335.5,122.167 335.5,124.833 335.5,127.5C 330.167,127.5 324.833,127.5 319.5,127.5C 319.5,130.167 319.5,132.833 319.5,135.5C 314.167,135.5 308.833,135.5 303.5,135.5C 303.5,138.167 303.5,140.833 303.5,143.5C 271.5,143.5 239.5,143.5 207.5,143.5C 207.5,140.833 207.5,138.167 207.5,135.5C 202.167,135.5 196.833,135.5 191.5,135.5C 191.5,132.833 191.5,130.167 191.5,127.5C 186.167,127.5 180.833,127.5 175.5,127.5C 175.5,124.833 175.5,122.167 175.5,119.5C 172.833,119.5 170.167,119.5 167.5,119.5C 167.5,114.167 167.5,108.833 167.5,103.5C 164.833,103.5 162.167,103.5 159.5,103.5C 159.5,87.5 159.5,71.5 159.5,55.5C 162.167,55.5 164.833,55.5 167.5,55.5C 167.5,50.1667 167.5,44.8333 167.5,39.5C 170.167,39.5 172.833,39.5 175.5,39.5C 175.5,36.8333 175.5,34.1667 175.5,31.5C 180.833,31.5 186.167,31.5 191.5,31.5C 191.5,28.8333 191.5,26.1667 191.5,23.5C 196.833,23.5 202.167,23.5 207.5,23.5C 207.5,20.8333 207.5,18.1667 207.5,15.5 Z"/></g>
<g><path style="opacity:1" fill="#d8e6f6" d="M 287.5,15.5 C 292.833,15.5 298.167,15.5 303.5,15.5C 303.5,18.1667 303.5,20.8333 303.5,23.5C 298.167,23.5 292.833,23.5 287.5,23.5C 287.5,20.8333 287.5,18.1667 287.5,15.5 Z"/></g>
<g><path style="opacity:1" fill="#83a9bf" d="M 303.5,15.5 C 308.833,15.5 314.167,15.5 319.5,15.5C 319.5,18.1667 319.5,20.8333 319.5,23.5C 314.167,23.5 308.833,23.5 303.5,23.5C 303.5,20.8333 303.5,18.1667 303.5,15.5 Z"/></g>
<g><path style="opacity:1" fill="#83a9bf" d="M 191.5,23.5 C 191.5,26.1667 191.5,28.8333 191.5,31.5C 186.167,31.5 180.833,31.5 175.5,31.5C 175.5,28.8333 175.5,26.1667 175.5,23.5C 180.833,23.5 186.167,23.5 191.5,23.5 Z"/></g>
<g><path style="opacity:1" fill="#d8e6f6" d="M 239.5,23.5 C 242.167,23.5 244.833,23.5 247.5,23.5C 247.5,26.1667 247.5,28.8333 247.5,31.5C 244.833,31.5 242.167,31.5 239.5,31.5C 239.5,28.8333 239.5,26.1667 239.5,23.5 Z"/></g>
<g><path style="opacity:1" fill="#d8e6f6" d="M 255.5,23.5 C 263.5,23.5 271.5,23.5 279.5,23.5C 279.5,26.1667 279.5,28.8333 279.5,31.5C 284.833,31.5 290.167,31.5 295.5,31.5C 295.5,34.1667 295.5,36.8333 295.5,39.5C 287.5,39.5 279.5,39.5 271.5,39.5C 271.5,36.8333 271.5,34.1667 271.5,31.5C 266.167,31.5 260.833,31.5 255.5,31.5C 255.5,28.8333 255.5,26.1667 255.5,23.5 Z"/></g>
<g><path style="opacity:1" fill="#d8e6f6" d="M 303.5,23.5 C 308.833,23.5 314.167,23.5 319.5,23.5C 319.5,26.1667 319.5,28.8333 319.5,31.5C 314.167,31.5 308.833,31.5 303.5,31.5C 303.5,28.8333 303.5,26.1667 303.5,23.5 Z"/></g>
<g><path style="opacity:1" fill="#83a9bf" d="M 319.5,23.5 C 324.833,23.5 330.167,23.5 335.5,23.5C 335.5,26.1667 335.5,28.8333 335.5,31.5C 330.167,31.5 324.833,31.5 319.5,31.5C 319.5,28.8333 319.5,26.1667 319.5,23.5 Z"/></g>
<g><path style="opacity:1" fill="#83a9bf" d="M 175.5,31.5 C 175.5,34.1667 175.5,36.8333 175.5,39.5C 172.833,39.5 170.167,39.5 167.5,39.5C 167.5,36.8333 167.5,34.1667 167.5,31.5C 170.167,31.5 172.833,31.5 175.5,31.5 Z"/></g>
<g><path style="opacity:1" fill="#d8e6f6" d="M 319.5,31.5 C 324.833,31.5 330.167,31.5 335.5,31.5C 335.5,34.1667 335.5,36.8333 335.5,39.5C 330.167,39.5 324.833,39.5 319.5,39.5C 319.5,36.8333 319.5,34.1667 319.5,31.5 Z"/></g>
<g><path style="opacity:1" fill="#83a9bf" d="M 335.5,31.5 C 338.167,31.5 340.833,31.5 343.5,31.5C 343.5,34.1667 343.5,36.8333 343.5,39.5C 340.833,39.5 338.167,39.5 335.5,39.5C 335.5,36.8333 335.5,34.1667 335.5,31.5 Z"/></g>
<g><path style="opacity:1" fill="#83a9bf" d="M 167.5,39.5 C 167.5,44.8333 167.5,50.1667 167.5,55.5C 164.833,55.5 162.167,55.5 159.5,55.5C 159.5,50.1667 159.5,44.8333 159.5,39.5C 162.167,39.5 164.833,39.5 167.5,39.5 Z"/></g>
<g><path style="opacity:1" fill="#d8e6f6" d="M 335.5,39.5 C 338.167,39.5 340.833,39.5 343.5,39.5C 343.5,44.8333 343.5,50.1667 343.5,55.5C 340.833,55.5 338.167,55.5 335.5,55.5C 335.5,50.1667 335.5,44.8333 335.5,39.5 Z"/></g>
<g><path style="opacity:1" fill="#83a9bf" d="M 343.5,39.5 C 346.167,39.5 348.833,39.5 351.5,39.5C 351.5,44.8333 351.5,50.1667 351.5,55.5C 348.833,55.5 346.167,55.5 343.5,55.5C 343.5,50.1667 343.5,44.8333 343.5,39.5 Z"/></g>
<g><path style="opacity:1" fill="#83a9bf" d="M 159.5,55.5 C 159.5,71.5 159.5,87.5 159.5,103.5C 156.833,103.5 154.167,103.5 151.5,103.5C 151.5,87.5 151.5,71.5 151.5,55.5C 154.167,55.5 156.833,55.5 159.5,55.5 Z"/></g>
<g><path style="opacity:1" fill="#31325f" d="M 247.5,55.5 C 250.167,55.5 252.833,55.5 255.5,55.5C 255.5,66.1667 255.5,76.8333 255.5,87.5C 252.833,87.5 250.167,87.5 247.5,87.5C 247.5,76.8333 247.5,66.1667 247.5,55.5 Z"/></g>
<g><path style="opacity:1" fill="#31325f" d="M 303.5,55.5 C 306.167,55.5 308.833,55.5 311.5,55.5C 311.5,66.1667 311.5,76.8333 311.5,87.5C 308.833,87.5 306.167,87.5 303.5,87.5C 303.5,76.8333 303.5,66.1667 303.5,55.5 Z"/></g>
<g><path style="opacity:1" fill="#d8e6f6" d="M 343.5,55.5 C 346.167,55.5 348.833,55.5 351.5,55.5C 351.5,58.1667 351.5,60.8333 351.5,63.5C 348.833,63.5 346.167,63.5 343.5,63.5C 343.5,60.8333 343.5,58.1667 343.5,55.5 Z"/></g>
<g><path style="opacity:1" fill="#83a9bf" d="M 351.5,55.5 C 354.167,55.5 356.833,55.5 359.5,55.5C 359.5,71.5 359.5,87.5 359.5,103.5C 356.833,103.5 354.167,103.5 351.5,103.5C 351.5,90.1667 351.5,76.8333 351.5,63.5C 351.5,60.8333 351.5,58.1667 351.5,55.5 Z"/></g>
<g><path style="opacity:1" fill="#84a1c4" d="M 167.5,79.5 C 170.167,79.5 172.833,79.5 175.5,79.5C 175.5,82.1667 175.5,84.8333 175.5,87.5C 178.167,87.5 180.833,87.5 183.5,87.5C 183.5,92.8333 183.5,98.1667 183.5,103.5C 186.167,103.5 188.833,103.5 191.5,103.5C 191.5,106.167 191.5,108.833 191.5,111.5C 196.833,111.5 202.167,111.5 207.5,111.5C 207.5,114.167 207.5,116.833 207.5,119.5C 212.833,119.5 218.167,119.5 223.5,119.5C 223.5,122.167 223.5,124.833 223.5,127.5C 226.167,127.5 228.833,127.5 231.5,127.5C 231.5,130.167 231.5,132.833 231.5,135.5C 226.167,135.5 220.833,135.5 215.5,135.5C 215.5,132.833 215.5,130.167 215.5,127.5C 210.167,127.5 204.833,127.5 199.5,127.5C 199.5,124.833 199.5,122.167 199.5,119.5C 194.167,119.5 188.833,119.5 183.5,119.5C 183.5,116.833 183.5,114.167 183.5,111.5C 180.833,111.5 178.167,111.5 175.5,111.5C 175.5,106.167 175.5,100.833 175.5,95.5C 172.833,95.5 170.167,95.5 167.5,95.5C 167.5,90.1667 167.5,84.8333 167.5,79.5 Z"/></g>
<g><path style="opacity:1" fill="#83a9bf" d="M 159.5,103.5 C 162.167,103.5 164.833,103.5 167.5,103.5C 167.5,108.833 167.5,114.167 167.5,119.5C 164.833,119.5 162.167,119.5 159.5,119.5C 159.5,114.167 159.5,108.833 159.5,103.5 Z"/></g>
<g><path style="opacity:1" fill="#83a9bf" d="M 351.5,103.5 C 351.5,108.833 351.5,114.167 351.5,119.5C 348.833,119.5 346.167,119.5 343.5,119.5C 343.5,114.167 343.5,108.833 343.5,103.5C 346.167,103.5 348.833,103.5 351.5,103.5 Z"/></g>
<g><path style="opacity:1" fill="#83a9bf" d="M 167.5,119.5 C 170.167,119.5 172.833,119.5 175.5,119.5C 175.5,122.167 175.5,124.833 175.5,127.5C 172.833,127.5 170.167,127.5 167.5,127.5C 167.5,124.833 167.5,122.167 167.5,119.5 Z"/></g>
<g><path style="opacity:1" fill="#83a9bf" d="M 343.5,119.5 C 343.5,122.167 343.5,124.833 343.5,127.5C 340.833,127.5 338.167,127.5 335.5,127.5C 335.5,124.833 335.5,122.167 335.5,119.5C 338.167,119.5 340.833,119.5 343.5,119.5 Z"/></g>
<g><path style="opacity:1" fill="#83a9bf" d="M 175.5,127.5 C 180.833,127.5 186.167,127.5 191.5,127.5C 191.5,130.167 191.5,132.833 191.5,135.5C 186.167,135.5 180.833,135.5 175.5,135.5C 175.5,132.833 175.5,130.167 175.5,127.5 Z"/></g>
<g><path style="opacity:1" fill="#83a9bf" d="M 335.5,127.5 C 335.5,130.167 335.5,132.833 335.5,135.5C 330.167,135.5 324.833,135.5 319.5,135.5C 319.5,132.833 319.5,130.167 319.5,127.5C 324.833,127.5 330.167,127.5 335.5,127.5 Z"/></g>
<g><path style="opacity:1" fill="#83a9bf" d="M 191.5,135.5 C 196.833,135.5 202.167,135.5 207.5,135.5C 207.5,138.167 207.5,140.833 207.5,143.5C 202.167,143.5 196.833,143.5 191.5,143.5C 191.5,140.833 191.5,138.167 191.5,135.5 Z"/></g>
<g><path style="opacity:1" fill="#83a9bf" d="M 319.5,135.5 C 319.5,138.167 319.5,140.833 319.5,143.5C 314.167,143.5 308.833,143.5 303.5,143.5C 303.5,140.833 303.5,138.167 303.5,135.5C 308.833,135.5 314.167,135.5 319.5,135.5 Z"/></g>
<g><path style="opacity:1" fill="#83a9bf" d="M 207.5,143.5 C 239.5,143.5 271.5,143.5 303.5,143.5C 303.5,146.167 303.5,148.833 303.5,151.5C 271.5,151.5 239.5,151.5 207.5,151.5C 207.5,148.833 207.5,146.167 207.5,143.5 Z"/></g></symbol>

<symbol id="slime-jump-4" width="512px" height="512px" style="shape-rendering:geometricPrecision; text-rendering:geometricPrecision; image-rendering:optimizeQuality; fill-rule:evenodd; clip-rule:evenodd">
<g><path style="opacity:1" fill="#83a9bf" d="M 287.5,15.5 C 284.833,15.5 282.167,15.5 279.5,15.5C 260.833,15.5 242.167,15.5 223.5,15.5C 223.5,12.8333 223.5,10.1667 223.5,7.5C 244.833,7.5 266.167,7.5 287.5,7.5C 287.5,10.1667 287.5,12.8333 287.5,15.5 Z"/></g>
<g><path style="opacity:1" fill="#83a9bf" d="M 223.5,15.5 C 223.5,18.1667 223.5,20.8333 223.5,23.5C 218.167,23.5 212.833,23.5 207.5,23.5C 207.5,20.8333 207.5,18.1667 207.5,15.5C 212.833,15.5 218.167,15.5 223.5,15.5 Z"/></g>
<g><path style="opacity:1" fill="#a3c3eb" d="M 223.5,15.5 C 242.167,15.5 260.833,15.5 279.5,15.5C 279.5,18.1667 279.5,20.8333 279.5,23.5C 282.167,23.5 284.833,23.5 287.5,23.5C 287.5,26.1667 287.5,28.8333 287.5,31.5C 292.833,31.5 298.167,31.5 303.5,31.5C 303.5,34.1667 303.5,36.8333 303.5,39.5C 306.167,39.5 308.833,39.5 311.5,39.5C 311.5,44.8333 311.5,50.1667 311.5,55.5C 314.167,55.5 316.833,55.5 319.5,55.5C 319.5,58.1667 319.5,60.8333 319.5,63.5C 322.167,63.5 324.833,63.5 327.5,63.5C 327.5,82.1667 327.5,100.833 327.5,119.5C 324.833,119.5 322.167,119.5 319.5,119.5C 319.5,124.833 319.5,130.167 319.5,135.5C 316.833,135.5 314.167,135.5 311.5,135.5C 311.5,138.167 311.5,140.833 311.5,143.5C 308.833,143.5 306.167,143.5 303.5,143.5C 303.5,146.167 303.5,148.833 303.5,151.5C 298.167,151.5 292.833,151.5 287.5,151.5C 287.5,154.167 287.5,156.833 287.5,159.5C 266.167,159.5 244.833,159.5 223.5,159.5C 223.5,156.833 223.5,154.167 223.5,151.5C 218.167,151.5 212.833,151.5 207.5,151.5C 207.5,148.833 207.5,146.167 207.5,143.5C 204.833,143.5 202.167,143.5 199.5,143.5C 199.5,140.833 199.5,138.167 199.5,135.5C 196.833,135.5 194.167,135.5 191.5,135.5C 191.5,130.167 191.5,124.833 191.5,119.5C 188.833,119.5 186.167,119.5 183.5,119.5C 183.5,98.1667 183.5,76.8333 183.5,55.5C 186.167,55.5 188.833,55.5 191.5,55.5C 191.5,50.1667 191.5,44.8333 191.5,39.5C 194.167,39.5 196.833,39.5 199.5,39.5C 199.5,36.8333 199.5,34.1667 199.5,31.5C 202.167,31.5 204.833,31.5 207.5,31.5C 207.5,28.8333 207.5,26.1667 207.5,23.5C 212.833,23.5 218.167,23.5 223.5,23.5C 223.5,20.8333 223.5,18.1667 223.5,15.5 Z"/></g>
<g><path style="opacity:1" fill="#d8e6f6" d="M 279.5,15.5 C 282.167,15.5 284.833,15.5 287.5,15.5C 287.5,18.1667 287.5,20.8333 287.5,23.5C 284.833,23.5 282.167,23.5 279.5,23.5C 279.5,20.8333 279.5,18.1667 279.5,15.5 Z"/></g>
<g><path style="opacity:1" fill="#83a9bf" d="M 287.5,15.5 C 292.833,15.5 298.167,15.5 303.5,15.5C 303.5,18.1667 303.5,20.8333 303.5,23.5C 298.167,23.5 292.833,23.5 287.5,23.5C 287.5,20.8333 287.5,18.1667 287.5,15.5 Z"/></g>
<g><path style="opacity:1" fill="#83a9bf" d="M 207.5,23.5 C 207.5,26.1667 207.5,28.8333 207.5,31.5C 204.833,31.5 202.167,31.5 199.5,31.5C 199.5,28.8333 199.5,26.1667 199.5,23.5C 202.167,23.5 204.833,23.5 207.5,23.5 Z"/></g>
<g><path style="opacity:1" fill="#d8e6f6" d="M 287.5,23.5 C 292.833,23.5 298.167,23.5 303.5,23.5C 303.5,26.1667 303.5,28.8333 303.5,31.5C 298.167,31.5 292.833,31.5 287.5,31.5C 287.5,28.8333 287.5,26.1667 287.5,23.5 Z"/></g>
<g><path style="opacity:1" fill="#83a9bf" d="M 303.5,23.5 C 306.167,23.5 308.833,23.5 311.5,23.5C 311.5,26.1667 311.5,28.8333 311.5,31.5C 308.833,31.5 306.167,31.5 303.5,31.5C 303.5,28.8333 303.5,26.1667 303.5,23.5 Z"/></g>
<g><path style="opacity:1" fill="#83a9bf" d="M 199.5,31.5 C 199.5,34.1667 199.5,36.8333 199.5,39.5C 196.833,39.5 194.167,39.5 191.5,39.5C 191.5,36.8333 191.5,34.1667 191.5,31.5C 194.167,31.5 196.833,31.5 199.5,31.5 Z"/></g>
<g><path style="opacity:1" fill="#d8e6f6" d="M 247.5,31.5 C 250.167,31.5 252.833,31.5 255.5,31.5C 255.5,34.1667 255.5,36.8333 255.5,39.5C 252.833,39.5 250.167,39.5 247.5,39.5C 247.5,36.8333 247.5,34.1667 247.5,31.5 Z"/></g>
<g><path style="opacity:1" fill="#d8e6f6" d="M 263.5,31.5 C 268.833,31.5 274.167,31.5 279.5,31.5C 279.5,34.1667 279.5,36.8333 279.5,39.5C 284.833,39.5 290.167,39.5 295.5,39.5C 295.5,42.1667 295.5,44.8333 295.5,47.5C 287.5,47.5 279.5,47.5 271.5,47.5C 271.5,44.8333 271.5,42.1667 271.5,39.5C 268.833,39.5 266.167,39.5 263.5,39.5C 263.5,36.8333 263.5,34.1667 263.5,31.5 Z"/></g>
<g><path style="opacity:1" fill="#d8e6f6" d="M 303.5,31.5 C 306.167,31.5 308.833,31.5 311.5,31.5C 311.5,34.1667 311.5,36.8333 311.5,39.5C 308.833,39.5 306.167,39.5 303.5,39.5C 303.5,36.8333 303.5,34.1667 303.5,31.5 Z"/></g>
<g><path style="opacity:1" fill="#83a9bf" d="M 311.5,31.5 C 314.167,31.5 316.833,31.5 319.5,31.5C 319.5,34.1667 319.5,36.8333 319.5,39.5C 316.833,39.5 314.167,39.5 311.5,39.5C 311.5,36.8333 311.5,34.1667 311.5,31.5 Z"/></g>
<g><path style="opacity:1" fill="#83a9bf" d="M 191.5,39.5 C 191.5,44.8333 191.5,50.1667 191.5,55.5C 188.833,55.5 186.167,55.5 183.5,55.5C 183.5,50.1667 183.5,44.8333 183.5,39.5C 186.167,39.5 188.833,39.5 191.5,39.5 Z"/></g>
<g><path style="opacity:1" fill="#d8e6f6" d="M 311.5,39.5 C 314.167,39.5 316.833,39.5 319.5,39.5C 319.5,44.8333 319.5,50.1667 319.5,55.5C 316.833,55.5 314.167,55.5 311.5,55.5C 311.5,50.1667 311.5,44.8333 311.5,39.5 Z"/></g>
<g><path style="opacity:1" fill="#83a9bf" d="M 319.5,39.5 C 322.167,39.5 324.833,39.5 327.5,39.5C 327.5,44.8333 327.5,50.1667 327.5,55.5C 324.833,55.5 322.167,55.5 319.5,55.5C 319.5,50.1667 319.5,44.8333 319.5,39.5 Z"/></g>
<g><path style="opacity:1" fill="#83a9bf" d="M 183.5,55.5 C 183.5,76.8333 183.5,98.1667 183.5,119.5C 180.833,119.5 178.167,119.5 175.5,119.5C 175.5,98.1667 175.5,76.8333 175.5,55.5C 178.167,55.5 180.833,55.5 183.5,55.5 Z"/></g>
<g><path style="opacity:1" fill="#31325f" d="M 247.5,55.5 C 250.167,55.5 252.833,55.5 255.5,55.5C 255.5,66.1667 255.5,76.8333 255.5,87.5C 252.833,87.5 250.167,87.5 247.5,87.5C 247.5,76.8333 247.5,66.1667 247.5,55.5 Z"/></g>
<g><path style="opacity:1" fill="#31325f" d="M 295.5,55.5 C 298.167,55.5 300.833,55.5 303.5,55.5C 303.5,66.1667 303.5,76.8333 303.5,87.5C 300.833,87.5 298.167,87.5 295.5,87.5C 295.5,76.8333 295.5,66.1667 295.5,55.5 Z"/></g>
<g><path style="opacity:1" fill="#d8e6f6" d="M 319.5,55.5 C 322.167,55.5 324.833,55.5 327.5,55.5C 327.5,58.1667 327.5,60.8333 327.5,63.5C 324.833,63.5 322.167,63.5 319.5,63.5C 319.5,60.8333 319.5,58.1667 319.5,55.5 Z"/></g>
<g><path style="opacity:1" fill="#83a9bf" d="M 327.5,55.5 C 330.167,55.5 332.833,55.5 335.5,55.5C 335.5,76.8333 335.5,98.1667 335.5,119.5C 332.833,119.5 330.167,119.5 327.5,119.5C 327.5,100.833 327.5,82.1667 327.5,63.5C 327.5,60.8333 327.5,58.1667 327.5,55.5 Z"/></g>
<g><path style="opacity:1" fill="#84a1c4" d="M 191.5,95.5 C 194.167,95.5 196.833,95.5 199.5,95.5C 199.5,98.1667 199.5,100.833 199.5,103.5C 202.167,103.5 204.833,103.5 207.5,103.5C 207.5,108.833 207.5,114.167 207.5,119.5C 210.167,119.5 212.833,119.5 215.5,119.5C 215.5,122.167 215.5,124.833 215.5,127.5C 218.167,127.5 220.833,127.5 223.5,127.5C 223.5,130.167 223.5,132.833 223.5,135.5C 228.833,135.5 234.167,135.5 239.5,135.5C 239.5,138.167 239.5,140.833 239.5,143.5C 242.167,143.5 244.833,143.5 247.5,143.5C 247.5,146.167 247.5,148.833 247.5,151.5C 242.167,151.5 236.833,151.5 231.5,151.5C 231.5,148.833 231.5,146.167 231.5,143.5C 226.167,143.5 220.833,143.5 215.5,143.5C 215.5,140.833 215.5,138.167 215.5,135.5C 212.833,135.5 210.167,135.5 207.5,135.5C 207.5,132.833 207.5,130.167 207.5,127.5C 204.833,127.5 202.167,127.5 199.5,127.5C 199.5,122.167 199.5,116.833 199.5,111.5C 196.833,111.5 194.167,111.5 191.5,111.5C 191.5,106.167 191.5,100.833 191.5,95.5 Z"/></g>
<g><path style="opacity:1" fill="#83a9bf" d="M 183.5,119.5 C 186.167,119.5 188.833,119.5 191.5,119.5C 191.5,124.833 191.5,130.167 191.5,135.5C 188.833,135.5 186.167,135.5 183.5,135.5C 183.5,130.167 183.5,124.833 183.5,119.5 Z"/></g>
<g><path style="opacity:1" fill="#83a9bf" d="M 327.5,119.5 C 327.5,124.833 327.5,130.167 327.5,135.5C 324.833,135.5 322.167,135.5 319.5,135.5C 319.5,130.167 319.5,124.833 319.5,119.5C 322.167,119.5 324.833,119.5 327.5,119.5 Z"/></g>
<g><path style="opacity:1" fill="#83a9bf" d="M 191.5,135.5 C 194.167,135.5 196.833,135.5 199.5,135.5C 199.5,138.167 199.5,140.833 199.5,143.5C 196.833,143.5 194.167,143.5 191.5,143.5C 191.5,140.833 191.5,138.167 191.5,135.5 Z"/></g>
<g><path style="opacity:1" fill="#83a9bf" d="M 319.5,135.5 C 319.5,138.167 319.5,140.833 319.5,143.5C 316.833,143.5 314.167,143.5 311.5,143.5C 311.5,140.833 311.5,138.167 311.5,135.5C 314.167,135.5 316.833,135.5 319.5,135.5 Z"/></g>
<g><path style="opacity:1" fill="#83a9bf" d="M 199.5,143.5 C 202.167,143.5 204.833,143.5 207.5,143.5C 207.5,146.167 207.5,148.833 207.5,151.5C 204.833,151.5 202.167,151.5 199.5,151.5C 199.5,148.833 199.5,146.167 199.5,143.5 Z"/></g>
<g><path style="opacity:1" fill="#83a9bf" d="M 311.5,143.5 C 311.5,146.167 311.5,148.833 311.5,151.5C 308.833,151.5 306.167,151.5 303.5,151.5C 303.5,148.833 303.5,146.167 303.5,143.5C 306.167,143.5 308.833,143.5 311.5,143.5 Z"/></g>
<g><path style="opacity:1" fill="#83a9bf" d="M 207.5,151.5 C 212.833,151.5 218.167,151.5 223.5,151.5C 223.5,154.167 223.5,156.833 223.5,159.5C 218.167,159.5 212.833,159.5 207.5,159.5C 207.5,156.833 207.5,154.167 207.5,151.5 Z"/></g>
<g><path style="opacity:1" fill="#83a9bf" d="M 303.5,151.5 C 303.5,154.167 303.5,156.833 303.5,159.5C 298.167,159.5 292.833,159.5 287.5,159.5C 287.5,156.833 287.5,154.167 287.5,151.5C 292.833,151.5 298.167,151.5 303.5,151.5 Z"/></g>
<g><path style="opacity:1" fill="#83a9bf" d="M 223.5,159.5 C 244.833,159.5 266.167,159.5 287.5,159.5C 287.5,162.167 287.5,164.833 287.5,167.5C 266.167,167.5 244.833,167.5 223.5,167.5C 223.5,164.833 223.5,162.167 223.5,159.5 Z"/></g></symbol>

<symbol id="slime-jump-3" width="512px" height="512px" style="shape-rendering:geometricPrecision; text-rendering:geometricPrecision; image-rendering:optimizeQuality; fill-rule:evenodd; clip-rule:evenodd">
<g><path style="opacity:1" fill="#83a9bf" d="M 287.5,39.5 C 282.167,39.5 276.833,39.5 271.5,39.5C 255.5,39.5 239.5,39.5 223.5,39.5C 223.5,36.8333 223.5,34.1667 223.5,31.5C 244.833,31.5 266.167,31.5 287.5,31.5C 287.5,34.1667 287.5,36.8333 287.5,39.5 Z"/></g>
<g><path style="opacity:1" fill="#83a9bf" d="M 223.5,39.5 C 223.5,42.1667 223.5,44.8333 223.5,47.5C 218.167,47.5 212.833,47.5 207.5,47.5C 207.5,44.8333 207.5,42.1667 207.5,39.5C 212.833,39.5 218.167,39.5 223.5,39.5 Z"/></g>
<g><path style="opacity:1" fill="#a3c3eb" d="M 223.5,39.5 C 239.5,39.5 255.5,39.5 271.5,39.5C 271.5,42.1667 271.5,44.8333 271.5,47.5C 276.833,47.5 282.167,47.5 287.5,47.5C 287.5,50.1667 287.5,52.8333 287.5,55.5C 290.167,55.5 292.833,55.5 295.5,55.5C 295.5,58.1667 295.5,60.8333 295.5,63.5C 298.167,63.5 300.833,63.5 303.5,63.5C 303.5,66.1667 303.5,68.8333 303.5,71.5C 306.167,71.5 308.833,71.5 311.5,71.5C 311.5,76.8333 311.5,82.1667 311.5,87.5C 314.167,87.5 316.833,87.5 319.5,87.5C 319.5,108.833 319.5,130.167 319.5,151.5C 316.833,151.5 314.167,151.5 311.5,151.5C 311.5,156.833 311.5,162.167 311.5,167.5C 308.833,167.5 306.167,167.5 303.5,167.5C 303.5,170.167 303.5,172.833 303.5,175.5C 300.833,175.5 298.167,175.5 295.5,175.5C 295.5,178.167 295.5,180.833 295.5,183.5C 292.833,183.5 290.167,183.5 287.5,183.5C 287.5,186.167 287.5,188.833 287.5,191.5C 266.167,191.5 244.833,191.5 223.5,191.5C 223.5,188.833 223.5,186.167 223.5,183.5C 220.833,183.5 218.167,183.5 215.5,183.5C 215.5,180.833 215.5,178.167 215.5,175.5C 212.833,175.5 210.167,175.5 207.5,175.5C 207.5,172.833 207.5,170.167 207.5,167.5C 204.833,167.5 202.167,167.5 199.5,167.5C 199.5,162.167 199.5,156.833 199.5,151.5C 196.833,151.5 194.167,151.5 191.5,151.5C 191.5,130.167 191.5,108.833 191.5,87.5C 194.167,87.5 196.833,87.5 199.5,87.5C 199.5,79.5 199.5,71.5 199.5,63.5C 202.167,63.5 204.833,63.5 207.5,63.5C 207.5,58.1667 207.5,52.8333 207.5,47.5C 212.833,47.5 218.167,47.5 223.5,47.5C 223.5,44.8333 223.5,42.1667 223.5,39.5 Z"/></g>
<g><path style="opacity:1" fill="#d8e6f6" d="M 271.5,39.5 C 276.833,39.5 282.167,39.5 287.5,39.5C 287.5,42.1667 287.5,44.8333 287.5,47.5C 282.167,47.5 276.833,47.5 271.5,47.5C 271.5,44.8333 271.5,42.1667 271.5,39.5 Z"/></g>
<g><path style="opacity:1" fill="#83a9bf" d="M 287.5,39.5 C 292.833,39.5 298.167,39.5 303.5,39.5C 303.5,42.1667 303.5,44.8333 303.5,47.5C 298.167,47.5 292.833,47.5 287.5,47.5C 287.5,44.8333 287.5,42.1667 287.5,39.5 Z"/></g>
<g><path style="opacity:1" fill="#83a9bf" d="M 207.5,47.5 C 207.5,52.8333 207.5,58.1667 207.5,63.5C 204.833,63.5 202.167,63.5 199.5,63.5C 199.5,71.5 199.5,79.5 199.5,87.5C 196.833,87.5 194.167,87.5 191.5,87.5C 191.5,108.833 191.5,130.167 191.5,151.5C 188.833,151.5 186.167,151.5 183.5,151.5C 183.5,127.5 183.5,103.5 183.5,79.5C 186.167,79.5 188.833,79.5 191.5,79.5C 191.5,71.5 191.5,63.5 191.5,55.5C 194.167,55.5 196.833,55.5 199.5,55.5C 199.5,52.8333 199.5,50.1667 199.5,47.5C 202.167,47.5 204.833,47.5 207.5,47.5 Z"/></g>
<g><path style="opacity:1" fill="#d8e6f6" d="M 287.5,47.5 C 292.833,47.5 298.167,47.5 303.5,47.5C 303.5,52.8333 303.5,58.1667 303.5,63.5C 300.833,63.5 298.167,63.5 295.5,63.5C 295.5,60.8333 295.5,58.1667 295.5,55.5C 292.833,55.5 290.167,55.5 287.5,55.5C 287.5,52.8333 287.5,50.1667 287.5,47.5 Z"/></g>
<g><path style="opacity:1" fill="#83a9bf" d="M 303.5,47.5 C 306.167,47.5 308.833,47.5 311.5,47.5C 311.5,50.1667 311.5,52.8333 311.5,55.5C 314.167,55.5 316.833,55.5 319.5,55.5C 319.5,63.5 319.5,71.5 319.5,79.5C 322.167,79.5 324.833,79.5 327.5,79.5C 327.5,103.5 327.5,127.5 327.5,151.5C 324.833,151.5 322.167,151.5 319.5,151.5C 319.5,130.167 319.5,108.833 319.5,87.5C 316.833,87.5 314.167,87.5 311.5,87.5C 311.5,82.1667 311.5,76.8333 311.5,71.5C 308.833,71.5 306.167,71.5 303.5,71.5C 303.5,68.8333 303.5,66.1667 303.5,63.5C 303.5,58.1667 303.5,52.8333 303.5,47.5 Z"/></g>
<g><path style="opacity:1" fill="#d8e6f6" d="M 239.5,55.5 C 242.167,55.5 244.833,55.5 247.5,55.5C 247.5,58.1667 247.5,60.8333 247.5,63.5C 244.833,63.5 242.167,63.5 239.5,63.5C 239.5,60.8333 239.5,58.1667 239.5,55.5 Z"/></g>
<g><path style="opacity:1" fill="#d8e6f6" d="M 255.5,55.5 C 263.5,55.5 271.5,55.5 279.5,55.5C 279.5,58.1667 279.5,60.8333 279.5,63.5C 282.167,63.5 284.833,63.5 287.5,63.5C 287.5,66.1667 287.5,68.8333 287.5,71.5C 282.167,71.5 276.833,71.5 271.5,71.5C 271.5,68.8333 271.5,66.1667 271.5,63.5C 266.167,63.5 260.833,63.5 255.5,63.5C 255.5,60.8333 255.5,58.1667 255.5,55.5 Z"/></g>
<g><path style="opacity:1" fill="#d8e6f6" d="M 303.5,63.5 C 306.167,63.5 308.833,63.5 311.5,63.5C 311.5,66.1667 311.5,68.8333 311.5,71.5C 311.5,68.8333 311.5,66.1667 311.5,63.5C 308.833,63.5 306.167,63.5 303.5,63.5 Z"/></g>
<g><path style="opacity:1" fill="#31325f" d="M 247.5,79.5 C 250.167,79.5 252.833,79.5 255.5,79.5C 255.5,90.1667 255.5,100.833 255.5,111.5C 252.833,111.5 250.167,111.5 247.5,111.5C 247.5,100.833 247.5,90.1667 247.5,79.5 Z"/></g>
<g><path style="opacity:1" fill="#31325f" d="M 287.5,79.5 C 290.167,79.5 292.833,79.5 295.5,79.5C 295.5,90.1667 295.5,100.833 295.5,111.5C 292.833,111.5 290.167,111.5 287.5,111.5C 287.5,100.833 287.5,90.1667 287.5,79.5 Z"/></g>
<g><path style="opacity:1" fill="#84a1c4" d="M 239.5,175.5 C 234.167,175.5 228.833,175.5 223.5,175.5C 223.5,172.833 223.5,170.167 223.5,167.5C 220.833,167.5 218.167,167.5 215.5,167.5C 215.5,164.833 215.5,162.167 215.5,159.5C 212.833,159.5 210.167,159.5 207.5,159.5C 207.5,154.167 207.5,148.833 207.5,143.5C 204.833,143.5 202.167,143.5 199.5,143.5C 199.5,135.5 199.5,127.5 199.5,119.5C 202.167,119.5 204.833,119.5 207.5,119.5C 207.5,124.833 207.5,130.167 207.5,135.5C 210.167,135.5 212.833,135.5 215.5,135.5C 215.5,138.167 215.5,140.833 215.5,143.5C 218.167,143.5 220.833,143.5 223.5,143.5C 223.5,148.833 223.5,154.167 223.5,159.5C 226.167,159.5 228.833,159.5 231.5,159.5C 231.5,162.167 231.5,164.833 231.5,167.5C 234.167,167.5 236.833,167.5 239.5,167.5C 239.5,170.167 239.5,172.833 239.5,175.5 Z"/></g>
<g><path style="opacity:1" fill="#83a9bf" d="M 191.5,151.5 C 194.167,151.5 196.833,151.5 199.5,151.5C 199.5,156.833 199.5,162.167 199.5,167.5C 196.833,167.5 194.167,167.5 191.5,167.5C 191.5,162.167 191.5,156.833 191.5,151.5 Z"/></g>
<g><path style="opacity:1" fill="#83a9bf" d="M 319.5,151.5 C 319.5,156.833 319.5,162.167 319.5,167.5C 316.833,167.5 314.167,167.5 311.5,167.5C 311.5,162.167 311.5,156.833 311.5,151.5C 314.167,151.5 316.833,151.5 319.5,151.5 Z"/></g>
<g><path style="opacity:1" fill="#83a9bf" d="M 199.5,167.5 C 202.167,167.5 204.833,167.5 207.5,167.5C 207.5,170.167 207.5,172.833 207.5,175.5C 210.167,175.5 212.833,175.5 215.5,175.5C 215.5,178.167 215.5,180.833 215.5,183.5C 210.167,183.5 204.833,183.5 199.5,183.5C 199.5,178.167 199.5,172.833 199.5,167.5 Z"/></g>
<g><path style="opacity:1" fill="#83a9bf" d="M 311.5,167.5 C 311.5,172.833 311.5,178.167 311.5,183.5C 306.167,183.5 300.833,183.5 295.5,183.5C 295.5,180.833 295.5,178.167 295.5,175.5C 298.167,175.5 300.833,175.5 303.5,175.5C 303.5,172.833 303.5,170.167 303.5,167.5C 306.167,167.5 308.833,167.5 311.5,167.5 Z"/></g>
<g><path style="opacity:1" fill="#84a1c4" d="M 239.5,175.5 C 244.833,175.5 250.167,175.5 255.5,175.5C 255.5,178.167 255.5,180.833 255.5,183.5C 250.167,183.5 244.833,183.5 239.5,183.5C 239.5,180.833 239.5,178.167 239.5,175.5 Z"/></g>
<g><path style="opacity:1" fill="#83a9bf" d="M 215.5,183.5 C 218.167,183.5 220.833,183.5 223.5,183.5C 223.5,186.167 223.5,188.833 223.5,191.5C 220.833,191.5 218.167,191.5 215.5,191.5C 215.5,188.833 215.5,186.167 215.5,183.5 Z"/></g>
<g><path style="opacity:1" fill="#83a9bf" d="M 295.5,183.5 C 295.5,186.167 295.5,188.833 295.5,191.5C 292.833,191.5 290.167,191.5 287.5,191.5C 287.5,188.833 287.5,186.167 287.5,183.5C 290.167,183.5 292.833,183.5 295.5,183.5 Z"/></g>
<g><path style="opacity:1" fill="#83a9bf" d="M 223.5,191.5 C 244.833,191.5 266.167,191.5 287.5,191.5C 287.5,194.167 287.5,196.833 287.5,199.5C 266.167,199.5 244.833,199.5 223.5,199.5C 223.5,196.833 223.5,194.167 223.5,191.5 Z"/></g></symbol>

<symbol id="slime-jump-2" width="512px" height="512px" style="shape-rendering:geometricPrecision; text-rendering:geometricPrecision; image-rendering:optimizeQuality; fill-rule:evenodd; clip-rule:evenodd">
<g><path style="opacity:1" fill="#83a9bf" d="M 279.5,111.5 C 274.167,111.5 268.833,111.5 263.5,111.5C 252.833,111.5 242.167,111.5 231.5,111.5C 231.5,108.833 231.5,106.167 231.5,103.5C 247.5,103.5 263.5,103.5 279.5,103.5C 279.5,106.167 279.5,108.833 279.5,111.5 Z"/></g>
<g><path style="opacity:1" fill="#83a9bf" d="M 231.5,111.5 C 231.5,114.167 231.5,116.833 231.5,119.5C 226.167,119.5 220.833,119.5 215.5,119.5C 215.5,116.833 215.5,114.167 215.5,111.5C 220.833,111.5 226.167,111.5 231.5,111.5 Z"/></g>
<g><path style="opacity:1" fill="#a3c3eb" d="M 231.5,111.5 C 242.167,111.5 252.833,111.5 263.5,111.5C 263.5,114.167 263.5,116.833 263.5,119.5C 268.833,119.5 274.167,119.5 279.5,119.5C 279.5,122.167 279.5,124.833 279.5,127.5C 284.833,127.5 290.167,127.5 295.5,127.5C 295.5,135.5 295.5,143.5 295.5,151.5C 298.167,151.5 300.833,151.5 303.5,151.5C 303.5,191.5 303.5,231.5 303.5,271.5C 300.833,271.5 298.167,271.5 295.5,271.5C 295.5,274.167 295.5,276.833 295.5,279.5C 292.833,279.5 290.167,279.5 287.5,279.5C 287.5,282.167 287.5,284.833 287.5,287.5C 284.833,287.5 282.167,287.5 279.5,287.5C 279.5,290.167 279.5,292.833 279.5,295.5C 263.5,295.5 247.5,295.5 231.5,295.5C 231.5,292.833 231.5,290.167 231.5,287.5C 228.833,287.5 226.167,287.5 223.5,287.5C 223.5,284.833 223.5,282.167 223.5,279.5C 220.833,279.5 218.167,279.5 215.5,279.5C 215.5,276.833 215.5,274.167 215.5,271.5C 212.833,271.5 210.167,271.5 207.5,271.5C 207.5,223.5 207.5,175.5 207.5,127.5C 210.167,127.5 212.833,127.5 215.5,127.5C 215.5,124.833 215.5,122.167 215.5,119.5C 220.833,119.5 226.167,119.5 231.5,119.5C 231.5,116.833 231.5,114.167 231.5,111.5 Z"/></g>
<g><path style="opacity:1" fill="#d8e6f6" d="M 263.5,111.5 C 268.833,111.5 274.167,111.5 279.5,111.5C 279.5,114.167 279.5,116.833 279.5,119.5C 274.167,119.5 268.833,119.5 263.5,119.5C 263.5,116.833 263.5,114.167 263.5,111.5 Z"/></g>
<g><path style="opacity:1" fill="#83a9bf" d="M 279.5,111.5 C 284.833,111.5 290.167,111.5 295.5,111.5C 295.5,114.167 295.5,116.833 295.5,119.5C 290.167,119.5 284.833,119.5 279.5,119.5C 279.5,116.833 279.5,114.167 279.5,111.5 Z"/></g>
<g><path style="opacity:1" fill="#83a9bf" d="M 215.5,119.5 C 215.5,122.167 215.5,124.833 215.5,127.5C 212.833,127.5 210.167,127.5 207.5,127.5C 207.5,124.833 207.5,122.167 207.5,119.5C 210.167,119.5 212.833,119.5 215.5,119.5 Z"/></g>
<g><path style="opacity:1" fill="#d8e6f6" d="M 279.5,119.5 C 284.833,119.5 290.167,119.5 295.5,119.5C 295.5,122.167 295.5,124.833 295.5,127.5C 290.167,127.5 284.833,127.5 279.5,127.5C 279.5,124.833 279.5,122.167 279.5,119.5 Z"/></g>
<g><path style="opacity:1" fill="#83a9bf" d="M 295.5,119.5 C 298.167,119.5 300.833,119.5 303.5,119.5C 303.5,122.167 303.5,124.833 303.5,127.5C 300.833,127.5 298.167,127.5 295.5,127.5C 295.5,124.833 295.5,122.167 295.5,119.5 Z"/></g>
<g><path style="opacity:0.996" fill="#84a9c0" d="M 207.5,127.5 C 207.5,175.5 207.5,223.5 207.5,271.5C 210.167,271.5 212.833,271.5 215.5,271.5C 215.5,274.167 215.5,276.833 215.5,279.5C 218.167,279.5 220.833,279.5 223.5,279.5C 223.5,282.167 223.5,284.833 223.5,287.5C 226.167,287.5 228.833,287.5 231.5,287.5C 231.5,290.167 231.5,292.833 231.5,295.5C 247.5,295.5 263.5,295.5 279.5,295.5C 279.5,292.833 279.5,290.167 279.5,287.5C 282.167,287.5 284.833,287.5 287.5,287.5C 287.5,284.833 287.5,282.167 287.5,279.5C 290.167,279.5 292.833,279.5 295.5,279.5C 295.5,276.833 295.5,274.167 295.5,271.5C 298.167,271.5 300.833,271.5 303.5,271.5C 303.5,231.5 303.5,191.5 303.5,151.5C 303.5,143.5 303.5,135.5 303.5,127.5C 306.167,127.5 308.833,127.5 311.5,127.5C 311.5,178.167 311.5,228.833 311.5,279.5C 308.833,279.5 306.167,279.5 303.5,279.5C 303.5,282.167 303.5,284.833 303.5,287.5C 300.833,287.5 298.167,287.5 295.5,287.5C 295.5,290.167 295.5,292.833 295.5,295.5C 292.833,295.5 290.167,295.5 287.5,295.5C 287.5,298.167 287.5,300.833 287.5,303.5C 266.167,303.5 244.833,303.5 223.5,303.5C 223.5,300.833 223.5,298.167 223.5,295.5C 220.833,295.5 218.167,295.5 215.5,295.5C 215.5,292.833 215.5,290.167 215.5,287.5C 212.833,287.5 210.167,287.5 207.5,287.5C 207.5,284.833 207.5,282.167 207.5,279.5C 204.833,279.5 202.167,279.5 199.5,279.5C 199.5,228.833 199.5,178.167 199.5,127.5C 202.167,127.5 204.833,127.5 207.5,127.5 Z"/></g>
<g><path style="opacity:1" fill="#d8e6f6" d="M 239.5,127.5 C 242.167,127.5 244.833,127.5 247.5,127.5C 247.5,130.167 247.5,132.833 247.5,135.5C 244.833,135.5 242.167,135.5 239.5,135.5C 239.5,132.833 239.5,130.167 239.5,127.5 Z"/></g>
<g><path style="opacity:1" fill="#d8e6f6" d="M 255.5,127.5 C 260.833,127.5 266.167,127.5 271.5,127.5C 271.5,130.167 271.5,132.833 271.5,135.5C 276.833,135.5 282.167,135.5 287.5,135.5C 287.5,138.167 287.5,140.833 287.5,143.5C 279.5,143.5 271.5,143.5 263.5,143.5C 263.5,140.833 263.5,138.167 263.5,135.5C 260.833,135.5 258.167,135.5 255.5,135.5C 255.5,132.833 255.5,130.167 255.5,127.5 Z"/></g>
<g><path style="opacity:1" fill="#d8e6f6" d="M 295.5,127.5 C 298.167,127.5 300.833,127.5 303.5,127.5C 303.5,135.5 303.5,143.5 303.5,151.5C 300.833,151.5 298.167,151.5 295.5,151.5C 295.5,143.5 295.5,135.5 295.5,127.5 Z"/></g>
<g><path style="opacity:1" fill="#31325f" d="M 247.5,159.5 C 250.167,159.5 252.833,159.5 255.5,159.5C 255.5,170.167 255.5,180.833 255.5,191.5C 252.833,191.5 250.167,191.5 247.5,191.5C 247.5,180.833 247.5,170.167 247.5,159.5 Z"/></g>
<g><path style="opacity:1" fill="#31325f" d="M 279.5,159.5 C 282.167,159.5 284.833,159.5 287.5,159.5C 287.5,170.167 287.5,180.833 287.5,191.5C 284.833,191.5 282.167,191.5 279.5,191.5C 279.5,180.833 279.5,170.167 279.5,159.5 Z"/></g>
<g><path style="opacity:1" fill="#84a1c4" d="M 215.5,215.5 C 218.167,215.5 220.833,215.5 223.5,215.5C 223.5,228.833 223.5,242.167 223.5,255.5C 226.167,255.5 228.833,255.5 231.5,255.5C 231.5,258.167 231.5,260.833 231.5,263.5C 234.167,263.5 236.833,263.5 239.5,263.5C 239.5,266.167 239.5,268.833 239.5,271.5C 242.167,271.5 244.833,271.5 247.5,271.5C 247.5,274.167 247.5,276.833 247.5,279.5C 250.167,279.5 252.833,279.5 255.5,279.5C 255.5,282.167 255.5,284.833 255.5,287.5C 250.167,287.5 244.833,287.5 239.5,287.5C 239.5,284.833 239.5,282.167 239.5,279.5C 236.833,279.5 234.167,279.5 231.5,279.5C 231.5,276.833 231.5,274.167 231.5,271.5C 228.833,271.5 226.167,271.5 223.5,271.5C 223.5,268.833 223.5,266.167 223.5,263.5C 220.833,263.5 218.167,263.5 215.5,263.5C 215.5,247.5 215.5,231.5 215.5,215.5 Z"/></g></symbol>

<symbol id="slime-jump-1" width="512px" height="512px" style="shape-rendering:geometricPrecision; text-rendering:geometricPrecision; image-rendering:optimizeQuality; fill-rule:evenodd; clip-rule:evenodd">
<g><path style="opacity:1" fill="#83a9bf" d="M 215.5,199.5 C 242.167,199.5 268.833,199.5 295.5,199.5C 295.5,202.167 295.5,204.833 295.5,207.5C 298.167,207.5 300.833,207.5 303.5,207.5C 303.5,210.167 303.5,212.833 303.5,215.5C 306.167,215.5 308.833,215.5 311.5,215.5C 311.5,220.833 311.5,226.167 311.5,231.5C 314.167,231.5 316.833,231.5 319.5,231.5C 319.5,266.167 319.5,300.833 319.5,335.5C 316.833,335.5 314.167,335.5 311.5,335.5C 311.5,340.833 311.5,346.167 311.5,351.5C 308.833,351.5 306.167,351.5 303.5,351.5C 303.5,354.167 303.5,356.833 303.5,359.5C 300.833,359.5 298.167,359.5 295.5,359.5C 295.5,362.167 295.5,364.833 295.5,367.5C 268.833,367.5 242.167,367.5 215.5,367.5C 215.5,364.833 215.5,362.167 215.5,359.5C 212.833,359.5 210.167,359.5 207.5,359.5C 207.5,356.833 207.5,354.167 207.5,351.5C 204.833,351.5 202.167,351.5 199.5,351.5C 199.5,346.167 199.5,340.833 199.5,335.5C 196.833,335.5 194.167,335.5 191.5,335.5C 191.5,300.833 191.5,266.167 191.5,231.5C 194.167,231.5 196.833,231.5 199.5,231.5C 199.5,226.167 199.5,220.833 199.5,215.5C 202.167,215.5 204.833,215.5 207.5,215.5C 207.5,212.833 207.5,210.167 207.5,207.5C 210.167,207.5 212.833,207.5 215.5,207.5C 215.5,204.833 215.5,202.167 215.5,199.5 Z"/></g>
<g><path style="opacity:1" fill="#a3c3eb" d="M 271.5,207.5 C 271.5,210.167 271.5,212.833 271.5,215.5C 276.833,215.5 282.167,215.5 287.5,215.5C 287.5,218.167 287.5,220.833 287.5,223.5C 290.167,223.5 292.833,223.5 295.5,223.5C 295.5,228.833 295.5,234.167 295.5,239.5C 298.167,239.5 300.833,239.5 303.5,239.5C 303.5,242.167 303.5,244.833 303.5,247.5C 306.167,247.5 308.833,247.5 311.5,247.5C 311.5,274.167 311.5,300.833 311.5,327.5C 308.833,327.5 306.167,327.5 303.5,327.5C 303.5,332.833 303.5,338.167 303.5,343.5C 300.833,343.5 298.167,343.5 295.5,343.5C 295.5,346.167 295.5,348.833 295.5,351.5C 292.833,351.5 290.167,351.5 287.5,351.5C 287.5,354.167 287.5,356.833 287.5,359.5C 266.167,359.5 244.833,359.5 223.5,359.5C 223.5,356.833 223.5,354.167 223.5,351.5C 220.833,351.5 218.167,351.5 215.5,351.5C 215.5,348.833 215.5,346.167 215.5,343.5C 212.833,343.5 210.167,343.5 207.5,343.5C 207.5,338.167 207.5,332.833 207.5,327.5C 204.833,327.5 202.167,327.5 199.5,327.5C 199.5,298.167 199.5,268.833 199.5,239.5C 202.167,239.5 204.833,239.5 207.5,239.5C 207.5,234.167 207.5,228.833 207.5,223.5C 210.167,223.5 212.833,223.5 215.5,223.5C 215.5,220.833 215.5,218.167 215.5,215.5C 218.167,215.5 220.833,215.5 223.5,215.5C 223.5,212.833 223.5,210.167 223.5,207.5C 239.5,207.5 255.5,207.5 271.5,207.5 Z"/></g>
<g><path style="opacity:1" fill="#d8e6f6" d="M 271.5,207.5 C 276.833,207.5 282.167,207.5 287.5,207.5C 287.5,210.167 287.5,212.833 287.5,215.5C 282.167,215.5 276.833,215.5 271.5,215.5C 271.5,212.833 271.5,210.167 271.5,207.5 Z"/></g>
<g><path style="opacity:1" fill="#d8e6f6" d="M 287.5,215.5 C 290.167,215.5 292.833,215.5 295.5,215.5C 295.5,218.167 295.5,220.833 295.5,223.5C 295.5,220.833 295.5,218.167 295.5,215.5C 292.833,215.5 290.167,215.5 287.5,215.5 Z"/></g>
<g><path style="opacity:1" fill="#d8e6f6" d="M 239.5,223.5 C 242.167,223.5 244.833,223.5 247.5,223.5C 247.5,226.167 247.5,228.833 247.5,231.5C 244.833,231.5 242.167,231.5 239.5,231.5C 239.5,228.833 239.5,226.167 239.5,223.5 Z"/></g>
<g><path style="opacity:1" fill="#d8e6f6" d="M 255.5,223.5 C 263.5,223.5 271.5,223.5 279.5,223.5C 279.5,226.167 279.5,228.833 279.5,231.5C 282.167,231.5 284.833,231.5 287.5,231.5C 287.5,234.167 287.5,236.833 287.5,239.5C 282.167,239.5 276.833,239.5 271.5,239.5C 271.5,236.833 271.5,234.167 271.5,231.5C 266.167,231.5 260.833,231.5 255.5,231.5C 255.5,228.833 255.5,226.167 255.5,223.5 Z"/></g>
<g><path style="opacity:1" fill="#d8e6f6" d="M 295.5,223.5 C 298.167,223.5 300.833,223.5 303.5,223.5C 303.5,228.833 303.5,234.167 303.5,239.5C 300.833,239.5 298.167,239.5 295.5,239.5C 295.5,234.167 295.5,228.833 295.5,223.5 Z"/></g>
<g><path style="opacity:1" fill="#d8e6f6" d="M 303.5,239.5 C 306.167,239.5 308.833,239.5 311.5,239.5C 311.5,242.167 311.5,244.833 311.5,247.5C 311.5,244.833 311.5,242.167 311.5,239.5C 308.833,239.5 306.167,239.5 303.5,239.5 Z"/></g>
<g><path style="opacity:1" fill="#31325f" d="M 247.5,247.5 C 250.167,247.5 252.833,247.5 255.5,247.5C 255.5,258.167 255.5,268.833 255.5,279.5C 252.833,279.5 250.167,279.5 247.5,279.5C 247.5,268.833 247.5,258.167 247.5,247.5 Z"/></g>
<g><path style="opacity:1" fill="#31325f" d="M 287.5,247.5 C 290.167,247.5 292.833,247.5 295.5,247.5C 295.5,258.167 295.5,268.833 295.5,279.5C 292.833,279.5 290.167,279.5 287.5,279.5C 287.5,268.833 287.5,258.167 287.5,247.5 Z"/></g>
<g><path style="opacity:1" fill="#84a1c4" d="M 207.5,327.5 C 207.5,316.833 207.5,306.167 207.5,295.5C 210.167,295.5 212.833,295.5 215.5,295.5C 215.5,300.833 215.5,306.167 215.5,311.5C 218.167,311.5 220.833,311.5 223.5,311.5C 223.5,316.833 223.5,322.167 223.5,327.5C 226.167,327.5 228.833,327.5 231.5,327.5C 231.5,330.167 231.5,332.833 231.5,335.5C 234.167,335.5 236.833,335.5 239.5,335.5C 239.5,338.167 239.5,340.833 239.5,343.5C 244.833,343.5 250.167,343.5 255.5,343.5C 255.5,346.167 255.5,348.833 255.5,351.5C 247.5,351.5 239.5,351.5 231.5,351.5C 231.5,348.833 231.5,346.167 231.5,343.5C 228.833,343.5 226.167,343.5 223.5,343.5C 223.5,340.833 223.5,338.167 223.5,335.5C 220.833,335.5 218.167,335.5 215.5,335.5C 215.5,332.833 215.5,330.167 215.5,327.5C 212.833,327.5 210.167,327.5 207.5,327.5 Z"/></g>
<g><path style="opacity:1" fill="#546181" d="M 231.5,479.5 C 247.5,479.5 263.5,479.5 279.5,479.5C 279.5,482.167 279.5,484.833 279.5,487.5C 274.167,487.5 268.833,487.5 263.5,487.5C 263.5,490.167 263.5,492.833 263.5,495.5C 258.167,495.5 252.833,495.5 247.5,495.5C 247.5,492.833 247.5,490.167 247.5,487.5C 242.167,487.5 236.833,487.5 231.5,487.5C 231.5,484.833 231.5,482.167 231.5,479.5 Z"/></g></symbol>

<symbol id="slime-jump-0" width="512px" height="512px" style="shape-rendering:geometricPrecision; text-rendering:geometricPrecision; image-rendering:optimizeQuality; fill-rule:evenodd; clip-rule:evenodd">
<g><path style="opacity:1" fill="#83a9bf" d="M 287.5,327.5 C 284.833,327.5 282.167,327.5 279.5,327.5C 260.833,327.5 242.167,327.5 223.5,327.5C 223.5,324.833 223.5,322.167 223.5,319.5C 244.833,319.5 266.167,319.5 287.5,319.5C 287.5,322.167 287.5,324.833 287.5,327.5 Z"/></g>
<g><path style="opacity:1" fill="#83a9bf" d="M 223.5,327.5 C 223.5,330.167 223.5,332.833 223.5,335.5C 218.167,335.5 212.833,335.5 207.5,335.5C 207.5,332.833 207.5,330.167 207.5,327.5C 212.833,327.5 218.167,327.5 223.5,327.5 Z"/></g>
<g><path style="opacity:1" fill="#a3c3eb" d="M 223.5,327.5 C 242.167,327.5 260.833,327.5 279.5,327.5C 279.5,330.167 279.5,332.833 279.5,335.5C 282.167,335.5 284.833,335.5 287.5,335.5C 287.5,338.167 287.5,340.833 287.5,343.5C 292.833,343.5 298.167,343.5 303.5,343.5C 303.5,346.167 303.5,348.833 303.5,351.5C 306.167,351.5 308.833,351.5 311.5,351.5C 311.5,356.833 311.5,362.167 311.5,367.5C 314.167,367.5 316.833,367.5 319.5,367.5C 319.5,370.167 319.5,372.833 319.5,375.5C 322.167,375.5 324.833,375.5 327.5,375.5C 327.5,402.167 327.5,428.833 327.5,455.5C 324.833,455.5 322.167,455.5 319.5,455.5C 319.5,458.167 319.5,460.833 319.5,463.5C 316.833,463.5 314.167,463.5 311.5,463.5C 311.5,466.167 311.5,468.833 311.5,471.5C 274.167,471.5 236.833,471.5 199.5,471.5C 199.5,468.833 199.5,466.167 199.5,463.5C 196.833,463.5 194.167,463.5 191.5,463.5C 191.5,460.833 191.5,458.167 191.5,455.5C 188.833,455.5 186.167,455.5 183.5,455.5C 183.5,426.167 183.5,396.833 183.5,367.5C 186.167,367.5 188.833,367.5 191.5,367.5C 191.5,362.167 191.5,356.833 191.5,351.5C 194.167,351.5 196.833,351.5 199.5,351.5C 199.5,348.833 199.5,346.167 199.5,343.5C 202.167,343.5 204.833,343.5 207.5,343.5C 207.5,340.833 207.5,338.167 207.5,335.5C 212.833,335.5 218.167,335.5 223.5,335.5C 223.5,332.833 223.5,330.167 223.5,327.5 Z"/></g>
<g><path style="opacity:1" fill="#d8e6f6" d="M 279.5,327.5 C 282.167,327.5 284.833,327.5 287.5,327.5C 287.5,330.167 287.5,332.833 287.5,335.5C 284.833,335.5 282.167,335.5 279.5,335.5C 279.5,332.833 279.5,330.167 279.5,327.5 Z"/></g>
<g><path style="opacity:1" fill="#83a9bf" d="M 287.5,327.5 C 292.833,327.5 298.167,327.5 303.5,327.5C 303.5,330.167 303.5,332.833 303.5,335.5C 298.167,335.5 292.833,335.5 287.5,335.5C 287.5,332.833 287.5,330.167 287.5,327.5 Z"/></g>
<g><path style="opacity:1" fill="#83a9bf" d="M 207.5,335.5 C 207.5,338.167 207.5,340.833 207.5,343.5C 204.833,343.5 202.167,343.5 199.5,343.5C 199.5,340.833 199.5,338.167 199.5,335.5C 202.167,335.5 204.833,335.5 207.5,335.5 Z"/></g>
<g><path style="opacity:1" fill="#d8e6f6" d="M 287.5,335.5 C 292.833,335.5 298.167,335.5 303.5,335.5C 303.5,338.167 303.5,340.833 303.5,343.5C 298.167,343.5 292.833,343.5 287.5,343.5C 287.5,340.833 287.5,338.167 287.5,335.5 Z"/></g>
<g><path style="opacity:1" fill="#83a9bf" d="M 303.5,335.5 C 306.167,335.5 308.833,335.5 311.5,335.5C 311.5,338.167 311.5,340.833 311.5,343.5C 308.833,343.5 306.167,343.5 303.5,343.5C 303.5,340.833 303.5,338.167 303.5,335.5 Z"/></g>
<g><path style="opacity:1" fill="#83a9bf" d="M 199.5,343.5 C 199.5,346.167 199.5,348.833 199.5,351.5C 196.833,351.5 194.167,351.5 191.5,351.5C 191.5,348.833 191.5,346.167 191.5,343.5C 194.167,343.5 196.833,343.5 199.5,343.5 Z"/></g>
<g><path style="opacity:1" fill="#d8e6f6" d="M 239.5,343.5 C 242.167,343.5 244.833,343.5 247.5,343.5C 247.5,346.167 247.5,348.833 247.5,351.5C 244.833,351.5 242.167,351.5 239.5,351.5C 239.5,348.833 239.5,346.167 239.5,343.5 Z"/></g>
<g><path style="opacity:1" fill="#d8e6f6" d="M 255.5,343.5 C 263.5,343.5 271.5,343.5 279.5,343.5C 279.5,346.167 279.5,348.833 279.5,351.5C 282.167,351.5 284.833,351.5 287.5,351.5C 287.5,354.167 287.5,356.833 287.5,359.5C 282.167,359.5 276.833,359.5 271.5,359.5C 271.5,356.833 271.5,354.167 271.5,351.5C 266.167,351.5 260.833,351.5 255.5,351.5C 255.5,348.833 255.5,346.167 255.5,343.5 Z"/></g>
<g><path style="opacity:1" fill="#d8e6f6" d="M 303.5,343.5 C 306.167,343.5 308.833,343.5 311.5,343.5C 311.5,346.167 311.5,348.833 311.5,351.5C 308.833,351.5 306.167,351.5 303.5,351.5C 303.5,348.833 303.5,346.167 303.5,343.5 Z"/></g>
<g><path style="opacity:1" fill="#83a9bf" d="M 311.5,343.5 C 314.167,343.5 316.833,343.5 319.5,343.5C 319.5,346.167 319.5,348.833 319.5,351.5C 316.833,351.5 314.167,351.5 311.5,351.5C 311.5,348.833 311.5,346.167 311.5,343.5 Z"/></g>
<g><path style="opacity:1" fill="#83a9bf" d="M 191.5,351.5 C 191.5,356.833 191.5,362.167 191.5,367.5C 188.833,367.5 186.167,367.5 183.5,367.5C 183.5,362.167 183.5,356.833 183.5,351.5C 186.167,351.5 188.833,351.5 191.5,351.5 Z"/></g>
<g><path style="opacity:1" fill="#d8e6f6" d="M 311.5,351.5 C 314.167,351.5 316.833,351.5 319.5,351.5C 319.5,356.833 319.5,362.167 319.5,367.5C 316.833,367.5 314.167,367.5 311.5,367.5C 311.5,362.167 311.5,356.833 311.5,351.5 Z"/></g>
<g><path style="opacity:1" fill="#83a9bf" d="M 319.5,351.5 C 322.167,351.5 324.833,351.5 327.5,351.5C 327.5,356.833 327.5,362.167 327.5,367.5C 324.833,367.5 322.167,367.5 319.5,367.5C 319.5,362.167 319.5,356.833 319.5,351.5 Z"/></g>
<g><path style="opacity:1" fill="#83a9bf" d="M 183.5,367.5 C 183.5,396.833 183.5,426.167 183.5,455.5C 186.167,455.5 188.833,455.5 191.5,455.5C 191.5,458.167 191.5,460.833 191.5,463.5C 194.167,463.5 196.833,463.5 199.5,463.5C 199.5,466.167 199.5,468.833 199.5,471.5C 194.167,471.5 188.833,471.5 183.5,471.5C 183.5,468.833 183.5,466.167 183.5,463.5C 180.833,463.5 178.167,463.5 175.5,463.5C 175.5,431.5 175.5,399.5 175.5,367.5C 178.167,367.5 180.833,367.5 183.5,367.5 Z"/></g>
<g><path style="opacity:1" fill="#d8e6f6" d="M 319.5,367.5 C 322.167,367.5 324.833,367.5 327.5,367.5C 327.5,370.167 327.5,372.833 327.5,375.5C 324.833,375.5 322.167,375.5 319.5,375.5C 319.5,372.833 319.5,370.167 319.5,367.5 Z"/></g>
<g><path style="opacity:1" fill="#83a9bf" d="M 327.5,367.5 C 330.167,367.5 332.833,367.5 335.5,367.5C 335.5,399.5 335.5,431.5 335.5,463.5C 332.833,463.5 330.167,463.5 327.5,463.5C 327.5,466.167 327.5,468.833 327.5,471.5C 322.167,471.5 316.833,471.5 311.5,471.5C 311.5,468.833 311.5,466.167 311.5,463.5C 314.167,463.5 316.833,463.5 319.5,463.5C 319.5,460.833 319.5,458.167 319.5,455.5C 322.167,455.5 324.833,455.5 327.5,455.5C 327.5,428.833 327.5,402.167 327.5,375.5C 327.5,372.833 327.5,370.167 327.5,367.5 Z"/></g>
<g><path style="opacity:1" fill="#31325f" d="M 247.5,375.5 C 250.167,375.5 252.833,375.5 255.5,375.5C 255.5,386.167 255.5,396.833 255.5,407.5C 252.833,407.5 250.167,407.5 247.5,407.5C 247.5,396.833 247.5,386.167 247.5,375.5 Z"/></g>
<g><path style="opacity:1" fill="#31325f" d="M 287.5,375.5 C 290.167,375.5 292.833,375.5 295.5,375.5C 295.5,386.167 295.5,396.833 295.5,407.5C 292.833,407.5 290.167,407.5 287.5,407.5C 287.5,396.833 287.5,386.167 287.5,375.5 Z"/></g>
<g><path style="opacity:1" fill="#84a1c4" d="M 191.5,415.5 C 194.167,415.5 196.833,415.5 199.5,415.5C 199.5,420.833 199.5,426.167 199.5,431.5C 202.167,431.5 204.833,431.5 207.5,431.5C 207.5,434.167 207.5,436.833 207.5,439.5C 210.167,439.5 212.833,439.5 215.5,439.5C 215.5,442.167 215.5,444.833 215.5,447.5C 218.167,447.5 220.833,447.5 223.5,447.5C 223.5,450.167 223.5,452.833 223.5,455.5C 228.833,455.5 234.167,455.5 239.5,455.5C 239.5,458.167 239.5,460.833 239.5,463.5C 228.833,463.5 218.167,463.5 207.5,463.5C 207.5,460.833 207.5,458.167 207.5,455.5C 204.833,455.5 202.167,455.5 199.5,455.5C 199.5,452.833 199.5,450.167 199.5,447.5C 196.833,447.5 194.167,447.5 191.5,447.5C 191.5,436.833 191.5,426.167 191.5,415.5 Z"/></g>
<g><path style="opacity:1" fill="#83a9bf" d="M 199.5,471.5 C 236.833,471.5 274.167,471.5 311.5,471.5C 311.5,474.167 311.5,476.833 311.5,479.5C 274.167,479.5 236.833,479.5 199.5,479.5C 199.5,476.833 199.5,474.167 199.5,471.5 Z"/></g>
<g><path style="opacity:1" fill="#546181" d="M 199.5,479.5 C 236.833,479.5 274.167,479.5 311.5,479.5C 314.167,479.5 316.833,479.5 319.5,479.5C 319.5,482.167 319.5,484.833 319.5,487.5C 308.833,487.5 298.167,487.5 287.5,487.5C 287.5,490.167 287.5,492.833 287.5,495.5C 266.167,495.5 244.833,495.5 223.5,495.5C 223.5,492.833 223.5,490.167 223.5,487.5C 212.833,487.5 202.167,487.5 191.5,487.5C 191.5,484.833 191.5,482.167 191.5,479.5C 194.167,479.5 196.833,479.5 199.5,479.5 Z"/></g></symbol>

<symbol id="slime-jump-11" width="512px" height="512px" style="shape-rendering:geometricPrecision; text-rendering:geometricPrecision; image-rendering:optimizeQuality; fill-rule:evenodd; clip-rule:evenodd">
<g><path style="opacity:1" fill="#83a9bf" d="M 335.5,375.5 C 327.5,375.5 319.5,375.5 311.5,375.5C 311.5,372.833 311.5,370.167 311.5,367.5C 306.167,367.5 300.833,367.5 295.5,367.5C 263.5,367.5 231.5,367.5 199.5,367.5C 199.5,370.167 199.5,372.833 199.5,375.5C 191.5,375.5 183.5,375.5 175.5,375.5C 175.5,372.833 175.5,370.167 175.5,367.5C 180.833,367.5 186.167,367.5 191.5,367.5C 191.5,364.833 191.5,362.167 191.5,359.5C 234.167,359.5 276.833,359.5 319.5,359.5C 319.5,362.167 319.5,364.833 319.5,367.5C 324.833,367.5 330.167,367.5 335.5,367.5C 335.5,370.167 335.5,372.833 335.5,375.5 Z"/></g>
<g><path style="opacity:1" fill="#a3c3eb" d="M 295.5,367.5 C 295.5,370.167 295.5,372.833 295.5,375.5C 300.833,375.5 306.167,375.5 311.5,375.5C 311.5,378.167 311.5,380.833 311.5,383.5C 319.5,383.5 327.5,383.5 335.5,383.5C 335.5,386.167 335.5,388.833 335.5,391.5C 340.833,391.5 346.167,391.5 351.5,391.5C 351.5,394.167 351.5,396.833 351.5,399.5C 354.167,399.5 356.833,399.5 359.5,399.5C 359.5,402.167 359.5,404.833 359.5,407.5C 362.167,407.5 364.833,407.5 367.5,407.5C 367.5,423.5 367.5,439.5 367.5,455.5C 364.833,455.5 362.167,455.5 359.5,455.5C 359.5,458.167 359.5,460.833 359.5,463.5C 354.167,463.5 348.833,463.5 343.5,463.5C 343.5,466.167 343.5,468.833 343.5,471.5C 284.833,471.5 226.167,471.5 167.5,471.5C 167.5,468.833 167.5,466.167 167.5,463.5C 162.167,463.5 156.833,463.5 151.5,463.5C 151.5,460.833 151.5,458.167 151.5,455.5C 148.833,455.5 146.167,455.5 143.5,455.5C 143.5,436.833 143.5,418.167 143.5,399.5C 146.167,399.5 148.833,399.5 151.5,399.5C 151.5,396.833 151.5,394.167 151.5,391.5C 154.167,391.5 156.833,391.5 159.5,391.5C 159.5,388.833 159.5,386.167 159.5,383.5C 164.833,383.5 170.167,383.5 175.5,383.5C 175.5,380.833 175.5,378.167 175.5,375.5C 183.5,375.5 191.5,375.5 199.5,375.5C 199.5,372.833 199.5,370.167 199.5,367.5C 231.5,367.5 263.5,367.5 295.5,367.5 Z"/></g>
<g><path style="opacity:1" fill="#d8e6f6" d="M 295.5,367.5 C 300.833,367.5 306.167,367.5 311.5,367.5C 311.5,370.167 311.5,372.833 311.5,375.5C 306.167,375.5 300.833,375.5 295.5,375.5C 295.5,372.833 295.5,370.167 295.5,367.5 Z"/></g>
<g><path style="opacity:1" fill="#83a9bf" d="M 175.5,375.5 C 175.5,378.167 175.5,380.833 175.5,383.5C 170.167,383.5 164.833,383.5 159.5,383.5C 159.5,380.833 159.5,378.167 159.5,375.5C 164.833,375.5 170.167,375.5 175.5,375.5 Z"/></g>
<g><path style="opacity:1" fill="#d8e6f6" d="M 311.5,375.5 C 319.5,375.5 327.5,375.5 335.5,375.5C 335.5,378.167 335.5,380.833 335.5,383.5C 327.5,383.5 319.5,383.5 311.5,383.5C 311.5,380.833 311.5,378.167 311.5,375.5 Z"/></g>
<g><path style="opacity:1" fill="#83a9bf" d="M 335.5,375.5 C 340.833,375.5 346.167,375.5 351.5,375.5C 351.5,378.167 351.5,380.833 351.5,383.5C 346.167,383.5 340.833,383.5 335.5,383.5C 335.5,380.833 335.5,378.167 335.5,375.5 Z"/></g>
<g><path style="opacity:1" fill="#83a9bf" d="M 159.5,383.5 C 159.5,386.167 159.5,388.833 159.5,391.5C 156.833,391.5 154.167,391.5 151.5,391.5C 151.5,388.833 151.5,386.167 151.5,383.5C 154.167,383.5 156.833,383.5 159.5,383.5 Z"/></g>
<g><path style="opacity:1" fill="#d8e6f6" d="M 255.5,383.5 C 258.167,383.5 260.833,383.5 263.5,383.5C 263.5,386.167 263.5,388.833 263.5,391.5C 260.833,391.5 258.167,391.5 255.5,391.5C 255.5,388.833 255.5,386.167 255.5,383.5 Z"/></g>
<g><path style="opacity:1" fill="#d8e6f6" d="M 271.5,383.5 C 282.167,383.5 292.833,383.5 303.5,383.5C 303.5,386.167 303.5,388.833 303.5,391.5C 308.833,391.5 314.167,391.5 319.5,391.5C 319.5,394.167 319.5,396.833 319.5,399.5C 311.5,399.5 303.5,399.5 295.5,399.5C 295.5,396.833 295.5,394.167 295.5,391.5C 287.5,391.5 279.5,391.5 271.5,391.5C 271.5,388.833 271.5,386.167 271.5,383.5 Z"/></g>
<g><path style="opacity:1" fill="#d8e6f6" d="M 335.5,383.5 C 340.833,383.5 346.167,383.5 351.5,383.5C 351.5,386.167 351.5,388.833 351.5,391.5C 346.167,391.5 340.833,391.5 335.5,391.5C 335.5,388.833 335.5,386.167 335.5,383.5 Z"/></g>
<g><path style="opacity:1" fill="#83a9bf" d="M 351.5,383.5 C 354.167,383.5 356.833,383.5 359.5,383.5C 359.5,386.167 359.5,388.833 359.5,391.5C 356.833,391.5 354.167,391.5 351.5,391.5C 351.5,388.833 351.5,386.167 351.5,383.5 Z"/></g>
<g><path style="opacity:1" fill="#83a9bf" d="M 151.5,391.5 C 151.5,394.167 151.5,396.833 151.5,399.5C 148.833,399.5 146.167,399.5 143.5,399.5C 143.5,396.833 143.5,394.167 143.5,391.5C 146.167,391.5 148.833,391.5 151.5,391.5 Z"/></g>
<g><path style="opacity:1" fill="#d8e6f6" d="M 351.5,391.5 C 354.167,391.5 356.833,391.5 359.5,391.5C 359.5,394.167 359.5,396.833 359.5,399.5C 356.833,399.5 354.167,399.5 351.5,399.5C 351.5,396.833 351.5,394.167 351.5,391.5 Z"/></g>
<g><path style="opacity:1" fill="#83a9bf" d="M 359.5,391.5 C 362.167,391.5 364.833,391.5 367.5,391.5C 367.5,394.167 367.5,396.833 367.5,399.5C 364.833,399.5 362.167,399.5 359.5,399.5C 359.5,396.833 359.5,394.167 359.5,391.5 Z"/></g>
<g><path style="opacity:1" fill="#83a9bf" d="M 143.5,399.5 C 143.5,418.167 143.5,436.833 143.5,455.5C 140.833,455.5 138.167,455.5 135.5,455.5C 135.5,436.833 135.5,418.167 135.5,399.5C 138.167,399.5 140.833,399.5 143.5,399.5 Z"/></g>
<g><path style="opacity:1" fill="#d8e6f6" d="M 359.5,399.5 C 362.167,399.5 364.833,399.5 367.5,399.5C 367.5,402.167 367.5,404.833 367.5,407.5C 364.833,407.5 362.167,407.5 359.5,407.5C 359.5,404.833 359.5,402.167 359.5,399.5 Z"/></g>
<g><path style="opacity:1" fill="#83a9bf" d="M 367.5,399.5 C 370.167,399.5 372.833,399.5 375.5,399.5C 375.5,418.167 375.5,436.833 375.5,455.5C 372.833,455.5 370.167,455.5 367.5,455.5C 367.5,439.5 367.5,423.5 367.5,407.5C 367.5,404.833 367.5,402.167 367.5,399.5 Z"/></g>
<g><path style="opacity:1" fill="#31325f" d="M 247.5,407.5 C 250.167,407.5 252.833,407.5 255.5,407.5C 255.5,415.5 255.5,423.5 255.5,431.5C 252.833,431.5 250.167,431.5 247.5,431.5C 247.5,423.5 247.5,415.5 247.5,407.5 Z"/></g>
<g><path style="opacity:1" fill="#31325f" d="M 319.5,407.5 C 322.167,407.5 324.833,407.5 327.5,407.5C 327.5,415.5 327.5,423.5 327.5,431.5C 324.833,431.5 322.167,431.5 319.5,431.5C 319.5,423.5 319.5,415.5 319.5,407.5 Z"/></g>
<g><path style="opacity:1" fill="#84a1c4" d="M 151.5,423.5 C 154.167,423.5 156.833,423.5 159.5,423.5C 159.5,428.833 159.5,434.167 159.5,439.5C 162.167,439.5 164.833,439.5 167.5,439.5C 167.5,442.167 167.5,444.833 167.5,447.5C 175.5,447.5 183.5,447.5 191.5,447.5C 191.5,450.167 191.5,452.833 191.5,455.5C 199.5,455.5 207.5,455.5 215.5,455.5C 215.5,458.167 215.5,460.833 215.5,463.5C 202.167,463.5 188.833,463.5 175.5,463.5C 175.5,460.833 175.5,458.167 175.5,455.5C 170.167,455.5 164.833,455.5 159.5,455.5C 159.5,452.833 159.5,450.167 159.5,447.5C 156.833,447.5 154.167,447.5 151.5,447.5C 151.5,439.5 151.5,431.5 151.5,423.5 Z"/></g>
<g><path style="opacity:1" fill="#83a9bf" d="M 143.5,455.5 C 146.167,455.5 148.833,455.5 151.5,455.5C 151.5,458.167 151.5,460.833 151.5,463.5C 156.833,463.5 162.167,463.5 167.5,463.5C 167.5,466.167 167.5,468.833 167.5,471.5C 226.167,471.5 284.833,471.5 343.5,471.5C 343.5,468.833 343.5,466.167 343.5,463.5C 348.833,463.5 354.167,463.5 359.5,463.5C 359.5,460.833 359.5,458.167 359.5,455.5C 362.167,455.5 364.833,455.5 367.5,455.5C 367.5,460.833 367.5,466.167 367.5,471.5C 362.167,471.5 356.833,471.5 351.5,471.5C 351.5,474.167 351.5,476.833 351.5,479.5C 287.5,479.5 223.5,479.5 159.5,479.5C 159.5,476.833 159.5,474.167 159.5,471.5C 154.167,471.5 148.833,471.5 143.5,471.5C 143.5,466.167 143.5,460.833 143.5,455.5 Z"/></g>
<g><path style="opacity:1" fill="#546181" d="M 159.5,479.5 C 223.5,479.5 287.5,479.5 351.5,479.5C 354.167,479.5 356.833,479.5 359.5,479.5C 359.5,482.167 359.5,484.833 359.5,487.5C 346.167,487.5 332.833,487.5 319.5,487.5C 319.5,490.167 319.5,492.833 319.5,495.5C 276.833,495.5 234.167,495.5 191.5,495.5C 191.5,492.833 191.5,490.167 191.5,487.5C 178.167,487.5 164.833,487.5 151.5,487.5C 151.5,484.833 151.5,482.167 151.5,479.5C 154.167,479.5 156.833,479.5 159.5,479.5 Z"/></g></symbol>

<symbol id="slime-jump-10" width="512px" height="512px" style="shape-rendering:geometricPrecision; text-rendering:geometricPrecision; image-rendering:optimizeQuality; fill-rule:evenodd; clip-rule:evenodd">
<g><path style="opacity:1" fill="#83a9bf" d="M 287.5,327.5 C 284.833,327.5 282.167,327.5 279.5,327.5C 260.833,327.5 242.167,327.5 223.5,327.5C 223.5,324.833 223.5,322.167 223.5,319.5C 244.833,319.5 266.167,319.5 287.5,319.5C 287.5,322.167 287.5,324.833 287.5,327.5 Z"/></g>
<g><path style="opacity:1" fill="#83a9bf" d="M 223.5,327.5 C 223.5,330.167 223.5,332.833 223.5,335.5C 218.167,335.5 212.833,335.5 207.5,335.5C 207.5,332.833 207.5,330.167 207.5,327.5C 212.833,327.5 218.167,327.5 223.5,327.5 Z"/></g>
<g><path style="opacity:1" fill="#a3c3eb" d="M 223.5,327.5 C 242.167,327.5 260.833,327.5 279.5,327.5C 279.5,330.167 279.5,332.833 279.5,335.5C 282.167,335.5 284.833,335.5 287.5,335.5C 287.5,338.167 287.5,340.833 287.5,343.5C 292.833,343.5 298.167,343.5 303.5,343.5C 303.5,346.167 303.5,348.833 303.5,351.5C 306.167,351.5 308.833,351.5 311.5,351.5C 311.5,356.833 311.5,362.167 311.5,367.5C 314.167,367.5 316.833,367.5 319.5,367.5C 319.5,370.167 319.5,372.833 319.5,375.5C 322.167,375.5 324.833,375.5 327.5,375.5C 327.5,394.167 327.5,412.833 327.5,431.5C 324.833,431.5 322.167,431.5 319.5,431.5C 319.5,436.833 319.5,442.167 319.5,447.5C 316.833,447.5 314.167,447.5 311.5,447.5C 311.5,450.167 311.5,452.833 311.5,455.5C 308.833,455.5 306.167,455.5 303.5,455.5C 303.5,458.167 303.5,460.833 303.5,463.5C 298.167,463.5 292.833,463.5 287.5,463.5C 287.5,466.167 287.5,468.833 287.5,471.5C 266.167,471.5 244.833,471.5 223.5,471.5C 223.5,468.833 223.5,466.167 223.5,463.5C 218.167,463.5 212.833,463.5 207.5,463.5C 207.5,460.833 207.5,458.167 207.5,455.5C 204.833,455.5 202.167,455.5 199.5,455.5C 199.5,452.833 199.5,450.167 199.5,447.5C 196.833,447.5 194.167,447.5 191.5,447.5C 191.5,442.167 191.5,436.833 191.5,431.5C 188.833,431.5 186.167,431.5 183.5,431.5C 183.5,410.167 183.5,388.833 183.5,367.5C 186.167,367.5 188.833,367.5 191.5,367.5C 191.5,362.167 191.5,356.833 191.5,351.5C 194.167,351.5 196.833,351.5 199.5,351.5C 199.5,348.833 199.5,346.167 199.5,343.5C 202.167,343.5 204.833,343.5 207.5,343.5C 207.5,340.833 207.5,338.167 207.5,335.5C 212.833,335.5 218.167,335.5 223.5,335.5C 223.5,332.833 223.5,330.167 223.5,327.5 Z"/></g>
<g><path style="opacity:1" fill="#d8e6f6" d="M 279.5,327.5 C 282.167,327.5 284.833,327.5 287.5,327.5C 287.5,330.167 287.5,332.833 287.5,335.5C 284.833,335.5 282.167,335.5 279.5,335.5C 279.5,332.833 279.5,330.167 279.5,327.5 Z"/></g>
<g><path style="opacity:1" fill="#83a9bf" d="M 287.5,327.5 C 292.833,327.5 298.167,327.5 303.5,327.5C 303.5,330.167 303.5,332.833 303.5,335.5C 298.167,335.5 292.833,335.5 287.5,335.5C 287.5,332.833 287.5,330.167 287.5,327.5 Z"/></g>
<g><path style="opacity:1" fill="#83a9bf" d="M 207.5,335.5 C 207.5,338.167 207.5,340.833 207.5,343.5C 204.833,343.5 202.167,343.5 199.5,343.5C 199.5,340.833 199.5,338.167 199.5,335.5C 202.167,335.5 204.833,335.5 207.5,335.5 Z"/></g>
<g><path style="opacity:1" fill="#d8e6f6" d="M 287.5,335.5 C 292.833,335.5 298.167,335.5 303.5,335.5C 303.5,338.167 303.5,340.833 303.5,343.5C 298.167,343.5 292.833,343.5 287.5,343.5C 287.5,340.833 287.5,338.167 287.5,335.5 Z"/></g>
<g><path style="opacity:1" fill="#83a9bf" d="M 303.5,335.5 C 306.167,335.5 308.833,335.5 311.5,335.5C 311.5,338.167 311.5,340.833 311.5,343.5C 308.833,343.5 306.167,343.5 303.5,343.5C 303.5,340.833 303.5,338.167 303.5,335.5 Z"/></g>
<g><path style="opacity:1" fill="#83a9bf" d="M 199.5,343.5 C 199.5,346.167 199.5,348.833 199.5,351.5C 196.833,351.5 194.167,351.5 191.5,351.5C 191.5,348.833 191.5,346.167 191.5,343.5C 194.167,343.5 196.833,343.5 199.5,343.5 Z"/></g>
<g><path style="opacity:1" fill="#d8e6f6" d="M 239.5,343.5 C 242.167,343.5 244.833,343.5 247.5,343.5C 247.5,346.167 247.5,348.833 247.5,351.5C 244.833,351.5 242.167,351.5 239.5,351.5C 239.5,348.833 239.5,346.167 239.5,343.5 Z"/></g>
<g><path style="opacity:1" fill="#d8e6f6" d="M 255.5,343.5 C 263.5,343.5 271.5,343.5 279.5,343.5C 279.5,346.167 279.5,348.833 279.5,351.5C 282.167,351.5 284.833,351.5 287.5,351.5C 287.5,354.167 287.5,356.833 287.5,359.5C 282.167,359.5 276.833,359.5 271.5,359.5C 271.5,356.833 271.5,354.167 271.5,351.5C 266.167,351.5 260.833,351.5 255.5,351.5C 255.5,348.833 255.5,346.167 255.5,343.5 Z"/></g>
<g><path style="opacity:1" fill="#d8e6f6" d="M 303.5,343.5 C 306.167,343.5 308.833,343.5 311.5,343.5C 311.5,346.167 311.5,348.833 311.5,351.5C 308.833,351.5 306.167,351.5 303.5,351.5C 303.5,348.833 303.5,346.167 303.5,343.5 Z"/></g>
<g><path style="opacity:1" fill="#83a9bf" d="M 311.5,343.5 C 314.167,343.5 316.833,343.5 319.5,343.5C 319.5,346.167 319.5,348.833 319.5,351.5C 316.833,351.5 314.167,351.5 311.5,351.5C 311.5,348.833 311.5,346.167 311.5,343.5 Z"/></g>
<g><path style="opacity:1" fill="#83a9bf" d="M 191.5,351.5 C 191.5,356.833 191.5,362.167 191.5,367.5C 188.833,367.5 186.167,367.5 183.5,367.5C 183.5,362.167 183.5,356.833 183.5,351.5C 186.167,351.5 188.833,351.5 191.5,351.5 Z"/></g>
<g><path style="opacity:1" fill="#d8e6f6" d="M 311.5,351.5 C 314.167,351.5 316.833,351.5 319.5,351.5C 319.5,356.833 319.5,362.167 319.5,367.5C 316.833,367.5 314.167,367.5 311.5,367.5C 311.5,362.167 311.5,356.833 311.5,351.5 Z"/></g>
<g><path style="opacity:1" fill="#83a9bf" d="M 319.5,351.5 C 322.167,351.5 324.833,351.5 327.5,351.5C 327.5,356.833 327.5,362.167 327.5,367.5C 324.833,367.5 322.167,367.5 319.5,367.5C 319.5,362.167 319.5,356.833 319.5,351.5 Z"/></g>
<g><path style="opacity:1" fill="#83a9bf" d="M 183.5,367.5 C 183.5,388.833 183.5,410.167 183.5,431.5C 180.833,431.5 178.167,431.5 175.5,431.5C 175.5,410.167 175.5,388.833 175.5,367.5C 178.167,367.5 180.833,367.5 183.5,367.5 Z"/></g>
<g><path style="opacity:1" fill="#d8e6f6" d="M 319.5,367.5 C 322.167,367.5 324.833,367.5 327.5,367.5C 327.5,370.167 327.5,372.833 327.5,375.5C 324.833,375.5 322.167,375.5 319.5,375.5C 319.5,372.833 319.5,370.167 319.5,367.5 Z"/></g>
<g><path style="opacity:1" fill="#83a9bf" d="M 327.5,367.5 C 330.167,367.5 332.833,367.5 335.5,367.5C 335.5,388.833 335.5,410.167 335.5,431.5C 332.833,431.5 330.167,431.5 327.5,431.5C 327.5,412.833 327.5,394.167 327.5,375.5C 327.5,372.833 327.5,370.167 327.5,367.5 Z"/></g>
<g><path style="opacity:1" fill="#31325f" d="M 247.5,375.5 C 250.167,375.5 252.833,375.5 255.5,375.5C 255.5,386.167 255.5,396.833 255.5,407.5C 252.833,407.5 250.167,407.5 247.5,407.5C 247.5,396.833 247.5,386.167 247.5,375.5 Z"/></g>
<g><path style="opacity:1" fill="#31325f" d="M 287.5,375.5 C 290.167,375.5 292.833,375.5 295.5,375.5C 295.5,386.167 295.5,396.833 295.5,407.5C 292.833,407.5 290.167,407.5 287.5,407.5C 287.5,396.833 287.5,386.167 287.5,375.5 Z"/></g>
<g><path style="opacity:1" fill="#84a1c4" d="M 191.5,407.5 C 194.167,407.5 196.833,407.5 199.5,407.5C 199.5,410.167 199.5,412.833 199.5,415.5C 202.167,415.5 204.833,415.5 207.5,415.5C 207.5,420.833 207.5,426.167 207.5,431.5C 210.167,431.5 212.833,431.5 215.5,431.5C 215.5,434.167 215.5,436.833 215.5,439.5C 218.167,439.5 220.833,439.5 223.5,439.5C 223.5,442.167 223.5,444.833 223.5,447.5C 228.833,447.5 234.167,447.5 239.5,447.5C 239.5,450.167 239.5,452.833 239.5,455.5C 242.167,455.5 244.833,455.5 247.5,455.5C 247.5,458.167 247.5,460.833 247.5,463.5C 242.167,463.5 236.833,463.5 231.5,463.5C 231.5,460.833 231.5,458.167 231.5,455.5C 226.167,455.5 220.833,455.5 215.5,455.5C 215.5,452.833 215.5,450.167 215.5,447.5C 212.833,447.5 210.167,447.5 207.5,447.5C 207.5,444.833 207.5,442.167 207.5,439.5C 204.833,439.5 202.167,439.5 199.5,439.5C 199.5,434.167 199.5,428.833 199.5,423.5C 196.833,423.5 194.167,423.5 191.5,423.5C 191.5,418.167 191.5,412.833 191.5,407.5 Z"/></g>
<g><path style="opacity:1" fill="#83a9bf" d="M 183.5,431.5 C 186.167,431.5 188.833,431.5 191.5,431.5C 191.5,436.833 191.5,442.167 191.5,447.5C 188.833,447.5 186.167,447.5 183.5,447.5C 183.5,442.167 183.5,436.833 183.5,431.5 Z"/></g>
<g><path style="opacity:1" fill="#83a9bf" d="M 327.5,431.5 C 327.5,436.833 327.5,442.167 327.5,447.5C 324.833,447.5 322.167,447.5 319.5,447.5C 319.5,442.167 319.5,436.833 319.5,431.5C 322.167,431.5 324.833,431.5 327.5,431.5 Z"/></g>
<g><path style="opacity:1" fill="#83a9bf" d="M 191.5,447.5 C 194.167,447.5 196.833,447.5 199.5,447.5C 199.5,450.167 199.5,452.833 199.5,455.5C 196.833,455.5 194.167,455.5 191.5,455.5C 191.5,452.833 191.5,450.167 191.5,447.5 Z"/></g>
<g><path style="opacity:1" fill="#83a9bf" d="M 319.5,447.5 C 319.5,450.167 319.5,452.833 319.5,455.5C 316.833,455.5 314.167,455.5 311.5,455.5C 311.5,452.833 311.5,450.167 311.5,447.5C 314.167,447.5 316.833,447.5 319.5,447.5 Z"/></g>
<g><path style="opacity:1" fill="#83a9bf" d="M 199.5,455.5 C 202.167,455.5 204.833,455.5 207.5,455.5C 207.5,458.167 207.5,460.833 207.5,463.5C 204.833,463.5 202.167,463.5 199.5,463.5C 199.5,460.833 199.5,458.167 199.5,455.5 Z"/></g>
<g><path style="opacity:1" fill="#83a9bf" d="M 311.5,455.5 C 311.5,458.167 311.5,460.833 311.5,463.5C 308.833,463.5 306.167,463.5 303.5,463.5C 303.5,460.833 303.5,458.167 303.5,455.5C 306.167,455.5 308.833,455.5 311.5,455.5 Z"/></g>
<g><path style="opacity:1" fill="#83a9bf" d="M 207.5,463.5 C 212.833,463.5 218.167,463.5 223.5,463.5C 223.5,466.167 223.5,468.833 223.5,471.5C 218.167,471.5 212.833,471.5 207.5,471.5C 207.5,468.833 207.5,466.167 207.5,463.5 Z"/></g>
<g><path style="opacity:1" fill="#83a9bf" d="M 303.5,463.5 C 303.5,466.167 303.5,468.833 303.5,471.5C 298.167,471.5 292.833,471.5 287.5,471.5C 287.5,468.833 287.5,466.167 287.5,463.5C 292.833,463.5 298.167,463.5 303.5,463.5 Z"/></g>
<g><path style="opacity:1" fill="#83a9bf" d="M 223.5,471.5 C 244.833,471.5 266.167,471.5 287.5,471.5C 287.5,474.167 287.5,476.833 287.5,479.5C 266.167,479.5 244.833,479.5 223.5,479.5C 223.5,476.833 223.5,474.167 223.5,471.5 Z"/></g>
<g><path style="opacity:1" fill="#546181" d="M 223.5,479.5 C 244.833,479.5 266.167,479.5 287.5,479.5C 290.167,479.5 292.833,479.5 295.5,479.5C 295.5,482.167 295.5,484.833 295.5,487.5C 290.167,487.5 284.833,487.5 279.5,487.5C 279.5,490.167 279.5,492.833 279.5,495.5C 263.5,495.5 247.5,495.5 231.5,495.5C 231.5,492.833 231.5,490.167 231.5,487.5C 226.167,487.5 220.833,487.5 215.5,487.5C 215.5,484.833 215.5,482.167 215.5,479.5C 218.167,479.5 220.833,479.5 223.5,479.5 Z"/></g></symbol><symbol id="slime-jump-9" width="512px" height="512px" style="shape-rendering:geometricPrecision; text-rendering:geometricPrecision; image-rendering:optimizeQuality; fill-rule:evenodd; clip-rule:evenodd">
<g><path style="opacity:1" fill="#83a9bf" d="M 215.5,199.5 C 242.167,199.5 268.833,199.5 295.5,199.5C 295.5,202.167 295.5,204.833 295.5,207.5C 298.167,207.5 300.833,207.5 303.5,207.5C 303.5,210.167 303.5,212.833 303.5,215.5C 306.167,215.5 308.833,215.5 311.5,215.5C 311.5,220.833 311.5,226.167 311.5,231.5C 314.167,231.5 316.833,231.5 319.5,231.5C 319.5,266.167 319.5,300.833 319.5,335.5C 316.833,335.5 314.167,335.5 311.5,335.5C 311.5,340.833 311.5,346.167 311.5,351.5C 308.833,351.5 306.167,351.5 303.5,351.5C 303.5,354.167 303.5,356.833 303.5,359.5C 300.833,359.5 298.167,359.5 295.5,359.5C 295.5,362.167 295.5,364.833 295.5,367.5C 268.833,367.5 242.167,367.5 215.5,367.5C 215.5,364.833 215.5,362.167 215.5,359.5C 212.833,359.5 210.167,359.5 207.5,359.5C 207.5,356.833 207.5,354.167 207.5,351.5C 204.833,351.5 202.167,351.5 199.5,351.5C 199.5,346.167 199.5,340.833 199.5,335.5C 196.833,335.5 194.167,335.5 191.5,335.5C 191.5,300.833 191.5,266.167 191.5,231.5C 194.167,231.5 196.833,231.5 199.5,231.5C 199.5,226.167 199.5,220.833 199.5,215.5C 202.167,215.5 204.833,215.5 207.5,215.5C 207.5,212.833 207.5,210.167 207.5,207.5C 210.167,207.5 212.833,207.5 215.5,207.5C 215.5,204.833 215.5,202.167 215.5,199.5 Z"/></g>
<g><path style="opacity:1" fill="#a3c3eb" d="M 271.5,207.5 C 271.5,210.167 271.5,212.833 271.5,215.5C 276.833,215.5 282.167,215.5 287.5,215.5C 287.5,218.167 287.5,220.833 287.5,223.5C 290.167,223.5 292.833,223.5 295.5,223.5C 295.5,228.833 295.5,234.167 295.5,239.5C 298.167,239.5 300.833,239.5 303.5,239.5C 303.5,242.167 303.5,244.833 303.5,247.5C 306.167,247.5 308.833,247.5 311.5,247.5C 311.5,274.167 311.5,300.833 311.5,327.5C 308.833,327.5 306.167,327.5 303.5,327.5C 303.5,332.833 303.5,338.167 303.5,343.5C 300.833,343.5 298.167,343.5 295.5,343.5C 295.5,346.167 295.5,348.833 295.5,351.5C 292.833,351.5 290.167,351.5 287.5,351.5C 287.5,354.167 287.5,356.833 287.5,359.5C 266.167,359.5 244.833,359.5 223.5,359.5C 223.5,356.833 223.5,354.167 223.5,351.5C 220.833,351.5 218.167,351.5 215.5,351.5C 215.5,348.833 215.5,346.167 215.5,343.5C 212.833,343.5 210.167,343.5 207.5,343.5C 207.5,338.167 207.5,332.833 207.5,327.5C 204.833,327.5 202.167,327.5 199.5,327.5C 199.5,298.167 199.5,268.833 199.5,239.5C 202.167,239.5 204.833,239.5 207.5,239.5C 207.5,234.167 207.5,228.833 207.5,223.5C 210.167,223.5 212.833,223.5 215.5,223.5C 215.5,220.833 215.5,218.167 215.5,215.5C 218.167,215.5 220.833,215.5 223.5,215.5C 223.5,212.833 223.5,210.167 223.5,207.5C 239.5,207.5 255.5,207.5 271.5,207.5 Z"/></g>
<g><path style="opacity:1" fill="#d8e6f6" d="M 271.5,207.5 C 276.833,207.5 282.167,207.5 287.5,207.5C 287.5,210.167 287.5,212.833 287.5,215.5C 282.167,215.5 276.833,215.5 271.5,215.5C 271.5,212.833 271.5,210.167 271.5,207.5 Z"/></g>
<g><path style="opacity:1" fill="#d8e6f6" d="M 287.5,215.5 C 290.167,215.5 292.833,215.5 295.5,215.5C 295.5,218.167 295.5,220.833 295.5,223.5C 295.5,220.833 295.5,218.167 295.5,215.5C 292.833,215.5 290.167,215.5 287.5,215.5 Z"/></g>
<g><path style="opacity:1" fill="#d8e6f6" d="M 239.5,223.5 C 242.167,223.5 244.833,223.5 247.5,223.5C 247.5,226.167 247.5,228.833 247.5,231.5C 244.833,231.5 242.167,231.5 239.5,231.5C 239.5,228.833 239.5,226.167 239.5,223.5 Z"/></g>
<g><path style="opacity:1" fill="#d8e6f6" d="M 255.5,223.5 C 263.5,223.5 271.5,223.5 279.5,223.5C 279.5,226.167 279.5,228.833 279.5,231.5C 282.167,231.5 284.833,231.5 287.5,231.5C 287.5,234.167 287.5,236.833 287.5,239.5C 282.167,239.5 276.833,239.5 271.5,239.5C 271.5,236.833 271.5,234.167 271.5,231.5C 266.167,231.5 260.833,231.5 255.5,231.5C 255.5,228.833 255.5,226.167 255.5,223.5 Z"/></g>
<g><path style="opacity:1" fill="#d8e6f6" d="M 295.5,223.5 C 298.167,223.5 300.833,223.5 303.5,223.5C 303.5,228.833 303.5,234.167 303.5,239.5C 300.833,239.5 298.167,239.5 295.5,239.5C 295.5,234.167 295.5,228.833 295.5,223.5 Z"/></g>
<g><path style="opacity:1" fill="#d8e6f6" d="M 303.5,239.5 C 306.167,239.5 308.833,239.5 311.5,239.5C 311.5,242.167 311.5,244.833 311.5,247.5C 311.5,244.833 311.5,242.167 311.5,239.5C 308.833,239.5 306.167,239.5 303.5,239.5 Z"/></g>
<g><path style="opacity:1" fill="#31325f" d="M 247.5,247.5 C 250.167,247.5 252.833,247.5 255.5,247.5C 255.5,258.167 255.5,268.833 255.5,279.5C 252.833,279.5 250.167,279.5 247.5,279.5C 247.5,268.833 247.5,258.167 247.5,247.5 Z"/></g>
<g><path style="opacity:1" fill="#31325f" d="M 287.5,247.5 C 290.167,247.5 292.833,247.5 295.5,247.5C 295.5,258.167 295.5,268.833 295.5,279.5C 292.833,279.5 290.167,279.5 287.5,279.5C 287.5,268.833 287.5,258.167 287.5,247.5 Z"/></g>
<g><path style="opacity:1" fill="#84a1c4" d="M 207.5,327.5 C 207.5,316.833 207.5,306.167 207.5,295.5C 210.167,295.5 212.833,295.5 215.5,295.5C 215.5,300.833 215.5,306.167 215.5,311.5C 218.167,311.5 220.833,311.5 223.5,311.5C 223.5,316.833 223.5,322.167 223.5,327.5C 226.167,327.5 228.833,327.5 231.5,327.5C 231.5,330.167 231.5,332.833 231.5,335.5C 234.167,335.5 236.833,335.5 239.5,335.5C 239.5,338.167 239.5,340.833 239.5,343.5C 244.833,343.5 250.167,343.5 255.5,343.5C 255.5,346.167 255.5,348.833 255.5,351.5C 247.5,351.5 239.5,351.5 231.5,351.5C 231.5,348.833 231.5,346.167 231.5,343.5C 228.833,343.5 226.167,343.5 223.5,343.5C 223.5,340.833 223.5,338.167 223.5,335.5C 220.833,335.5 218.167,335.5 215.5,335.5C 215.5,332.833 215.5,330.167 215.5,327.5C 212.833,327.5 210.167,327.5 207.5,327.5 Z"/></g>
<g><path style="opacity:1" fill="#546181" d="M 231.5,479.5 C 247.5,479.5 263.5,479.5 279.5,479.5C 279.5,482.167 279.5,484.833 279.5,487.5C 274.167,487.5 268.833,487.5 263.5,487.5C 263.5,490.167 263.5,492.833 263.5,495.5C 258.167,495.5 252.833,495.5 247.5,495.5C 247.5,492.833 247.5,490.167 247.5,487.5C 242.167,487.5 236.833,487.5 231.5,487.5C 231.5,484.833 231.5,482.167 231.5,479.5 Z"/></g></symbol><symbol id="slime-jump-8" width="512px" height="512px" style="shape-rendering:geometricPrecision; text-rendering:geometricPrecision; image-rendering:optimizeQuality; fill-rule:evenodd; clip-rule:evenodd">
<g><path style="opacity:1" fill="#83a9bf" d="M 279.5,111.5 C 274.167,111.5 268.833,111.5 263.5,111.5C 252.833,111.5 242.167,111.5 231.5,111.5C 231.5,108.833 231.5,106.167 231.5,103.5C 247.5,103.5 263.5,103.5 279.5,103.5C 279.5,106.167 279.5,108.833 279.5,111.5 Z"/></g>
<g><path style="opacity:1" fill="#83a9bf" d="M 231.5,111.5 C 231.5,114.167 231.5,116.833 231.5,119.5C 226.167,119.5 220.833,119.5 215.5,119.5C 215.5,116.833 215.5,114.167 215.5,111.5C 220.833,111.5 226.167,111.5 231.5,111.5 Z"/></g>
<g><path style="opacity:1" fill="#a3c3eb" d="M 231.5,111.5 C 242.167,111.5 252.833,111.5 263.5,111.5C 263.5,114.167 263.5,116.833 263.5,119.5C 268.833,119.5 274.167,119.5 279.5,119.5C 279.5,122.167 279.5,124.833 279.5,127.5C 284.833,127.5 290.167,127.5 295.5,127.5C 295.5,135.5 295.5,143.5 295.5,151.5C 298.167,151.5 300.833,151.5 303.5,151.5C 303.5,191.5 303.5,231.5 303.5,271.5C 300.833,271.5 298.167,271.5 295.5,271.5C 295.5,274.167 295.5,276.833 295.5,279.5C 292.833,279.5 290.167,279.5 287.5,279.5C 287.5,282.167 287.5,284.833 287.5,287.5C 284.833,287.5 282.167,287.5 279.5,287.5C 279.5,290.167 279.5,292.833 279.5,295.5C 263.5,295.5 247.5,295.5 231.5,295.5C 231.5,292.833 231.5,290.167 231.5,287.5C 228.833,287.5 226.167,287.5 223.5,287.5C 223.5,284.833 223.5,282.167 223.5,279.5C 220.833,279.5 218.167,279.5 215.5,279.5C 215.5,276.833 215.5,274.167 215.5,271.5C 212.833,271.5 210.167,271.5 207.5,271.5C 207.5,223.5 207.5,175.5 207.5,127.5C 210.167,127.5 212.833,127.5 215.5,127.5C 215.5,124.833 215.5,122.167 215.5,119.5C 220.833,119.5 226.167,119.5 231.5,119.5C 231.5,116.833 231.5,114.167 231.5,111.5 Z"/></g>
<g><path style="opacity:1" fill="#d8e6f6" d="M 263.5,111.5 C 268.833,111.5 274.167,111.5 279.5,111.5C 279.5,114.167 279.5,116.833 279.5,119.5C 274.167,119.5 268.833,119.5 263.5,119.5C 263.5,116.833 263.5,114.167 263.5,111.5 Z"/></g>
<g><path style="opacity:1" fill="#83a9bf" d="M 279.5,111.5 C 284.833,111.5 290.167,111.5 295.5,111.5C 295.5,114.167 295.5,116.833 295.5,119.5C 290.167,119.5 284.833,119.5 279.5,119.5C 279.5,116.833 279.5,114.167 279.5,111.5 Z"/></g>
<g><path style="opacity:1" fill="#83a9bf" d="M 215.5,119.5 C 215.5,122.167 215.5,124.833 215.5,127.5C 212.833,127.5 210.167,127.5 207.5,127.5C 207.5,124.833 207.5,122.167 207.5,119.5C 210.167,119.5 212.833,119.5 215.5,119.5 Z"/></g>
<g><path style="opacity:1" fill="#d8e6f6" d="M 279.5,119.5 C 284.833,119.5 290.167,119.5 295.5,119.5C 295.5,122.167 295.5,124.833 295.5,127.5C 290.167,127.5 284.833,127.5 279.5,127.5C 279.5,124.833 279.5,122.167 279.5,119.5 Z"/></g>
<g><path style="opacity:1" fill="#83a9bf" d="M 295.5,119.5 C 298.167,119.5 300.833,119.5 303.5,119.5C 303.5,122.167 303.5,124.833 303.5,127.5C 300.833,127.5 298.167,127.5 295.5,127.5C 295.5,124.833 295.5,122.167 295.5,119.5 Z"/></g>
<g><path style="opacity:0.996" fill="#84a9c0" d="M 207.5,127.5 C 207.5,175.5 207.5,223.5 207.5,271.5C 210.167,271.5 212.833,271.5 215.5,271.5C 215.5,274.167 215.5,276.833 215.5,279.5C 218.167,279.5 220.833,279.5 223.5,279.5C 223.5,282.167 223.5,284.833 223.5,287.5C 226.167,287.5 228.833,287.5 231.5,287.5C 231.5,290.167 231.5,292.833 231.5,295.5C 247.5,295.5 263.5,295.5 279.5,295.5C 279.5,292.833 279.5,290.167 279.5,287.5C 282.167,287.5 284.833,287.5 287.5,287.5C 287.5,284.833 287.5,282.167 287.5,279.5C 290.167,279.5 292.833,279.5 295.5,279.5C 295.5,276.833 295.5,274.167 295.5,271.5C 298.167,271.5 300.833,271.5 303.5,271.5C 303.5,231.5 303.5,191.5 303.5,151.5C 303.5,143.5 303.5,135.5 303.5,127.5C 306.167,127.5 308.833,127.5 311.5,127.5C 311.5,178.167 311.5,228.833 311.5,279.5C 308.833,279.5 306.167,279.5 303.5,279.5C 303.5,282.167 303.5,284.833 303.5,287.5C 300.833,287.5 298.167,287.5 295.5,287.5C 295.5,290.167 295.5,292.833 295.5,295.5C 292.833,295.5 290.167,295.5 287.5,295.5C 287.5,298.167 287.5,300.833 287.5,303.5C 266.167,303.5 244.833,303.5 223.5,303.5C 223.5,300.833 223.5,298.167 223.5,295.5C 220.833,295.5 218.167,295.5 215.5,295.5C 215.5,292.833 215.5,290.167 215.5,287.5C 212.833,287.5 210.167,287.5 207.5,287.5C 207.5,284.833 207.5,282.167 207.5,279.5C 204.833,279.5 202.167,279.5 199.5,279.5C 199.5,228.833 199.5,178.167 199.5,127.5C 202.167,127.5 204.833,127.5 207.5,127.5 Z"/></g>
<g><path style="opacity:1" fill="#d8e6f6" d="M 239.5,127.5 C 242.167,127.5 244.833,127.5 247.5,127.5C 247.5,130.167 247.5,132.833 247.5,135.5C 244.833,135.5 242.167,135.5 239.5,135.5C 239.5,132.833 239.5,130.167 239.5,127.5 Z"/></g>
<g><path style="opacity:1" fill="#d8e6f6" d="M 255.5,127.5 C 260.833,127.5 266.167,127.5 271.5,127.5C 271.5,130.167 271.5,132.833 271.5,135.5C 276.833,135.5 282.167,135.5 287.5,135.5C 287.5,138.167 287.5,140.833 287.5,143.5C 279.5,143.5 271.5,143.5 263.5,143.5C 263.5,140.833 263.5,138.167 263.5,135.5C 260.833,135.5 258.167,135.5 255.5,135.5C 255.5,132.833 255.5,130.167 255.5,127.5 Z"/></g>
<g><path style="opacity:1" fill="#d8e6f6" d="M 295.5,127.5 C 298.167,127.5 300.833,127.5 303.5,127.5C 303.5,135.5 303.5,143.5 303.5,151.5C 300.833,151.5 298.167,151.5 295.5,151.5C 295.5,143.5 295.5,135.5 295.5,127.5 Z"/></g>
<g><path style="opacity:1" fill="#31325f" d="M 247.5,159.5 C 250.167,159.5 252.833,159.5 255.5,159.5C 255.5,170.167 255.5,180.833 255.5,191.5C 252.833,191.5 250.167,191.5 247.5,191.5C 247.5,180.833 247.5,170.167 247.5,159.5 Z"/></g>
<g><path style="opacity:1" fill="#31325f" d="M 279.5,159.5 C 282.167,159.5 284.833,159.5 287.5,159.5C 287.5,170.167 287.5,180.833 287.5,191.5C 284.833,191.5 282.167,191.5 279.5,191.5C 279.5,180.833 279.5,170.167 279.5,159.5 Z"/></g>
<g><path style="opacity:1" fill="#84a1c4" d="M 215.5,215.5 C 218.167,215.5 220.833,215.5 223.5,215.5C 223.5,228.833 223.5,242.167 223.5,255.5C 226.167,255.5 228.833,255.5 231.5,255.5C 231.5,258.167 231.5,260.833 231.5,263.5C 234.167,263.5 236.833,263.5 239.5,263.5C 239.5,266.167 239.5,268.833 239.5,271.5C 242.167,271.5 244.833,271.5 247.5,271.5C 247.5,274.167 247.5,276.833 247.5,279.5C 250.167,279.5 252.833,279.5 255.5,279.5C 255.5,282.167 255.5,284.833 255.5,287.5C 250.167,287.5 244.833,287.5 239.5,287.5C 239.5,284.833 239.5,282.167 239.5,279.5C 236.833,279.5 234.167,279.5 231.5,279.5C 231.5,276.833 231.5,274.167 231.5,271.5C 228.833,271.5 226.167,271.5 223.5,271.5C 223.5,268.833 223.5,266.167 223.5,263.5C 220.833,263.5 218.167,263.5 215.5,263.5C 215.5,247.5 215.5,231.5 215.5,215.5 Z"/></g></symbol><symbol id="slime-jump-7" width="512px" height="512px" style="shape-rendering:geometricPrecision; text-rendering:geometricPrecision; image-rendering:optimizeQuality; fill-rule:evenodd; clip-rule:evenodd">
<g><path style="opacity:1" fill="#83a9bf" d="M 287.5,39.5 C 282.167,39.5 276.833,39.5 271.5,39.5C 255.5,39.5 239.5,39.5 223.5,39.5C 223.5,36.8333 223.5,34.1667 223.5,31.5C 244.833,31.5 266.167,31.5 287.5,31.5C 287.5,34.1667 287.5,36.8333 287.5,39.5 Z"/></g><g><path style="opacity:1" fill="#83a9bf" d="M 223.5,39.5 C 223.5,42.1667 223.5,44.8333 223.5,47.5C 218.167,47.5 212.833,47.5 207.5,47.5C 207.5,44.8333 207.5,42.1667 207.5,39.5C 212.833,39.5 218.167,39.5 223.5,39.5 Z"/></g>
<g><path style="opacity:1" fill="#a3c3eb" d="M 223.5,39.5 C 239.5,39.5 255.5,39.5 271.5,39.5C 271.5,42.1667 271.5,44.8333 271.5,47.5C 276.833,47.5 282.167,47.5 287.5,47.5C 287.5,50.1667 287.5,52.8333 287.5,55.5C 290.167,55.5 292.833,55.5 295.5,55.5C 295.5,58.1667 295.5,60.8333 295.5,63.5C 298.167,63.5 300.833,63.5 303.5,63.5C 303.5,66.1667 303.5,68.8333 303.5,71.5C 306.167,71.5 308.833,71.5 311.5,71.5C 311.5,76.8333 311.5,82.1667 311.5,87.5C 314.167,87.5 316.833,87.5 319.5,87.5C 319.5,108.833 319.5,130.167 319.5,151.5C 316.833,151.5 314.167,151.5 311.5,151.5C 311.5,156.833 311.5,162.167 311.5,167.5C 308.833,167.5 306.167,167.5 303.5,167.5C 303.5,170.167 303.5,172.833 303.5,175.5C 300.833,175.5 298.167,175.5 295.5,175.5C 295.5,178.167 295.5,180.833 295.5,183.5C 292.833,183.5 290.167,183.5 287.5,183.5C 287.5,186.167 287.5,188.833 287.5,191.5C 266.167,191.5 244.833,191.5 223.5,191.5C 223.5,188.833 223.5,186.167 223.5,183.5C 220.833,183.5 218.167,183.5 215.5,183.5C 215.5,180.833 215.5,178.167 215.5,175.5C 212.833,175.5 210.167,175.5 207.5,175.5C 207.5,172.833 207.5,170.167 207.5,167.5C 204.833,167.5 202.167,167.5 199.5,167.5C 199.5,162.167 199.5,156.833 199.5,151.5C 196.833,151.5 194.167,151.5 191.5,151.5C 191.5,130.167 191.5,108.833 191.5,87.5C 194.167,87.5 196.833,87.5 199.5,87.5C 199.5,79.5 199.5,71.5 199.5,63.5C 202.167,63.5 204.833,63.5 207.5,63.5C 207.5,58.1667 207.5,52.8333 207.5,47.5C 212.833,47.5 218.167,47.5 223.5,47.5C 223.5,44.8333 223.5,42.1667 223.5,39.5 Z"/></g><g><path style="opacity:1" fill="#d8e6f6" d="M 271.5,39.5 C 276.833,39.5 282.167,39.5 287.5,39.5C 287.5,42.1667 287.5,44.8333 287.5,47.5C 282.167,47.5 276.833,47.5 271.5,47.5C 271.5,44.8333 271.5,42.1667 271.5,39.5 Z"/></g><g><path style="opacity:1" fill="#83a9bf" d="M 287.5,39.5 C 292.833,39.5 298.167,39.5 303.5,39.5C 303.5,42.1667 303.5,44.8333 303.5,47.5C 298.167,47.5 292.833,47.5 287.5,47.5C 287.5,44.8333 287.5,42.1667 287.5,39.5 Z"/></g>
<g><path style="opacity:1" fill="#83a9bf" d="M 207.5,47.5 C 207.5,52.8333 207.5,58.1667 207.5,63.5C 204.833,63.5 202.167,63.5 199.5,63.5C 199.5,71.5 199.5,79.5 199.5,87.5C 196.833,87.5 194.167,87.5 191.5,87.5C 191.5,108.833 191.5,130.167 191.5,151.5C 188.833,151.5 186.167,151.5 183.5,151.5C 183.5,127.5 183.5,103.5 183.5,79.5C 186.167,79.5 188.833,79.5 191.5,79.5C 191.5,71.5 191.5,63.5 191.5,55.5C 194.167,55.5 196.833,55.5 199.5,55.5C 199.5,52.8333 199.5,50.1667 199.5,47.5C 202.167,47.5 204.833,47.5 207.5,47.5 Z"/></g>
<g><path style="opacity:1" fill="#d8e6f6" d="M 287.5,47.5 C 292.833,47.5 298.167,47.5 303.5,47.5C 303.5,52.8333 303.5,58.1667 303.5,63.5C 300.833,63.5 298.167,63.5 295.5,63.5C 295.5,60.8333 295.5,58.1667 295.5,55.5C 292.833,55.5 290.167,55.5 287.5,55.5C 287.5,52.8333 287.5,50.1667 287.5,47.5 Z"/></g>
<g><path style="opacity:1" fill="#83a9bf" d="M 303.5,47.5 C 306.167,47.5 308.833,47.5 311.5,47.5C 311.5,50.1667 311.5,52.8333 311.5,55.5C 314.167,55.5 316.833,55.5 319.5,55.5C 319.5,63.5 319.5,71.5 319.5,79.5C 322.167,79.5 324.833,79.5 327.5,79.5C 327.5,103.5 327.5,127.5 327.5,151.5C 324.833,151.5 322.167,151.5 319.5,151.5C 319.5,130.167 319.5,108.833 319.5,87.5C 316.833,87.5 314.167,87.5 311.5,87.5C 311.5,82.1667 311.5,76.8333 311.5,71.5C 308.833,71.5 306.167,71.5 303.5,71.5C 303.5,68.8333 303.5,66.1667 303.5,63.5C 303.5,58.1667 303.5,52.8333 303.5,47.5 Z"/></g>
<g><path style="opacity:1" fill="#d8e6f6" d="M 239.5,55.5 C 242.167,55.5 244.833,55.5 247.5,55.5C 247.5,58.1667 247.5,60.8333 247.5,63.5C 244.833,63.5 242.167,63.5 239.5,63.5C 239.5,60.8333 239.5,58.1667 239.5,55.5 Z"/></g>
<g><path style="opacity:1" fill="#d8e6f6" d="M 255.5,55.5 C 263.5,55.5 271.5,55.5 279.5,55.5C 279.5,58.1667 279.5,60.8333 279.5,63.5C 282.167,63.5 284.833,63.5 287.5,63.5C 287.5,66.1667 287.5,68.8333 287.5,71.5C 282.167,71.5 276.833,71.5 271.5,71.5C 271.5,68.8333 271.5,66.1667 271.5,63.5C 266.167,63.5 260.833,63.5 255.5,63.5C 255.5,60.8333 255.5,58.1667 255.5,55.5 Z"/></g>
<g><path style="opacity:1" fill="#d8e6f6" d="M 303.5,63.5 C 306.167,63.5 308.833,63.5 311.5,63.5C 311.5,66.1667 311.5,68.8333 311.5,71.5C 311.5,68.8333 311.5,66.1667 311.5,63.5C 308.833,63.5 306.167,63.5 303.5,63.5 Z"/></g>
<g><path style="opacity:1" fill="#31325f" d="M 247.5,79.5 C 250.167,79.5 252.833,79.5 255.5,79.5C 255.5,90.1667 255.5,100.833 255.5,111.5C 252.833,111.5 250.167,111.5 247.5,111.5C 247.5,100.833 247.5,90.1667 247.5,79.5 Z"/></g>
<g><path style="opacity:1" fill="#31325f" d="M 287.5,79.5 C 290.167,79.5 292.833,79.5 295.5,79.5C 295.5,90.1667 295.5,100.833 295.5,111.5C 292.833,111.5 290.167,111.5 287.5,111.5C 287.5,100.833 287.5,90.1667 287.5,79.5 Z"/></g>
<g><path style="opacity:1" fill="#84a1c4" d="M 239.5,175.5 C 234.167,175.5 228.833,175.5 223.5,175.5C 223.5,172.833 223.5,170.167 223.5,167.5C 220.833,167.5 218.167,167.5 215.5,167.5C 215.5,164.833 215.5,162.167 215.5,159.5C 212.833,159.5 210.167,159.5 207.5,159.5C 207.5,154.167 207.5,148.833 207.5,143.5C 204.833,143.5 202.167,143.5 199.5,143.5C 199.5,135.5 199.5,127.5 199.5,119.5C 202.167,119.5 204.833,119.5 207.5,119.5C 207.5,124.833 207.5,130.167 207.5,135.5C 210.167,135.5 212.833,135.5 215.5,135.5C 215.5,138.167 215.5,140.833 215.5,143.5C 218.167,143.5 220.833,143.5 223.5,143.5C 223.5,148.833 223.5,154.167 223.5,159.5C 226.167,159.5 228.833,159.5 231.5,159.5C 231.5,162.167 231.5,164.833 231.5,167.5C 234.167,167.5 236.833,167.5 239.5,167.5C 239.5,170.167 239.5,172.833 239.5,175.5 Z"/></g><g><path style="opacity:1" fill="#83a9bf" d="M 191.5,151.5 C 194.167,151.5 196.833,151.5 199.5,151.5C 199.5,156.833 199.5,162.167 199.5,167.5C 196.833,167.5 194.167,167.5 191.5,167.5C 191.5,162.167 191.5,156.833 191.5,151.5 Z"/></g><g><path style="opacity:1" fill="#83a9bf" d="M 319.5,151.5 C 319.5,156.833 319.5,162.167 319.5,167.5C 316.833,167.5 314.167,167.5 311.5,167.5C 311.5,162.167 311.5,156.833 311.5,151.5C 314.167,151.5 316.833,151.5 319.5,151.5 Z"/></g>
<g><path style="opacity:1" fill="#83a9bf" d="M 199.5,167.5 C 202.167,167.5 204.833,167.5 207.5,167.5C 207.5,170.167 207.5,172.833 207.5,175.5C 210.167,175.5 212.833,175.5 215.5,175.5C 215.5,178.167 215.5,180.833 215.5,183.5C 210.167,183.5 204.833,183.5 199.5,183.5C 199.5,178.167 199.5,172.833 199.5,167.5 Z"/></g><g><path style="opacity:1" fill="#83a9bf" d="M 311.5,167.5 C 311.5,172.833 311.5,178.167 311.5,183.5C 306.167,183.5 300.833,183.5 295.5,183.5C 295.5,180.833 295.5,178.167 295.5,175.5C 298.167,175.5 300.833,175.5 303.5,175.5C 303.5,172.833 303.5,170.167 303.5,167.5C 306.167,167.5 308.833,167.5 311.5,167.5 Z"/></g><g><path style="opacity:1" fill="#84a1c4" d="M 239.5,175.5 C 244.833,175.5 250.167,175.5 255.5,175.5C 255.5,178.167 255.5,180.833 255.5,183.5C 250.167,183.5 244.833,183.5 239.5,183.5C 239.5,180.833 239.5,178.167 239.5,175.5 Z"/></g><g><path style="opacity:1" fill="#83a9bf" d="M 215.5,183.5 C 218.167,183.5 220.833,183.5 223.5,183.5C 223.5,186.167 223.5,188.833 223.5,191.5C 220.833,191.5 218.167,191.5 215.5,191.5C 215.5,188.833 215.5,186.167 215.5,183.5 Z"/></g>
<g><path style="opacity:1" fill="#83a9bf" d="M 295.5,183.5 C 295.5,186.167 295.5,188.833 295.5,191.5C 292.833,191.5 290.167,191.5 287.5,191.5C 287.5,188.833 287.5,186.167 287.5,183.5C 290.167,183.5 292.833,183.5 295.5,183.5 Z"/></g><g><path style="opacity:1" fill="#83a9bf" d="M 223.5,191.5 C 244.833,191.5 266.167,191.5 287.5,191.5C 287.5,194.167 287.5,196.833 287.5,199.5C 266.167,199.5 244.833,199.5 223.5,199.5C 223.5,196.833 223.5,194.167 223.5,191.5 Z"/></g></symbol>
</svg>
